<?xml version="1.0" encoding="UTF-8" standalone="no"?>
<svg
   xmlns:dc="http://purl.org/dc/elements/1.1/"
   xmlns:cc="http://creativecommons.org/ns#"
   xmlns:rdf="http://www.w3.org/1999/02/22-rdf-syntax-ns#"
   xmlns:svg="http://www.w3.org/2000/svg"
   xmlns="http://www.w3.org/2000/svg"
   xmlns:sodipodi="http://sodipodi.sourceforge.net/DTD/sodipodi-0.dtd"
   xmlns:inkscape="http://www.inkscape.org/namespaces/inkscape"
   width="920"
   height="552"
   viewBox="56 263 419 250"
   zoomAndPan="magnify"
   contentStyleType="text/css"
   preserveAspectRatio="xMidYMid meet"
   id="svg2"
   version="1.1"
   inkscape:version="0.48.2 r9819"
   sodipodi:docname="Flag_of_the_province_of_Cáceres.svg">
  <metadata
     id="metadata263">
    <rdf:RDF>
      <cc:Work
         rdf:about="">
        <dc:format>image/svg+xml</dc:format>
        <dc:type
           rdf:resource="http://purl.org/dc/dcmitype/StillImage" />
        <dc:title />
      </cc:Work>
    </rdf:RDF>
  </metadata>
  <defs
     id="defs261" />
  <sodipodi:namedview
     pagecolor="#ffffff"
     bordercolor="#666666"
     borderopacity="1"
     objecttolerance="10"
     gridtolerance="10"
     guidetolerance="10"
     inkscape:pageopacity="0"
     inkscape:pageshadow="2"
     inkscape:window-width="1360"
     inkscape:window-height="712"
     id="namedview259"
     showgrid="false"
     inkscape:zoom="0.74782609"
     inkscape:cx="415.55323"
     inkscape:cy="284.78091"
     inkscape:window-x="-4"
     inkscape:window-y="-4"
     inkscape:window-maximized="1"
     inkscape:current-layer="svg2" />
  <rect
     fill="#000"
     width="2000"
     y="-500"
     x="-500"
     height="2000"
     id="rect4" />
  <rect
     x="37.149708"
     width="437.85031"
     y="250"
     height="263.78198"
     id="rect6"
     style="fill:#ffffff" />
  <rect
     x="37.149708"
     width="218.93312"
     y="249"
     height="265"
     id="rect8"
     style="fill:#ff0000" />
  <g
     id="g2866"
     transform="matrix(0.4,0,0,0.4,-25.900133,316.34592)"
     style="fill:#800080;fill-opacity:1;stroke:#000000;stroke-width:2.4268744;stroke-miterlimit:4;stroke-opacity:1;stroke-dasharray:none">
    <path
       style="fill:#800080;fill-opacity:1;stroke:#000000;stroke-width:2.4268744;stroke-miterlimit:4;stroke-opacity:1;stroke-dasharray:none"
       id="path3707"
       d="m 1167.5049,-53.102817 c -0.1156,-0.11037 -0.1156,-0.220741 -0.1156,-0.220741 -0.3431,-0.551854 -0.6863,-0.882966 -1.0283,-1.324448 -0.1156,-0.220742 -0.2288,-0.331113 -0.2288,-0.441483 -0.4576,-0.441483 -0.8008,-0.772595 -1.2595,-1.214078 -1.4871,-1.434819 -3.3162,-2.648897 -5.4908,-3.531862 -0.1144,-0.110371 -0.3432,-0.110371 -0.4564,-0.220742 -1.8314,-0.662224 -3.6606,-1.324448 -5.8352,-1.765931 -4.0037,-0.441483 -7.7786,0.551854 -11.2104,2.869638 -3.4318,3.200751 -4.3469,6.180759 -2.7454,8.719286 0,0.11037 0,0.220741 0.1155,0.331112 0.1144,-0.110371 0.1144,-0.331112 0.2288,-0.441483 1.3716,-3.862975 5.0321,-5.960018 11.0949,-6.511871 2.6322,0.11037 4.8045,0.551853 6.4071,1.324448 1.3727,0.662224 2.4022,1.54519 3.203,2.538526 0.2288,0.331112 0.3432,0.662224 0.5719,0.993336 0.2288,0.331112 0.3432,0.882966 0.572,1.434819 0.8007,6.511872 -0.8007,11.478553 -4.8045,15.010416 -5.1476,4.525198 -11.4392,5.960017 -18.9891,4.194086 -7.551,-1.765931 -13.4982,-0.993336 -17.9595,2.428156 -0.1144,0 -0.1144,0 -0.1144,0 -3.4318,3.20075 -6.0639,6.953354 -7.7798,11.368182 1.7159,-4.414828 4.348,-8.167432 7.7798,-11.368182 l 0,-0.110371 c -1.4882,-7.284466 -5.492,-12.692631 -11.7835,-16.445234 -4.3469,-1.434819 -9.1514,-1.986673 -14.5267,-1.324449 l 0,0 c -7.551,1.103707 -12.1267,4.63557 -13.6126,10.705958 -1.0296,4.304457 0.2287,8.057061 3.8893,11.03707 2.1723,1.434819 4.6901,1.655561 7.6631,0.331112 -5.1476,-1.54519 -6.8635,-4.304457 -5.0321,-8.388173 1.3727,-1.65556 3.7749,-2.648897 7.32,-2.648897 3.3173,0.110371 5.9483,1.54519 7.893,4.194087 2.2878,4.966681 2.9742,9.160768 1.9447,12.913372 -0.3432,1.434819 -1.0296,2.759267 -1.9447,3.973345 -9.8377,13.3548547 -15.6717,28.034158 -17.6164,44.14828 -1.1439,12.69263 -1.2583,21.963769 -0.6863,27.813416 0.1144,2.097044 0.4575,4.194087 0.6863,6.511872 0.572,4.194086 1.3727,8.940026 2.2879,14.017079 1.4882,7.836319 5.3764,18.98376 11.7835,33.774536 3.0874,7.72595 7.0912,13.5756 12.2388,17.43857 1.6015,1.10371 2.8598,2.09594 4.2325,3.19965 4.1193,3.53186 6.5204,7.28557 7.0923,11.14854 -1.8302,-4.19408 -5.1476,-6.73371 -9.9521,-7.72595 -0.8007,-0.11147 -1.6003,-0.33111 -2.4022,-0.33111 -4.0037,-0.55185 -8.0075,-0.11147 -11.8968,1.10371 -2.5166,0.21964 -4.9189,0.21964 -7.0923,-0.22074 -4.3469,-0.88297 -8.0075,-3.09038 -10.8673,-6.51187 -2.8598,-4.5252 -1.6003,-9.27004 3.6606,-14.12745 -5.7196,0.99333 -9.4946,3.86297 -11.668,8.71928 -1.1439,4.5252 -1.0284,8.49744 0.572,12.0293 4.0037,5.51854 9.0369,8.16744 15.0997,7.83743 0.4576,0 0.8008,0 1.2595,0 -0.4576,0.21964 -0.8008,0.55185 -1.2595,0.77149 -4.0037,2.53963 -8.8082,4.41483 -14.4134,5.63001 3.8882,2.53852 8.6938,2.64779 14.4134,0.33111 -8.1218,5.84965 -10.8672,12.47189 -8.3506,19.9771 3.7749,7.94669 9.8377,11.80966 18.4171,11.25781 l 0.1156,0 c 0.1143,-0.11037 0.2287,-0.11037 0.4564,-0.11037 0.8007,-0.11148 1.4882,-0.22074 2.2878,-0.33111 6.8635,-2.53963 9.7233,-5.85075 8.8082,-9.93337 -2.631,3.64224 -6.5203,5.18632 -11.3237,4.74594 -5.7196,-1.76703 -8.5794,-5.51853 -8.465,-11.58892 0.6864,-3.64223 2.2879,-6.4015 4.6901,-8.38928 2.8598,-2.31778 6.9791,-3.64223 12.24,-3.64223 12.8119,1.21518 20.8193,5.51853 23.9079,12.91337 2.8598,7.83632 3.3162,15.01042 1.2583,21.8534 -3.5461,9.16077 -10.8672,16.11523 -21.9633,20.74969 -6.8635,2.31889 -13.3827,3.20075 -19.4466,3.20075 -6.0628,-0.22074 -11.7824,-1.54519 -17.1588,-4.08371 -6.6348,-4.30336 -13.3828,-8.27781 -19.7899,-12.02931 0,-0.11147 -0.2288,-0.11147 -0.2288,-0.11147 -8.235,-5.51854 -15.0986,-13.13301 -20.5905,-22.84674 -2.9742,-5.51853 -5.1477,-11.2567 -6.0628,-16.88671 0,-0.11037 0,-0.11037 0,-0.22074 -0.8008,-6.95336 -2.1723,-13.90671 -4.3469,-20.85896 l 0.3432,-0.33111 c 3.4317,2.9789 6.8635,4.41482 10.1809,4.30335 -5.4909,-4.85521 -9.3802,-10.48522 -11.5548,-16.77635 -0.1144,-0.55185 -0.1144,-0.99223 -0.1144,-1.65556 l -0.5708,0.11037 c -2.9742,1.54409 -6.5204,2.20742 -10.5241,1.98667 -4.5757,-0.44148 -8.2362,-1.8763 -11.32365,-4.41482 -3.20412,-2.53853 -5.60521,-6.07039 -7.20784,-10.70596 -2.05906,1.32445 -4.11812,2.31889 -6.17603,3.09038 0,0.22074 -0.1144,0.33221 -0.22879,0.55185 -4.23251,6.73372 -9.95211,11.7004 -17.3876,14.90005 -1.83027,0.77259 -3.77494,1.43592 -5.7196,1.98777 1.3727,-1.32445 2.40223,-2.75926 3.31737,-4.19519 1.94466,-3.31112 2.51663,-6.84188 1.83027,-10.37374 -3.08858,0.7726 -5.7196,1.98667 -8.00744,3.7515 -0.91514,0.66333 -1.71589,1.54519 -2.51663,2.42816 -4.57568,4.74594 -4.57568,9.60225 -0.22878,14.78967 -3.31738,0.44038 -5.71961,-0.33111 -7.43549,-2.42816 -0.57196,-0.77259 -1.02953,-1.54519 -1.37271,-2.42815 -0.11439,-0.33111 -0.11439,-0.44038 -0.22878,-0.66223 -1.4871,-4.5263 -0.11439,-9.05039 4.11811,-13.57559 0.80075,-0.88407 1.60149,-1.65556 2.51663,-2.42816 -7.32109,2.6478 -11.5536,6.95336 -12.46874,13.13301 0.57196,2.98001 1.83028,5.85075 3.77494,8.38928 0,0.11037 0.22879,0.33111 0.34318,0.44038 0.68635,0.88407 1.60149,1.8763 2.51662,2.75927 0.1144,0.11147 0.1144,0.11147 0.1144,0.11147 -6.06279,-1.32445 -10.98165,-4.5263 -14.64219,-9.93336 -1.94467,-3.4226 -2.17345,-7.72595 -0.57196,-13.13412 0,0 0,0 0.11439,-0.11037 0.34318,-1.54519 1.02953,-3.09038 1.71588,-4.85631 l -8.80819,5.96002 c -3.66055,1.8763 -8.12184,2.86964 -13.26949,2.75927 l -0.11439,0 c -2.74541,0.33111 -5.37643,0.99223 -7.77866,1.8763 -4.46129,1.54409 -8.23623,4.19409 -11.43921,7.83632 -2.40223,-1.76593 -2.97419,-4.41483 -1.60149,-7.61558 0.68635,-0.99223 1.37271,-1.98667 2.17345,-2.9789 l -4.23251,1.1037 -29.16998,27.59268 c -1.37271,1.21408 -1.60149,2.53852 -0.80075,3.53076 -4.80447,0.33221 -8.5794,1.54519 -11.21042,4.19519 -1.14392,1.21408 -2.17345,2.31778 -3.54616,3.53076 -3.08858,2.98001 -7.09231,5.51853 -11.5536,8.05816 -2.17345,0.99223 -4.46129,1.43482 -6.74913,1.43482 -1.4871,-0.11147 -2.9742,-0.33111 -4.57569,-0.77259 l -0.34317,-0.11038 -6.29157,-1.21518 c -3.43176,-0.22074 -5.49082,0.44149 -6.06278,2.20742 -0.11439,0.44148 -0.11439,0.88296 0,1.32445 0.22878,0.88296 0.91514,1.43481 2.40223,1.76593 3.88933,0.55185 5.94839,1.54519 6.29157,3.09148 1.02953,2.75927 0.34317,4.63447 -1.94467,5.62891 1.02953,4.30445 4.00373,6.95335 8.80819,8.16743 0.22879,-3.64334 2.05906,-5.96002 5.49083,-6.95446 l 4.46129,4.96668 5.37643,-4.85521 c 2.05905,-2.31888 2.74541,-5.07815 2.17345,-8.2778 0.57196,3.19965 -0.1144,5.95892 -2.17345,8.2778 l -5.37643,4.85521 c -2.28785,3.09148 -3.66055,6.18186 -4.23251,9.27114 l 2.28784,4.41483 c 1.02953,-2.6489 3.31737,-3.64224 6.97792,-3.31112 3.54615,1.1037 5.49082,3.31112 5.834,6.4015 2.40223,1.76703 6.17717,2.09704 11.21042,1.1037 -2.40223,-2.20741 -3.88933,-4.63556 -4.57568,-7.39483 -0.11439,-0.11037 -0.11439,-0.11037 -0.11439,-0.11037 -0.22879,-1.21408 -0.45757,-2.6489 -0.45757,-4.08372 0,1.43482 0.22878,2.87074 0.45757,4.08372 l 1.14392,-0.22074 c 3.43176,-2.31779 7.2067,-2.98001 11.09603,-1.87631 4.80447,-4.74594 7.54988,-9.49188 8.23623,-14.01597 0.11439,0 0.11439,0 0.11439,-0.11148 2.40224,6.84299 7.89306,8.49855 16.81564,4.85631 -6.74913,0.66223 -8.12184,-1.65556 -3.77494,-6.73371 0.1144,0.11147 0.22879,0.11147 0.45757,0.11147 4.00373,-1.65556 6.17718,-3.86297 6.29157,-6.62224 0,-0.33111 0,-0.66333 0,-0.99334 0.11439,0.22075 0.34317,0.55186 0.34317,0.7726 0,0 0,0 0.1144,0.11037 1.71588,3.64334 3.31737,4.96668 4.57568,4.30446 0.80074,-6.4015 2.74541,-11.03707 5.7196,-13.68597 -0.22878,7.61558 1.83028,11.7004 6.40596,12.47299 0.68636,-4.41482 1.60149,-8.16743 2.74541,-11.36928 0.11439,-0.11037 0.11439,-0.33111 0.22879,-0.44038 1.60149,-4.19409 3.77494,-7.06373 6.40595,-9.0504 0.22879,3.53186 -0.80074,7.1741 -3.20297,10.70596 4.57568,-1.76704 8.23623,-4.41483 11.09603,-8.05706 2.17345,-3.4226 3.08859,-7.1741 2.97419,-11.25781 4.69008,8.49854 4.4613,16.44413 -0.57196,23.84007 l 13.95584,-10.70596 c 1.37271,-0.99223 2.8598,-1.98667 4.3469,-2.86964 6.06278,-3.7526 12.69752,-5.73927 19.90423,-6.07039 -7.20671,0.33112 -13.84145,2.31779 -19.90423,6.07039 -1.4871,0.88297 -2.97419,1.8763 -4.3469,2.86964 1.02953,6.4026 0,11.03707 -2.97419,14.23782 5.14764,0.55185 9.03697,-2.53853 11.43921,-9.0504 0.22878,-0.55185 0.34317,-0.99223 0.57196,-1.54408 -1.25832,5.84964 0.11439,9.93336 4.11811,12.47189 8.35062,3.7515 17.04442,6.29113 25.96701,7.61447 1.25831,0.33222 2.51662,0.66333 3.66055,1.10371 0.91513,0.33221 1.71588,0.77259 2.63101,1.21518 1.02839,0.33111 1.94353,0.88296 2.85981,1.54408 4.23136,2.6489 7.66312,6.29113 10.63847,11.14855 1.0284,-2.6489 0.9151,-5.96002 -0.3432,-9.82299 -1.71587,-2.6478 -3.77607,-4.85521 -6.06391,-6.84299 -1.4871,-1.1037 -2.97419,-2.09594 -4.46015,-2.86963 1.4871,0.77259 2.9742,1.76593 4.46015,2.86963 2.28784,1.98778 4.34804,4.19519 6.06391,6.84299 1.2583,3.86297 1.3716,7.17409 0.3432,9.82299 -0.1155,0 -0.2288,0.11037 -0.1155,0.22074 -1.83032,3.19965 -2.85985,6.51077 -3.20302,10.26448 -0.1144,0.55185 -0.1144,1.21407 -0.1144,1.76593 0,2.31889 0.1144,4.74594 0.45643,7.17409 1.60149,3.4226 2.28789,6.51187 1.94469,9.38151 -0.3432,2.6489 -1.48712,5.18742 -3.43179,7.39484 -0.22878,0.22074 -0.34317,0.44148 -0.68635,0.77259 -6.52035,5.40706 -11.32482,10.81633 -14.75658,16.2245 -3.43176,6.18076 -5.49082,12.47189 -6.29157,18.65154 -0.45757,6.29113 -0.68635,11.7004 -0.80074,16.00375 0.11439,2.31889 -0.68635,4.30446 -2.51663,5.96002 -1.83027,1.54409 -4.46129,2.86964 -8.12184,3.7515 -3.20298,0.7726 -6.17717,0.7726 -8.6938,0 -2.8598,-0.99223 -4.80447,-2.64779 -5.94839,-5.07705 -0.45756,-0.66223 -0.68635,-1.65556 -0.91513,-2.53853 -0.80075,-4.30445 0.91513,-8.60891 5.26203,-12.8041 -4.57568,0.88407 -8.35062,2.98001 -11.32481,6.18186 -2.05906,4.19409 -2.63102,8.05706 -1.60149,11.47745 0.11439,0.44148 0.34317,0.77259 0.45756,1.21518 1.83028,4.30335 4.4613,7.39484 7.89306,9.38151 6.40596,2.31779 13.15509,2.64779 19.78983,0.7726 0.1144,0 0.34318,0 0.45757,-0.11148 3.43176,-1.65556 6.29157,-3.64223 8.6938,-5.84965 0.11439,-0.22074 0.34318,-0.33111 0.45757,-0.55185 0.11439,-0.11037 0.22878,-0.33111 0.34318,-0.44148 1.14392,-1.21408 2.17345,-2.53853 2.97419,-3.86298 0.91514,-1.65556 1.71588,-3.42149 2.28784,-5.29779 -0.57196,1.8763 -1.3727,3.64223 -2.28784,5.29779 -1.94467,5.40817 -3.08859,10.37485 -3.66055,14.90005 0,0 0,0 0,0.11147 2.85981,-3.31112 5.834,-5.63001 8.6938,-6.84298 1.60149,7.50521 1.83142,13.46522 0.6875,17.65931 -1.60149,5.29779 -3.5473,9.27114 -5.83514,11.47855 1.02953,0.21964 2.05906,0 3.08858,-0.22074 l 0,0 c 2.9742,-0.88296 6.17718,-3.42259 9.38016,-7.83742 2.97419,-3.64223 4.3469,-8.16633 4.2325,-13.35486 -0.11553,-2.86963 -0.57196,-5.40816 -1.25945,-7.39483 -0.22879,-0.55186 -0.45643,-1.10371 -0.68635,-1.65556 -0.45757,-0.7726 -0.91514,-1.54409 -1.4871,-2.09594 0.57196,0.55185 1.02838,1.32334 1.4871,2.09594 0.34317,0.55185 0.68635,0.99333 1.14392,1.54519 3.66056,4.30335 8.00746,6.51076 12.92626,6.4015 0.2288,0 0.4576,0 0.8008,-0.11037 0.4564,-0.11148 0.8007,-0.11148 1.2583,-0.11148 0.1155,0 0.1155,0 0.2288,0 2.8598,-0.44038 5.262,-1.10371 7.2067,-2.09594 -2.8598,0.11037 -5.4908,-0.22074 -7.7787,-0.99333 -3.203,-0.88297 -5.9484,-2.6489 -8.1218,-5.07706 2.1723,2.42706 4.9188,4.19409 8.1218,5.07706 2.2879,0.77259 4.9189,1.1037 7.7787,0.99333 3.0886,-1.54519 4.9188,-3.97445 5.9484,-7.06372 -1.0296,3.09038 -2.8598,5.51853 -5.9484,7.06372 -1.9447,0.99223 -4.3469,1.65556 -7.2067,2.09594 -0.1144,0 -0.1144,0 -0.2288,0 -0.4564,0 -0.8007,0 -1.2583,0.11148 4.9188,9.38151 14.6422,14.90004 29.0544,16.66597 1.4883,0.11037 3.2042,0.33111 4.8045,0.44148 -1.6003,-0.11147 -3.3162,-0.33221 -4.8045,-0.44148 -7.5498,10.04374 -12.3543,19.86673 -14.6422,29.91046 -1.7158,5.73928 -3.0885,11.80967 -3.8881,17.99153 -0.572,0.66222 -1.2595,1.21408 -2.0602,1.8752 -0.572,0.33221 -1.0284,0.55185 -1.6004,0.77259 -1.6015,0.66333 -3.6605,1.10371 -6.0628,1.32445 -2.5166,-0.22074 -4.92,-1.32445 -6.979,-3.31112 -2.631,-0.33111 -5.6041,-0.33111 -8.92261,0 -1.71588,0.66222 -2.28785,1.76593 -1.71588,3.31112 1.94466,0.55185 3.31737,1.98667 4.11811,4.19409 0.57196,2.31889 0.34432,4.41483 -0.45642,6.51187 -0.11554,0.22074 -0.11554,0.33111 -0.22879,0.55185 l 0,0 c -1.14392,3.19965 -1.02953,6.18076 0.22879,8.71818 6.5203,-1.21407 10.0665,-4.52519 10.7517,-10.04373 0.572,3.20075 2.0602,4.85631 4.2325,5.18742 0.1156,0 0.1156,0 0.3432,0 1.8314,-3.7526 4.8045,-6.84298 8.6949,-9.16077 0.4565,-0.44148 1.0284,-0.77259 1.6004,-0.99333 0.6875,-0.33111 1.3727,-0.66223 1.9446,-0.88297 -0.5719,0.22074 -1.2583,0.55186 -1.9446,0.88297 -0.572,0.22074 -1.1439,0.55185 -1.6004,0.99333 -3.8893,2.31779 -6.8635,5.40707 -8.6949,9.16077 l 1.2595,4.5252 c 1.9446,-0.55185 4.0037,-0.77259 5.9483,-0.66222 2.4023,1.32445 4.1182,2.98001 5.4909,4.8552 0.1144,0 0.1144,0.11148 0.2287,0.11148 0.6864,1.10371 1.3716,2.20741 1.7159,3.53186 l 0.4565,0.33111 c 5.4908,-1.1037 7.551,-3.31112 5.9483,-6.51187 -0.1144,0 -0.1144,-0.22074 -0.2287,-0.33111 -0.2288,-0.33111 -0.4565,-0.66222 -0.6864,-0.99334 l -3.203,-3.09038 3.203,3.09038 c 0.2288,0.33222 0.4564,0.66333 0.6864,0.99334 0.1155,0.11037 0.1155,0.33111 0.2287,0.33111 l 0.4576,-0.33111 c 2.1723,-1.21408 4.1181,-2.42816 5.6041,-3.86297 1.9446,-1.87631 3.3173,-3.97335 4.1192,-6.29113 0.2277,-3.4215 -1.4882,-5.73928 -5.0332,-6.95336 3.5461,1.21408 5.262,3.53186 5.0332,6.95336 -0.8007,2.31888 -2.1734,4.41482 -4.1192,6.29113 l 0.3432,0.44148 c 0,0.21964 0.2287,0.55185 0.3443,0.88296 0.7996,1.54409 2.1723,2.53853 4.2313,3.19965 3.6606,-1.21408 6.064,-2.64779 7.3211,-4.41483 -0.5719,-2.42705 0.2288,-4.63446 2.2879,-6.51077 1.9446,-1.32444 4.1181,-2.09704 6.2915,-2.09704 1.3727,0 2.7455,0.7726 4.0038,2.20742 0,0 0,0 0.1144,0 1.7158,-0.33112 2.5166,-1.10371 2.1734,-2.20742 0.3432,-2.09594 0,-4.08371 -0.572,-6.07039 -0.1143,-0.22074 -0.1143,-0.44038 -0.2287,-0.55185 -0.4565,-0.99223 -0.9152,-1.98667 -1.4871,-2.98001 -0.2288,-0.21964 -0.4576,-0.55185 -0.6864,-0.77149 0,-0.11147 -0.1155,-0.33222 -0.2288,-0.44148 -0.1155,-0.11037 -0.1155,-0.11037 -0.1155,-0.11037 -3.203,-2.6489 -6.8635,-4.52631 -10.6385,-5.63001 3.775,1.1037 7.4355,2.98001 10.6385,5.63001 0,0 0,0 0.1155,0.11037 l 0,0 c 0.1144,0.11037 0.2288,0.22074 0.2288,0.44148 0.2277,0 0.3432,0.21964 0.572,0.33111 0.7996,0.33111 1.3715,0.7726 2.1723,1.10371 0.3432,0.22074 0.6875,0.33111 1.0295,0.44038 2.631,0.99333 7.32,0.66333 14.0702,-1.10371 -5.834,-1.54409 -9.1513,-3.7515 -10.1809,-6.62224 -1.3715,-2.97891 -1.9435,-6.18076 -1.7158,-9.60115 0,-0.33221 0,-0.77259 0,-1.43592 -0.1144,-0.55185 -0.2277,-1.32335 -0.3432,-2.09594 -0.9152,-1.10371 -2.8598,-2.31889 -5.9484,-3.53186 3.0886,1.21407 5.0332,2.42815 5.9484,3.53186 0.6875,0.55185 1.3727,1.10371 2.059,1.76593 2.4034,2.6489 4.5757,6.4015 6.1772,11.36818 3.4318,-4.96668 4.5757,-10.153 3.3174,-15.4519 0,-0.11037 0,-0.11037 -0.1156,-0.21963 -0.1143,-0.55186 -0.2287,-1.10371 -0.4564,-1.65556 -0.4575,-1.98778 -1.4882,-3.64334 -2.9753,-5.2989 -1.4871,-1.65556 -3.6606,-2.97891 -6.176,-4.19409 2.5154,1.21518 4.69,2.53853 6.176,4.19409 1.4859,1.65556 2.5166,3.31112 2.9753,5.2989 0.2277,0.55185 0.3432,1.1037 0.4564,1.65556 0.1156,0.11037 0.1156,0.11037 0.1156,0.21963 3.8882,1.65556 7.6631,2.09705 11.4392,1.21519 4.2314,-1.76704 7.3199,-3.75261 9.0358,-6.07039 -2.631,0.44038 -5.0321,0.44038 -7.0923,0.44038 -0.1144,-0.21964 -0.1144,-0.21964 -0.1144,0 -3.5461,-0.44038 -6.5203,-1.54409 -9.1513,-3.19965 -0.1144,-0.11147 -0.3432,-0.33111 -0.4576,-0.44148 -0.1144,-0.11037 -0.1144,-0.11037 -0.2277,-0.11037 l 0,0 c -0.9162,-0.7726 -1.6014,-1.54519 -2.1734,-2.31889 -1.9447,-2.31779 -2.8598,-4.96668 -2.7454,-8.16633 l 0.2288,-0.44148 c 5.7196,1.43482 10.6384,5.40816 14.8709,11.92003 2.5167,-5.40706 -1.4871,-12.69263 -12.2399,-21.96266 4.348,0.77259 7.6643,2.20741 9.7233,4.5252 1.8314,-1.76594 2.0602,-3.7515 1.0295,-5.95892 -2.059,-4.74704 -5.6052,-8.05816 -10.4096,-10.04484 5.0321,1.98668 9.9509,3.31113 14.8709,4.19409 1.3716,0.33222 2.7443,0.55185 4.2314,0.66333 7.8931,0.11037 12.8119,-2.31889 14.4145,-7.1741 -2.1734,0.66223 -4.2325,1.21408 -5.9483,1.65556 -0.1144,0 -0.2288,0 -0.3432,0 -0.1156,0 -0.1156,0 -0.2288,0 -4.4613,0.7726 -7.8931,0.55186 -10.5241,-0.66332 -0.2288,-0.11037 -0.3432,-0.33112 -0.5719,-0.33112 -4.8045,-2.31778 -8.0075,-5.6289 -9.6078,-10.04373 3.203,-2.31889 6.748,-2.87074 10.5229,-1.65556 4.6912,2.09594 8.0074,4.85521 9.7233,8.38817 2.1735,-5.40706 0.3444,-10.1541 -5.3753,-14.23671 -0.3443,-0.33222 -0.6875,-0.44149 -1.0295,-0.66333 -6.5203,-2.86964 -13.4983,-3.19965 -20.8193,-0.7726 7.6642,-3.09038 13.3838,-7.06262 17.1588,-11.80856 1.3727,-2.87074 1.0295,-5.2989 -0.9152,-7.39483 -4.2325,5.07705 -10.524,8.16632 -18.7603,9.60225 -5.262,0 -9.4945,-0.88407 -12.9263,-2.87075 6.8635,-1.65556 10.5241,-5.6289 10.9828,-11.58892 -0.3443,0.22074 -0.4576,0.44148 -0.6875,0.7726 -0.2288,0.22074 -0.4564,0.33111 -0.8007,0.66222 -3.203,2.75927 -6.978,4.19519 -11.4392,4.19519 -0.1144,0 -0.1144,0 -0.2277,0 -0.3443,0 -0.5719,0 -0.8007,0 -1.0296,-0.11147 -2.1735,-0.22074 -3.203,-0.44148 -5.492,-2.86964 -8.5794,-6.73262 -9.3802,-11.80967 3.3163,3.86298 7.7787,5.96002 13.0396,6.18187 3.2041,-0.33222 5.492,-1.32445 6.7491,-2.98001 0.2288,-0.33112 0.4576,-0.66333 0.572,-1.10371 -2.0591,0.22074 -4.0037,0 -5.834,-0.55185 -7.3211,-2.20742 -13.2706,-10.04484 -18.1884,-23.28933 0,0 0,-0.21963 0,-0.33111 0,0 0,0 0,0.11148 0,0.11037 0,0.11037 0.1144,0.21963 4.0038,6.40261 9.1514,9.27114 14.9865,8.16744 -2.7454,-2.98001 -5.0332,-6.84299 -6.7491,-11.47856 -1.8303,-4.63446 -2.9742,-10.04373 -3.5461,-16.22339 -0.2288,-1.8763 -0.3432,-3.86297 -0.4576,-5.96001 l 0,-4.08372 c 0.6875,0.66333 1.3727,1.32445 2.1734,2.09704 0.9152,0.7726 1.8303,1.65556 2.7443,2.42816 8.5794,6.84188 19.219,9.93336 32.0298,9.38151 0,0 0.2288,0 0.3443,0 0.2277,0 0.3432,0 0.572,0 0.1144,0 0.2276,0 0.2276,0 0.2288,0 0.4576,0 0.572,0 15.2187,0.21743 28.717,-4.52851 40.385,-14.46187 13.3827,-11.14744 20.133,-28.03306 20.2462,-50.32904 0.4576,-3.86298 1.9447,-6.07039 4.5757,-6.62225 2.0602,-0.33111 4.6912,0.33112 8.123,2.31779 1.3727,-5.29779 -1.6015,-8.38817 -8.8082,-9.0504 l -0.1144,0 c -0.1155,-0.11037 -0.3443,-0.11037 -0.4576,-0.11037 -4.5756,0.7726 -7.893,2.86964 -9.9521,6.29113 -0.3432,0.55185 -0.6863,1.10371 -0.9151,1.76593 0.2288,-0.66222 0.5719,-1.21408 0.9151,-1.76593 2.0591,-3.42259 5.3765,-5.51853 9.9521,-6.29113 0.1144,-0.11037 0.3432,-0.11037 0.4576,-0.11037 10.8673,-11.58892 15.0986,-19.75635 12.5831,-24.39303 -1.7158,-3.64223 -4.348,-6.18076 -8.1229,-7.39483 5.1476,5.63 3.0885,10.59669 -6.1761,14.78967 -8.465,2.6489 -13.727,9.27114 -15.6717,19.53561 -2.2878,-8.49854 -5.6052,-15.01152 -9.9521,-19.31487 -5.3764,-5.07816 -10.6385,-12.91337 -15.9005,-23.17785 -2.9742,-6.95335 -4.3469,-13.24448 -4.2314,-19.094127 0,-1.43482 0.2277,-2.759268 0.4565,-4.083716 l 0,-0.110371 c 0.8007,-3.752604 2.5166,-6.29113 5.1476,-7.94669 3.5473,-2.207414 7.7787,-2.207414 12.4687,-0.110371 1.8303,1.986672 1.7159,3.752604 -0.3431,5.297793 4.8033,-0.441482 6.748,-2.317784 5.604,-5.739276 -0.5719,-0.882966 -1.2583,-1.65556 -1.9446,-2.428155 -4.0038,-3.862975 -9.951,-5.187423 -17.8452,-3.642233 -0.1144,0.11037 -0.2288,0.11037 -0.4576,0.11037 -0.2276,0.110371 -0.5719,0.331112 -0.7996,0.441483 -4.92,1.986673 -7.7798,6.070389 -8.9237,12.140777 l 0,0 c -3.5462,-13.023743 -4.8033,-27.040821 -3.6594,-42.161607 0.6863,-8.057061 4.1181,-16.224493 10.5229,-24.281554 8.123,-7.5052079 14.7566,-11.25781171 20.363,-11.03707031 5.4908,0.22074141 10.6384,1.87630191 15.6705,5.07705221 4.92,3.2007503 6.9791,8.9400271 6.4071,16.9970881 -0.6875,5.187423 -4.0037,9.160768 -9.8388,12.030406 -0.3432,0.110371 -0.4565,0.331112 -0.6864,0.441483 -1.0295,0.441483 -2.2878,0.993336 -3.6605,1.434819 -0.572,0.110371 -1.1439,0.331112 -1.7159,0.441483 -2.631,0.772595 -5.3764,-0.220742 -8.0075,-2.538526 -1.7158,-2.097044 -2.059,-5.187423 -1.2583,-9.271139 -5.1476,5.628905 -5.4908,10.926699 -0.9151,15.78301 3.6594,3.973345 8.4639,4.635569 14.299,2.317785 1.2583,-0.551854 2.631,-1.214078 4.1181,-2.097044 -1.4871,0.882966 -2.8598,1.54519 -4.1181,2.097044 -6.4071,8.277802 -3.5473,13.244484 8.6938,14.458561 1.2583,0.110371 2.631,0.220742 4.1181,0.220742 -9.2657,-1.103707 -11.5536,-4.083716 -6.8635,-8.719286 0.6875,-0.772595 1.4882,-1.545189 2.6322,-2.317784 0.7996,-0.662225 1.4871,-1.324449 2.4022,-1.876302 14.5278,-9.271139 19.9042,-21.301545 16.2437,-35.9808484 -3.3174,-9.16076811 -9.4946,-16.3348636 -18.7603,-21.1911746 -1.4871,-0.772595 -3.0886,-1.434819 -4.8045,-2.317785 -3.3162,0 -6.406,0.110371 -9.379,0.441483 -2.7454,0.551854 -4.8045,1.434819 -6.4071,2.538526 1.6015,-1.103707 3.6605,-1.986672 6.4071,-2.538526 2.9742,-0.331112 6.0628,-0.441483 9.379,-0.441483 1.9447,0.110371 4.0037,0.220742 6.0639,0.331113 4.8033,0.220741 8.9226,-1.324449 12.2388,-4.525199 5.6052,-5.960018 9.037,-12.58226 10.1809,-19.977097 0.2288,-4.965578 -0.9151,-9.932259 -3.5461,-14.898941 z"
       inkscape:connector-curvature="0" />
    <path
       style="fill:#800080;fill-opacity:1;stroke:#000000;stroke-width:2.4268744;stroke-miterlimit:4;stroke-opacity:1;stroke-dasharray:none"
       id="path3709"
       d="m 995.80233,-53.323558 c -5.49082,2.428155 -13.95583,3.973345 -25.39504,4.856311 -0.34318,0.11037 -0.68635,0.11037 -0.91514,0.220741 l -0.11439,0 c -17.84517,2.317785 -31.22904,5.408164 -40.03724,9.49188 -2.28784,0.993337 -4.2325,1.986673 -5.83399,3.09038 0.22878,2.980009 1.48709,4.74594 3.88933,5.297794 0,0.11037 0,0.11037 0,0.11037 l 0,0 4.11811,-2.317784 0,-1.876302 0,1.876302 -4.11811,2.317784 0,0 c -0.45757,2.759268 -0.45757,5.187423 -0.11439,7.284466 3.54615,6.732613 8.92258,11.588924 16.12928,14.4585622 0,0 0,0 0.11439,0 0,0 0,0 0.1144,0.1103707 3.20298,-0.1103707 6.29156,-0.1103707 9.03697,0.1103707 3.77494,0.2207414 7.20671,0.6622242 10.1809,1.2140777 0,0 0,0 0.11439,0 2.9742,0.5518535 5.49082,1.3244484 7.77866,2.3177847 4.00373,1.7659312 7.3211,3.7526038 9.83773,5.9600178 1.25831,1.103707 2.28784,2.3177847 3.20297,3.5318624 2.74541,4.3044573 2.85981,7.8363198 0.1144,10.5955868 -0.22879,0.110371 -0.34318,0.220742 -0.45757,0.331112 -1.60149,1.214078 -4.23251,2.097044 -8.23623,2.097044 -7.20671,0 -13.15509,-0.882966 -17.61639,-2.538526 -0.57196,-0.220742 -1.25831,-0.331112 -1.94466,-0.551854 -3.08859,-0.882965 -6.86353,-1.214077 -11.09604,-1.103707 -1.25831,0.110371 -2.74541,0.220742 -4.11811,0.331112 -2.05906,2.207414 -1.94467,4.414828 0.11439,6.622242 -2.40223,4.304458 -7.09231,5.518535 -13.95584,3.421492 2.51663,4.194087 5.60522,6.180759 9.49455,5.960018 3.43176,-0.441483 7.09231,-1.655561 10.52407,-4.083716 0.22879,-0.110371 0.45757,-0.220742 0.68635,-0.331112 -0.22878,0.11037 -0.45756,0.220741 -0.45756,0.551853 -3.54616,3.421492 -5.834,6.622242 -6.86353,9.38151 0,0 0,0 0,0.110371 -0.11439,0 -0.11439,0 -0.11439,0.11037 -0.45757,1.434819 -0.68635,2.759268 -0.34318,3.973345 0.34318,-1.324448 1.02953,-2.538526 2.05906,-3.642233 2.97419,-3.20075 8.35062,-5.297793 16.12929,-6.070388 -0.34318,2.980009 -2.9742,6.070388 -7.66428,9.271139 9.15137,-1.214078 15.32855,-4.304458 18.64592,-9.050398 0.80074,4.74594 3.43176,7.174096 8.00744,7.505208 -1.48709,-3.531863 -1.02953,-6.511871 1.25832,-8.719286 3.31737,6.070389 8.92258,9.822993 17.04328,10.9267 -4.11812,-3.200751 -6.06279,-7.394837 -5.71961,-12.692631 3.5473,3.311121 6.52035,4.74594 9.03698,4.525199 -0.45757,-4.525199 1.02953,-8.608915 4.34688,-12.251148 1.1439,4.194087 5.9484,6.622242 14.4146,7.063725 -6.2916,-5.297794 -9.037,-10.705958 -8.695,-16.224493 0.4576,-5.6289055 1.3727,-9.9333628 2.631,-13.0237424 3.4318,0.4414828 5.7196,3.0903796 7.0924,8.2778025 0.9151,-9.0503974 -2.7443,-15.0104152 -11.0961,-17.9904241 2.4034,0.551853 4.8045,0.993336 7.0923,0.993336 1.4871,0 2.8598,0 4.3469,-0.220741 4.8045,-0.662224 7.4355,-4.63557 7.4355,-11.920036 0,-1.434819 0,-2.759267 -0.3432,-3.862974 0,-0.110371 0,-0.110371 0,-0.110371 -0.8007,-3.311121 -2.8598,-5.518535 -6.0627,-6.732613 -0.1144,-0.11037 -0.3432,-0.11037 -0.4576,-0.11037 0,-0.110371 -0.2277,-0.110371 -0.2277,-0.110371 -0.6874,-0.220741 -1.2594,-0.331112 -2.0602,-0.441483 -0.5719,-0.110371 -1.2583,-0.110371 -1.9435,-0.220741 -4.0037,0.11037 -6.7491,1.103707 -8.123,3.311121 1.3727,-2.207414 4.1193,-3.200751 8.123,-3.311121 0.6864,0.11037 1.3716,0.11037 1.9435,0.220741 0.8008,0.110371 1.3728,0.220742 2.0602,0.441483 0,0 0.2277,0 0.2277,0.110371 0.1155,0 0.3443,0 0.4576,0.11037 3.2029,1.214078 5.262,3.421492 6.0627,6.732613 0,0 0,0 0,0.110371 0.3432,1.103707 0.3432,2.428155 0.3432,3.862974 0,7.284466 -2.631,11.257812 -7.4355,11.920036 -1.4871,0.220741 -2.8598,0.220741 -4.3469,0.220741 -2.2878,0 -4.69,-0.441483 -7.0923,-0.993336 8.3518,2.9800089 12.0112,8.9400267 11.0961,17.9904241 -1.3728,-5.1874229 -3.6606,-7.8363197 -7.0924,-8.2778025 -1.2583,3.0903796 -2.1723,7.3948369 -2.631,13.0237424 -0.3432,5.518535 2.4034,10.926699 8.695,16.224493 -8.4651,-0.441483 -13.2707,-2.869638 -14.4146,-7.063725 -3.31621,3.642233 -4.80445,7.725949 -4.34688,12.251148 -2.51663,0.220741 -5.49082,-1.214078 -9.03698,-4.525199 -0.34318,5.297794 1.60149,9.49188 5.71961,12.692631 -8.12184,-1.103707 -13.72706,-4.856311 -17.04328,-10.9267 -2.28785,2.207415 -2.74541,5.187423 -1.25832,8.719286 -4.57568,-0.331112 -7.2067,-2.759268 -8.00744,-7.505208 -3.31737,4.74594 -9.49455,7.83632 -18.64592,9.050398 4.69008,-3.200751 7.3211,-6.29113 7.66428,-9.271139 -7.77867,0.772595 -13.1551,2.869638 -16.12929,6.070388 2.74541,1.434819 4.23251,2.980009 4.46129,4.525199 0.22879,1.876302 -0.68635,2.980009 -2.63102,3.421492 -1.60149,-0.551854 -3.20298,-0.993337 -4.80447,-1.324449 -5.83399,-1.324448 -11.5536,-1.434819 -17.2732,-0.551853 -0.22879,0 -0.34318,0 -0.45757,0.11037 -0.45757,0 -0.91514,0 -1.25831,0.110371 -5.60522,-2.207414 -8.35063,-5.960018 -8.6938,-11.257811 -4.80447,2.097043 -7.09231,5.187423 -6.40596,9.381509 3.08859,6.622242 8.92258,9.933363 17.73077,10.264475 0.1144,0 0.34318,0 0.57196,0 -0.22878,0 -0.45756,0 -0.57196,0 -11.78238,1.876302 -19.10348,6.842984 -21.96328,14.900045 -3.31737,5.297794 -8.12184,4.74594 -14.29901,-1.655561 0.34317,0.882966 0.91514,1.876302 1.3727,2.648897 1.60149,2.869638 3.43177,5.408164 5.37643,7.725949 0,0 0,0 0.11439,0 2.63102,2.980009 5.49083,5.408165 8.8082,7.505208 -0.1144,-4.083716 1.25831,-7.284466 4.11811,-9.712622 0.57196,-0.551853 1.14392,-0.993336 1.94467,-1.434819 -0.80075,0.441483 -1.37271,0.882966 -1.94467,1.434819 -2.8598,2.428156 -4.23251,5.628906 -4.11811,9.712622 -0.34318,4.304457 -2.28785,7.505207 -5.94839,9.712621 -3.66055,2.317785 -6.74914,2.097044 -9.38016,-0.331112 -0.34317,-0.331112 -0.57196,-0.662224 -0.91513,-0.882965 -0.80075,-1.103707 -1.02953,-2.317785 -0.34318,-3.752604 l -3.20298,-1.103707 c -0.80074,0.882965 -1.3727,1.986672 -1.83027,3.311121 -0.34318,2.097043 -0.34318,3.973345 0,5.518535 0.57196,2.428155 1.94467,4.194086 4.00372,5.628906 0.80075,0.441486 1.71588,0.882966 2.85981,1.324446 1.3727,0.33111 2.74541,0.7726 4.00372,0.99334 0.22878,0.11037 0.57196,0.11037 0.80074,0.21964 0.57196,0.11147 1.25832,0.11147 1.94467,0.22074 1.4871,0.11147 2.97419,0.11147 4.46129,-0.11037 1.02953,-0.22074 2.17345,-0.44149 3.31737,-0.7726 0.22879,-0.11037 0.45757,-0.22074 0.68635,-0.22074 0.57197,-0.33111 1.02953,-0.66222 1.71589,-0.88297 1.3727,-0.77259 2.8598,-1.765926 4.11811,-2.980004 1.83028,-1.765931 3.31737,-3.862975 4.69008,-6.511871 1.83027,-3.752604 4.11811,-6.18076 6.97792,-7.284467 -2.85981,1.103707 -5.14765,3.531863 -6.97792,7.284467 -1.37271,2.648896 -2.8598,4.74594 -4.69008,6.511871 -1.25831,1.215181 -2.74541,2.207414 -4.11811,2.980004 -0.68636,0.22075 -1.14392,0.55186 -1.71589,0.88297 -0.22878,0 -0.45756,0.11147 -0.68635,0.22074 l -0.22878,0.33111 c -1.02953,0.44149 -2.05906,0.7726 -2.9742,0.99334 -0.22878,0.11037 -0.45757,0.11037 -0.45757,0.11037 -1.48709,0.11148 -2.8598,0 -4.11811,-0.55185 -0.68635,-0.11037 -1.37271,-0.11037 -1.94467,-0.22074 -0.22878,-0.11037 -0.57196,-0.11037 -0.80074,-0.21964 0.11439,0.11037 0.11439,0.33111 0.22878,0.44038 0,0.22074 0.22879,0.55185 0.34318,0.77259 0,0.11037 0.11439,0.33111 0.22878,0.44149 0,0.11037 0,0.21963 0.1144,0.33111 1.94466,3.19964 4.69007,5.18742 8.12183,5.95891 2.17345,-1.54408 4.3469,-2.9789 6.86353,-4.19409 2.05906,-1.1037 4.3469,-1.8763 6.74913,-2.64779 7.09231,-1.8763 11.55361,-5.739275 13.1551,-11.700396 -1.60149,5.960017 -6.06279,9.822996 -13.1551,11.700396 -2.40223,0.77149 -4.69007,1.54409 -6.74913,2.64779 -2.51663,1.21519 -4.69008,2.6489 -6.86353,4.19409 -2.51662,1.98778 -4.80446,4.30446 -6.97791,6.95446 -0.80075,0.99223 -1.4871,1.98667 -2.17345,2.9789 -1.37271,3.20075 -0.80075,5.85076 1.60149,7.61558 3.20297,-3.64223 6.97791,-6.29113 11.43921,-7.83632 2.40223,-0.88407 5.03325,-1.54519 7.77866,-1.8763 l 0.11439,0 c 5.14765,0.11037 9.60894,-0.88296 13.26948,-2.75927 l 8.8082,-5.96001 c -0.68636,1.76703 -1.37271,3.31112 -1.71589,4.85631 -0.11439,0.11037 -0.11439,0.11037 -0.11439,0.11037 -1.60149,5.40816 -1.3727,9.71262 0.57196,13.13411 3.66055,5.40706 8.57941,8.60892 14.64219,9.93336 0,0 0,0 -0.11439,-0.11147 -0.91514,-0.88297 -1.83027,-1.8752 -2.51663,-2.75927 -0.11439,-0.11037 -0.34317,-0.33111 -0.34317,-0.44038 -1.94467,-2.53852 -3.20298,-5.40816 -3.77494,-8.38927 0.91513,-6.18076 5.14764,-10.48522 12.46874,-13.13301 0.34317,-0.11148 0.68635,-0.22075 0.91513,-0.33112 -0.22878,0.11037 -0.57196,0.21964 -0.91513,0.33112 -0.91514,0.77259 -1.71588,1.54408 -2.51663,2.42815 -4.23251,4.5252 -5.60521,9.0493 -4.11811,13.5756 0.11439,0.22074 0.11439,0.33111 0.22878,0.66222 0.34318,0.88297 0.80074,1.65556 1.3727,2.42816 1.71589,2.09704 4.11812,2.86964 7.43549,2.42815 -4.3469,-5.18742 -4.3469,-10.04483 0.22879,-14.78967 0.80074,-0.88297 1.60148,-1.76593 2.51662,-2.42816 2.28784,-1.76593 4.91886,-2.9789 8.00745,-3.7515 0.68635,3.53187 0.11439,7.06262 -1.83028,10.37375 -0.91513,1.43592 -1.94466,2.87074 -3.31737,4.19519 1.94467,-0.55186 3.88934,-1.21519 5.71961,-1.98778 7.43549,-3.19965 13.15509,-8.16633 17.3876,-14.90005 0.11439,-0.21963 0.22878,-0.33111 0.22878,-0.55185 -0.11439,0.11148 -0.34317,0.11148 -0.34317,0.22074 -0.1144,0 -0.1144,0 -0.1144,0 -3.31737,0.99334 -6.52035,1.43482 -9.72332,0.99334 l -0.1144,0 c 0,0 0,0 0.1144,0 l 0,0 c 2.05905,-1.54519 3.77493,-3.20075 5.14764,-4.96668 0.22878,-0.22074 0.34318,-0.44149 0.57196,-0.66333 0.68635,-0.99223 1.25831,-1.98667 1.71588,-2.97891 0.91514,-1.8763 1.4871,-3.86297 1.71588,-5.960013 -0.22878,2.097043 -0.80074,4.083713 -1.71588,5.960013 -0.45757,0.99224 -1.02953,1.98668 -1.71588,2.97891 -0.22878,0.22074 -0.34318,0.44148 -0.57196,0.66333 -1.37271,1.76593 -3.08859,3.42149 -5.14764,4.96668 l 0,0 c -0.1144,0 -0.1144,0 -0.1144,0 l 0.1144,0 c 3.20297,0.44038 6.40595,0 9.72332,-0.99334 0,0 0,0 0.1144,0 0,-0.11037 0.22878,-0.11037 0.34317,-0.22074 2.05906,-0.77149 4.11812,-1.76593 6.17603,-3.09038 -0.22764,-1.98667 -0.34317,-3.86297 -0.11439,-5.84965 0.34318,-4.856306 2.28784,-9.050393 5.94839,-12.692626 -3.66055,3.642233 -5.60521,7.83632 -5.94839,12.692626 -0.22878,1.98668 -0.11439,3.86298 0.11439,5.84965 1.60149,4.63557 4.00373,8.16743 7.20785,10.70596 3.08749,2.53853 6.74799,3.97334 11.32369,4.41483 4.0037,0.22074 7.551,-0.44149 10.5241,-1.98668 0.1143,-0.11147 0.3431,-0.22074 0.5719,-0.33111 l 0.1144,0 c 0,-0.11147 0.2288,-0.22074 0.3443,-0.33221 0.2277,-0.11037 0.6864,-0.33112 0.7996,-0.44038 -0.3431,-0.11148 -0.7996,-0.22074 -1.2583,-0.33111 -5.262,-0.88407 -9.6089,-3.31113 -13.4983,-7.50632 -2.1734,-2.75926 -1.9446,-5.51853 0.4565,-8.38817 l 0,0 0,0 c 1.3727,-1.54519 2.4034,-3.200749 3.4317,-4.96668 1.4883,-2.869638 2.5167,-5.960018 2.9754,-9.271139 -0.4576,3.311121 -1.4871,6.401501 -2.9754,9.271139 -1.0283,1.765931 -2.059,3.42149 -3.4317,4.96668 5.6052,-1.21408 9.7233,-3.42149 12.5831,-6.51187 0.2288,-0.219638 0.4576,-0.551853 0.6875,-0.771491 0,0 0,0 0.1144,-0.111475 0.1155,-0.220741 0.3432,-0.440379 0.4576,-0.662224 0,0 0,0 0.1144,0 l -0.1144,0 c 0.1144,-0.111474 0.1144,-0.111474 0.2287,-0.220741 1.9436,-2.648897 3.0875,-5.408164 3.5462,-8.498544 0.1144,-0.441483 0.1144,-0.772595 0.1144,-1.214078 0,-0.220741 0,-0.331112 0,-0.551853 l 0,0 c 0,-0.110371 0,-0.331112 0,-0.441483 0,-0.882966 0,-1.765931 -0.1144,-2.648897 -0.1144,0 -0.1144,0 0,0 -0.2288,-1.324448 -0.4576,-2.648897 -1.0295,-3.862974 0.5719,1.214077 0.8007,2.538526 1.0295,3.862974 -0.1144,0 -0.1144,0 0,0 0.1144,0.882966 0.1144,1.765931 0.1144,2.648897 0,0.110371 0,0.331112 0,0.441483 l 0,0 c 0,0.220741 0,0.331112 0,0.551853 0,0.441483 0,0.772595 -0.1144,1.214078 -0.4576,3.09038 -1.6015,5.849647 -3.5462,8.498544 -0.1155,0.110371 -0.1155,0.110371 -0.1155,0.220741 -0.1144,0 -0.1144,0 -0.1144,0 -0.1155,0.220742 -0.3432,0.440379 -0.4576,0.662224 -0.1143,0.111475 -0.1143,0.111475 -0.1143,0.111475 0.1143,0.110371 0.2287,0.110371 0.3431,0.110371 0.3432,0.11037 0.6864,0.331112 1.0296,0.331112 1.9435,0.663328 4.1181,1.103707 6.2915,1.324448 4.3469,0.331112 8.8071,-0.220741 13.6115,-1.876302 4.9189,-1.214078 8.5795,-3.642233 10.6385,-7.174095 -3.4318,1.765931 -7.5499,2.428155 -12.1256,1.986672 -4.0037,-0.441483 -6.9779,-2.207414 -9.0369,-5.518535 l 0.2288,-0.11037 0.1155,0 -0.1121,0 c 0,0 0,0 -0.2288,0.11037 l 4.348,-0.882965 -3.776,0.772595 -0.2277,-0.772595 c 6.1761,-9.271139 10.7517,-8.940027 13.8415,0.772595 2.9742,-5.518535 2.4022,-11.147441 -1.8303,-16.886718 6.8635,4.304458 14.5266,5.960018 23.2216,4.966682 5.9484,-1.765931 9.8377,-4.635569 11.7824,-8.277803 -2.5167,1.765932 -6.5204,2.428156 -12.1256,2.097044 -6.8635,-0.662224 -12.9274,-2.759268 -17.8463,-6.511872 -0.2288,0 -0.3432,-0.11037 -0.3432,-0.220741 -3.6605,-2.759267 -6.7491,-6.180759 -9.3801,-10.374846 15.0997,-6.842983 19.2178,-4.635569 12.4687,6.511872 0,0.11037 0,0.11037 -0.1155,0.220741 7.0923,-3.642233 10.7528,-7.174096 10.7528,-10.595587 0,-3.421492 -3.8893,-8.277803 -11.668,-14.348191 -4.2325,-1.103707 -6.6347,-3.421492 -7.4354,-7.063725 0.8007,3.642233 3.2029,5.960018 7.4354,7.063725 0.6875,0.11037 1.2595,0.331112 1.9447,0.331112 6.0628,0 10.4097,-2.207414 13.0407,-6.622242 -2.2878,1.103707 -4.348,1.986672 -6.1772,2.317785 -0.1144,0 -0.1144,0 -0.1144,0.11037 0,0 -0.1155,0 -0.2287,0 -0.2288,0.110371 -0.4576,0.110371 -0.4576,0.220742 -1.9447,0.220741 -3.6606,0.11037 -5.0321,-0.331112 0,-0.110371 -0.1156,-0.110371 -0.2288,-0.110371 -4.1193,-2.207414 -6.8635,-5.518535 -7.7787,-10.264475 3.0875,-3.973345 7.32,-1.876302 12.4676,6.4015 3.3174,-7.063724 1.4871,-12.471889 -5.604,-16.5556046 -4.1193,-2.3177847 -7.3211,-4.6355694 -9.7234,-7.06372481 l -0.2288,-0.1103707 c -0.2287,-0.2207414 -0.3431,-0.4414828 -0.5719,-0.66222419 -0.6875,-0.7725949 -1.2595,-1.5451898 -1.8314,-2.4281554 0.5719,0.8829656 1.1439,1.6555605 1.8314,2.4281554 0.2288,0.22074139 0.3432,0.44148279 0.5719,0.66222419 l 0.2288,0.1103707 c 1.9435,1.87630191 4.2314,3.09037961 6.8636,3.53186241 0.7996,0.2207414 1.7158,0.3311121 2.5154,0.2207414 2.6322,0 4.8045,-1.103707 6.6359,-3.09037961 2.2879,-2.75926749 2.8598,-5.51853499 1.6004,-8.49854389 -1.4871,3.4214917 -4.0038,5.1874229 -7.32,5.2977936 -2.6321,0.1103707 -4.5757,-0.6622242 -6.1772,-2.3177847 -0.4575,-0.6622242 -0.9151,-1.3244484 -1.2583,-1.9866726 -1.7159,-3.0903792 -3.0886,-7.5052072 -4.348,-13.4652252 -0.6864,-3.531863 -3.0875,-6.732613 -7.0912,-9.712622 6.176,-0.772595 9.4946,-2.759267 9.951,-6.070388 -2.9742,1.434819 -5.9473,1.986672 -9.0358,1.324448 -2.5167,-4.635569 -6.5204,-8.277802 -12.1268,-10.705958 -3.0874,-0.993336 -6.4059,-1.214078 -9.9509,-0.662224 -0.572,0.110371 -1.2595,0.331112 -1.8314,0.331112 0.5719,0 1.2594,-0.220741 1.8314,-0.331112 37.4365,0.334534 -1.9801,-11.644738 -16.70127,-6.840776 z m 16.47247,26.047485 c -1.8314,0.882966 -3.5473,1.214078 -4.8045,1.103707 1.2583,0.110371 2.9742,-0.220741 4.8045,-1.103707 0.2288,-0.110371 0.3432,-0.220741 0.4564,-0.220741 1.7159,-0.882966 3.4318,-2.097044 5.1477,-3.752604 -1.7159,1.65556 -3.4318,2.869638 -5.1477,3.752604 1.7159,1.103707 3.0886,2.317784 4.4613,4.083716 -0.4576,2.538526 -1.3727,4.194086 -3.0886,5.408164 1.7159,-1.214078 2.631,-2.869638 3.0886,-5.408164 -1.3727,-1.765932 -2.7454,-2.980009 -4.4613,-4.083716 -0.1132,0 -0.2276,0.11037 -0.4564,0.220741 z m -41.18116,-9.712621 c 1.71588,0 3.20298,0.220741 4.80447,0.772594 0.22878,0.110371 0.57196,0.331113 0.91514,0.441483 4.11811,2.428156 7.66427,5.187423 10.63846,8.277803 l 4.46129,-1.655561 -3.36705,0.599788 -10.13121,2.15948 c -0.45757,0 -0.80075,0 -1.14393,0.11037 -1.14392,0.110371 -2.17345,0.110371 -3.20297,0 -0.57196,-0.11037 -1.25832,-0.11037 -1.83028,-0.11037 -2.28784,-0.993337 -3.54615,-2.538526 -3.77494,-4.74594 -0.34317,-2.097044 0.57196,-4.083716 2.63102,-5.849647 -0.34318,0 -0.91514,0 -1.3727,0 -1.02953,0.11037 -2.17345,0.220741 -3.31738,0.551853 0,-2.207414 1.25832,-3.973345 4.00373,-5.187423 -2.74541,1.214078 -4.00373,2.980009 -4.00373,5.187423 1.14393,-0.331112 2.28785,-0.441483 3.31738,-0.551853 0.45756,0 1.02952,0 1.3727,0 z m 23.90795,46.3556936 c -0.68635,-2.6488968 -1.71588,-5.2977936 -3.20298,-8.0570611 1.4871,2.7592675 2.51663,5.4081643 3.20298,8.0570611 0.57196,4.1940864 -2.05906,8.0570614 -7.89191,11.3681824 5.83285,-3.311121 8.46387,-7.174096 7.89191,-11.3681824 z m -9.15137,-16.2244929 c -2.97419,-2.9800089 -6.52035,-5.0770527 -10.52407,-6.6222417 -3.43176,-1.103707 -6.86353,-1.324449 -10.52407,-0.772595 3.66054,-0.551854 7.09231,-0.331112 10.52407,0.772595 4.00372,1.545189 7.54988,3.6422328 10.52407,6.6222417 z"
       inkscape:connector-curvature="0" />
    <path
       style="fill:#800080;fill-opacity:1;stroke:#000000;stroke-width:2.4268744;stroke-miterlimit:4;stroke-opacity:1;stroke-dasharray:none"
       id="path3713"
       d="m 977.27081,-26.282737 c 0.34318,-0.11037 0.68636,-0.11037 1.14393,-0.11037 l 8.48986,-1.103707 c -2.9742,-3.09038 -5.97324,-5.849647 -10.09135,-8.277803 -9.37034,-6.025191 -14.22641,10.996068 0.45756,9.49188 z"
       inkscape:connector-curvature="0" />
    <path
       id="path3715"
       style="fill:#800080;fill-opacity:1;stroke:#000000;stroke-width:2.4268744;stroke-miterlimit:4;stroke-opacity:1;stroke-dasharray:none"
       d="m 951.64698,-0.4559927 1.02953,-7.8363197 c -2.74541,-0.2207414 -5.83399,-0.2207414 -9.03697,-0.1103707 -0.1144,-0.1103707 -0.1144,-0.1103707 -0.1144,-0.1103707 -0.11439,0 -0.11439,0 -0.11439,0 l 0,0.1103707 0,0.1103707 3.88933,8.2778025 1.60149,2.3177847 0,0 2.74541,-2.7592675 z"
       inkscape:connector-curvature="0" />
    <path
       id="path3717"
       style="fill:#800080;fill-opacity:1;stroke:#000000;stroke-width:2.4268744;stroke-miterlimit:4;stroke-opacity:1;stroke-dasharray:none"
       d="m 948.76234,3.9588353 3.79978,6.2911297 c 7.09231,-0.3311119 14.18462,-0.220741 21.50572,0.441483 4.3469,0.331112 7.66427,1.876302 9.83772,4.635569 2.74541,-2.759267 2.63101,-6.2911295 -0.1144,-10.5955868 -0.91513,-1.2140777 -1.94466,-2.4281554 -3.20297,-3.5318624 -4.80447,-1.103707 -9.60894,-1.6555605 -14.29902,-1.6555605 -4.57568,0.1103707 -9.38015,0.1103707 -14.64219,0 l -2.74541,2.7592675 0,0 -1.60149,-2.3177847 c -6.52035,0 -12.69752,0 -18.53152,-0.1103707 -3.66054,-0.3311121 -7.2067,-3.0903796 -10.63846,-8.0570611 -1.60149,1.8763019 -2.17345,4.414828 -1.71588,7.2844662 1.60149,4.8563108 4.69007,7.9466904 9.26576,9.1607681 6.06278,1.8763014 12.35434,2.7592674 19.10348,2.5385264 0.22878,-0.110371 0.45757,-0.110371 0.68635,-0.110371 l 3.29253,-6.7326127 z"
       inkscape:connector-curvature="0" />
    <path
       id="path3719"
       style="fill:#800080;fill-opacity:1;stroke:#000000;stroke-width:2.4268744;stroke-miterlimit:4;stroke-opacity:1;stroke-dasharray:none"
       d="m 952.56212,10.249965 -4.3469,-6.2911297 -2.74541,6.7326127 -0.91514,2.869638 c 4.23251,-0.11037 8.00745,0.220742 11.09604,1.103707 l -3.08859,-4.414828 z"
       inkscape:connector-curvature="0" />
    <path
       style="fill:#800080;fill-opacity:1;stroke:#000000;stroke-width:2.4268744;stroke-miterlimit:4;stroke-opacity:1;stroke-dasharray:none"
       id="path3725"
       d="m 867.91197,-20.530133 c -0.1144,0 -0.22879,-0.220741 -0.34318,-0.220741 -3.77494,0.331112 -7.2067,-0.993336 -10.29529,-4.414828 -1.71588,-2.759268 -2.8598,-5.518535 -3.66055,-8.498544 -0.22878,-1.103707 -0.45756,-2.097043 -0.57196,-3.20075 1.60149,-4.083716 1.14392,-7.946691 -1.14392,-11.478553 -2.8598,-0.441483 -4.46129,0 -5.26203,1.434819 -0.1144,0 -0.1144,0 -0.1144,0.110371 1.4871,3.531862 1.25832,6.842983 -0.45756,9.822992 l 0,0 c -2.17345,0.662224 -3.88934,0.110371 -5.37643,-1.434819 0,-0.110371 0,-0.220742 -0.1144,-0.331112 -1.83027,-0.441483 -3.20297,0.11037 -3.88933,1.54519 -1.71588,3.090379 -2.51662,5.849647 -2.40223,8.388173 0.80074,1.103707 1.71588,1.986672 2.8598,2.759267 1.4871,0.882966 2.9742,1.434819 4.80447,1.434819 0.34318,2.428156 -0.91514,4.414828 -3.88933,6.29113 -0.11439,0 -0.11439,0 -0.11439,0.110371 4.11811,3.20075 9.03697,4.414828 14.87097,3.752604 -5.834,0.662224 -10.75286,-0.551854 -14.87097,-3.752604 0,-0.110371 0,-0.110371 0.11439,-0.110371 -1.37271,-1.103707 -3.43176,-1.986672 -6.06278,-2.428155 -3.20298,0.331112 -5.834,1.103707 -7.77867,2.207414 -1.02952,0.772595 -1.48709,1.214078 -1.48709,1.65556 -0.11439,0.331112 0.22878,0.551854 0.80074,0.772595 3.31737,-0.220741 5.71961,0.551854 7.2067,2.428156 1.60149,3.973345 0,7.3948366 -4.91886,9.9333627 -1.25831,2.207414 -1.14392,4.1940866 0.1144,5.7392764 2.17345,1.3244484 4.2325,1.9866726 6.17717,1.7659312 2.40223,-2.5385261 3.88933,-5.0770522 4.69008,-7.6155783 1.14392,2.8696382 1.14392,5.4081643 0,7.725949 3.77493,1.5451898 6.97791,1.2140777 9.72332,-1.2140777 0.45757,-0.3311121 0.91514,-0.8829656 1.37271,-1.4348191 -0.45757,0.5518535 -0.91514,1.103707 -1.37271,1.4348191 -2.17345,2.4281554 -3.54615,5.0770522 -4.00372,7.8363197 0.45757,-0.110371 0.91514,-0.110371 1.37271,-0.110371 4.80446,-0.5518532 8.46501,0.551854 10.63846,2.869638 l -0.11439,0.551854 -10.40968,-0.110371 c 0.11439,3.531863 1.94466,6.070389 5.37643,7.725949 3.43176,1.54519 8.46501,2.317785 14.98536,2.207414 -6.52035,0.110371 -11.5536,-0.662224 -14.98536,-2.207414 -5.71961,4.74594 -8.00745,10.264475 -6.97792,16.445235 1.25831,-1.876302 3.20298,-3.09038 5.60521,-3.421492 0.22879,-0.110371 0.45757,-0.110371 0.68635,-0.110371 0.1144,-0.110371 0.34318,-0.110371 0.45757,-0.110371 0.11439,0 0.22879,0 0.22879,0 4.57568,-0.441482 10.98164,1.214078 19.21787,4.856311 -5.49082,3.09038 -11.89678,2.869639 -19.21787,-0.441483 3.77494,6.842984 10.63846,9.38151 20.59057,7.83632 l 0.1144,0.331112 c -5.94839,1.765931 -10.75286,4.74594 -14.75658,9.050398 l 0,0.11037 c -0.1144,0.110371 -0.22879,0.220742 -0.22879,0.220742 l 0,0.11037 c 0.11439,-0.11037 0.34318,-0.11037 0.34318,-0.11037 l 0.11439,0 c 7.09231,-2.207414 14.64219,-2.317785 22.99281,-0.551854 -9.26576,1.214078 -15.21415,2.980009 -17.95956,5.518535 -1.60149,1.434819 -2.05906,3.09038 -1.48709,5.077052 7.77866,-2.869638 16.47246,-1.65556 25.85261,3.531863 l -0.11439,0.220741 -0.22879,0.551854 c -8.46501,-0.882966 -13.15509,0.220741 -14.29901,3.311121 0.91514,0 1.71588,0.11037 2.63102,0.220741 6.40596,0.993336 11.43921,3.09038 15.44293,6.180759 -4.57568,1.876302 -9.95211,0.993337 -16.12928,-2.428155 1.83027,4.304457 5.03325,7.615578 9.60893,9.602251 1.25832,-1.54519 3.08859,-2.428156 5.49082,-2.648897 0,-0.110371 0,-0.110371 0.1144,0 0.22878,-0.110371 0.57196,-0.110371 0.80074,-0.110371 -0.34318,0.220742 -0.68635,0.551854 -0.91514,0.882966 -0.11439,0.110371 -0.34317,0.220741 -0.34317,0.220741 -0.91514,0.882966 -1.60149,1.876302 -1.94467,2.759268 0.34318,0.110371 0.68635,0.220741 1.14392,0.331112 0.11439,0.110371 0.22879,0.110371 0.34318,0.110371 2.74541,0.551853 5.834,0.882965 9.26576,0.882965 -4.23251,0.441483 -7.66427,1.214078 -10.40968,2.428156 0.34317,0.220741 0.57196,0.551853 0.91513,0.882965 2.63102,2.428156 5.71961,2.648897 9.38016,0.331112 3.66054,-2.207414 5.60521,-5.408164 5.94839,-9.712621 -3.31737,-2.097043 -6.17718,-4.525199 -8.8082,-7.505208 -0.11439,0 -0.11439,0 -0.11439,0 -1.94466,-2.317785 -3.77494,-4.856311 -5.37643,-7.725949 -0.45756,-0.772595 -1.02953,-1.765931 -1.3727,-2.648897 6.17717,6.401501 10.98164,6.953355 14.29901,1.655561 2.8598,-8.057061 10.1809,-13.023743 21.96328,-14.900045 l 0,0 c -8.80819,-0.331112 -14.64218,-3.642233 -17.73077,-10.264475 -0.68635,-4.194086 1.60149,-7.284466 6.40596,-9.381509 0.34317,5.297793 3.08858,9.050397 8.6938,11.257811 0.34317,-0.110371 0.80074,-0.110371 1.25831,-0.110371 l -0.57196,-3.642233 c -2.05906,-3.20075 -4.3469,-6.4015 -6.52035,-9.381509 -8.92258,-12.58226 -18.76031,-25.054149 -29.39877,-37.3052967 -4.69008,-5.4081643 -10.1809,-10.1541043 -16.47246,-14.3481913 z"
       inkscape:connector-curvature="0" />
    <path
       id="path3721"
       style="fill:#800080;fill-opacity:1;stroke:#000000;stroke-width:2.4268744;stroke-miterlimit:4;stroke-opacity:1;stroke-dasharray:none"
       d="m 881.41023,-51.99911 c 0.34318,-0.993336 0.57197,-1.986672 0.68636,-2.869638 0.22878,-2.759267 -0.68636,-5.518535 -2.63102,-8.277802 -0.11439,-0.110371 -0.11439,-0.220742 -0.11439,-0.331112 -4.4613,-5.408165 -9.15137,-7.615579 -14.18462,-6.622242 -3.54616,0.993336 -5.49082,2.869638 -6.06278,5.518535 4.69007,-0.441483 8.00744,0.331112 10.0665,2.538526 1.83027,2.097043 2.28784,4.414828 1.14392,6.842983 0.11439,0 0.22879,0 0.45757,0.110371 0.91514,3.090379 3.08859,5.297793 6.52035,6.622242 2.40223,-0.551854 3.77494,-1.655561 4.11811,-3.531863 z"
       inkscape:connector-curvature="0" />
    <path
       style="fill:#800080;fill-opacity:1;stroke:#000000;stroke-width:2.4268744;stroke-miterlimit:4;stroke-opacity:1;stroke-dasharray:none"
       id="path3723"
       d="m 882.09659,-54.868748 c -0.11439,0.882966 -0.34318,1.876302 -0.68636,2.869638 -0.34317,1.876302 -1.71588,2.980009 -4.11811,3.531863 -3.43176,-1.324449 -5.60521,-3.531863 -6.52035,-6.622242 -0.22878,-0.110371 -0.34318,-0.110371 -0.45757,-0.110371 -3.08859,-1.324448 -5.26204,-0.993336 -6.29156,1.103707 -1.4871,3.09038 -1.83028,6.842983 -0.91514,11.257811 -2.51663,4.63557 -5.60521,7.063725 -9.38015,7.174096 l -0.1144,0 c 0.80075,2.980009 1.94467,5.739276 3.66055,8.498544 3.08859,3.421492 6.52035,4.74594 10.29529,4.414828 0.11439,0 0.22878,0.220741 0.34318,0.220741 l 0.45757,-0.772595 c 4.34689,-5.849647 8.23623,-12.140777 11.5536,-18.542277 1.3727,-2.759268 3.77494,-5.297794 7.2067,-7.615579 0.45757,-1.876301 -0.11439,-3.862974 -1.37271,-5.628905 l -3.66054,0.220741 z"
       inkscape:connector-curvature="0" />
    <path
       id="path3727"
       style="fill:#800080;fill-opacity:1;stroke:#000000;stroke-width:2.4268744;stroke-miterlimit:4;stroke-opacity:1;stroke-dasharray:none"
       d="m 846.52064,-48.798359 c -0.11439,-0.110371 -0.11439,-0.220742 -0.11439,-0.331112 -1.25831,-3.200751 -3.77494,-5.077053 -7.54988,-5.849648 -4.11811,0.110371 -8.00744,1.214078 -11.89678,3.531863 -2.40223,1.986672 -3.88933,4.525199 -4.57568,7.725949 3.54616,-1.876302 7.3211,-2.759268 11.21043,-2.538526 3.66054,1.214077 5.94839,3.090379 6.97791,5.518535 0.1144,0.11037 0.1144,0.220741 0.1144,0.331112 1.48709,1.54519 3.20298,2.097043 5.37643,1.434819 l 0,0 c 1.71588,-2.980009 1.94466,-6.29113 0.45756,-9.822992 z"
       inkscape:connector-curvature="0" />
    <path
       id="path3729"
       style="fill:#800080;fill-opacity:1;stroke:#000000;stroke-width:2.4268744;stroke-miterlimit:4;stroke-opacity:1;stroke-dasharray:none"
       d="m 830.73453,-15.687149 c -1.48709,-1.876302 -3.88933,-2.648897 -7.2067,-2.428156 -0.57196,-0.220741 -0.91513,-0.441483 -0.80074,-0.772595 l -0.34318,0.441483 c -2.05906,0 -4.00372,0.662224 -5.94839,1.986673 -4.3469,3.642233 -7.32109,7.5052074 -8.57941,11.699294 -0.11439,2.7592675 0.22879,4.8563108 1.02953,6.2911299 1.4871,2.5385261 3.54616,3.8629745 6.17718,4.0837159 -0.80075,-4.414828 0.45756,-8.2778025 4.00372,-11.4785528 3.31737,-1.6555605 5.60521,-1.5451898 6.74913,0.1103707 4.91886,-2.5385261 6.52035,-5.9600177 4.91886,-9.9333627 z"
       inkscape:connector-curvature="0" />
    <path
       style="fill:#800080;fill-opacity:1;stroke:#000000;stroke-width:2.4268744;stroke-miterlimit:4;stroke-opacity:1;stroke-dasharray:none"
       id="path3731"
       d="m 884.04125,99.870974 c -2.05905,-1.43482 -3.43176,-3.199647 -4.00372,-5.628906 -1.25831,1.544086 -2.05906,3.421492 -2.40223,5.40706 -0.45757,4.083712 2.17345,6.402602 8.00744,7.285572 -3.20298,-2.75927 -3.66054,-5.07705 -1.60149,-7.063726 z"
       inkscape:connector-curvature="0" />
    <path
       style="fill:#800080;fill-opacity:1;stroke:#000000;stroke-width:2.4268744;stroke-miterlimit:4;stroke-opacity:1;stroke-dasharray:none"
       id="path3733"
       d="m 825.12932,139.49405 c 0.34318,1.98668 -0.11439,3.86298 -1.25831,5.73928 -2.74541,2.09594 -6.17718,3.53076 -10.1809,4.30335 -1.60149,1.32445 -1.94466,2.87075 -1.02953,4.30446 3.08859,0.22074 5.49082,0.88297 7.54988,1.98667 l 4.69008,-0.99333 -4.69008,0.99333 c 0.57196,0.44149 1.25831,0.99334 1.83027,1.54519 2.28785,3.64224 3.54616,6.62225 3.66055,9.16077 2.28784,0 4.57569,-0.44148 6.74914,-1.43482 4.46129,-2.53963 8.46501,-5.07815 11.5536,-8.05816 -4.00373,-1.76593 -7.3211,-4.74594 -10.1809,-8.82966 -0.34318,-3.09038 -1.71588,-6.18076 -4.11811,-9.27003 -1.83028,-0.88186 -3.31738,-0.66112 -4.57569,0.55295 z"
       inkscape:connector-curvature="0" />
    <path
       id="path3735"
       style="fill:#800080;fill-opacity:1;stroke:#000000;stroke-width:2.4268744;stroke-miterlimit:4;stroke-opacity:1;stroke-dasharray:none"
       d="m 823.87101,145.23333 c 1.14392,-1.8763 1.60149,-3.7526 1.25831,-5.73928 -0.22878,-0.66332 -0.45757,-1.43481 -0.91514,-2.20741 -4.80446,-1.32445 -9.95211,-1.65556 -15.21414,-0.66333 -5.26204,0.88407 -8.35063,3.53187 -9.26576,7.83743 -0.91514,4.41482 0,7.06262 2.63101,8.05706 1.60149,-4.30446 4.3469,-6.51187 8.00745,-6.51187 3.08859,0.44148 4.11812,1.65556 3.31737,3.53186 4.00372,-0.7726 7.43549,-2.20742 10.1809,-4.30446 z"
       inkscape:connector-curvature="0" />
    <path
       id="path3737"
       style="fill:#800080;fill-opacity:1;stroke:#000000;stroke-width:2.4268744;stroke-miterlimit:4;stroke-opacity:1;stroke-dasharray:none"
       d="m 810.83031,169.73563 c -1.4871,-0.33112 -2.17345,-0.88297 -2.40224,-1.76593 -4.2325,0.55185 -7.43548,2.75926 -9.38015,6.62224 -1.3727,4.41483 -1.02953,8.16743 1.25832,11.36818 1.3727,3.64223 4.00372,6.07039 7.77866,7.1741 -1.60149,-3.19965 -2.05906,-6.51077 -1.37271,-10.15411 0.68636,-2.53853 2.40224,-3.64223 4.69008,-3.53076 1.60149,-0.22074 2.8598,-0.55185 3.77494,-0.99333 2.28784,-0.99334 2.97419,-2.86964 1.94466,-5.62891 -0.34317,-1.54629 -2.40223,-2.53963 -6.29156,-3.09148 z"
       inkscape:connector-curvature="0" />
    <path
       id="path3739"
       style="fill:#800080;fill-opacity:1;stroke:#000000;stroke-width:2.4268744;stroke-miterlimit:4;stroke-opacity:1;stroke-dasharray:none"
       d="m 845.14794,210.1313 c -1.25831,-2.53852 -1.4871,-5.51853 -0.34318,-8.71928 -0.34317,-3.09038 -2.28784,-5.2978 -5.83399,-6.4015 -3.66055,-0.33112 -5.94839,0.66222 -6.97792,3.31112 -0.91514,3.31112 -0.68636,6.29113 0.68635,9.0504 1.83027,4.52519 4.80447,7.5052 8.80819,9.27003 1.83028,0.7726 3.77494,0.99334 5.60521,0.55185 3.31738,-0.77149 5.37643,-1.87519 6.40596,-3.42149 -3.66055,-0.10926 -6.40596,-1.21297 -8.35062,-3.64113 z"
       inkscape:connector-curvature="0" />
    <path
       style="fill:#800080;fill-opacity:1;stroke:#000000;stroke-width:2.4268744;stroke-miterlimit:4;stroke-opacity:1;stroke-dasharray:none"
       id="path3741"
       d="m 892.73505,231.32248 c -0.80074,4.30335 -0.57196,7.72595 0.80075,10.04373 0.45757,0.7726 1.02953,1.32445 1.71588,1.8763 1.4871,1.10371 3.31737,1.65556 5.7196,1.76593 3.54616,0 8.12184,-0.88296 13.84145,-2.86963 -4.11812,3.31112 -8.00745,5.51853 -11.89678,6.51076 -0.68635,0.11148 -1.25831,0.33222 -1.83027,0.33222 -3.54616,0.55185 -6.86353,0 -10.06651,-1.32445 -1.60149,-0.66333 -3.20298,-1.65556 -4.69008,-2.6489 -0.45756,-0.44037 -0.91513,-0.99223 -1.60148,-1.32444 0.34317,0.55185 0.68635,1.1037 0.91513,1.65556 4.69008,8.82965 10.06651,11.70039 16.24368,8.71928 0,-0.11037 0,-0.11037 0,-0.22074 0.68635,-0.33111 1.25831,-0.66222 1.83027,-0.88297 0.22879,-0.11037 0.45757,-0.22074 0.80075,-0.33111 3.08859,-1.43482 6.40596,-1.8763 9.49454,-1.43482 -3.08858,-0.44148 -6.40595,0 -9.49454,1.43482 -0.34318,0.11037 -0.57196,0.22074 -0.80075,0.33111 -0.57196,0.22075 -1.14392,0.55186 -1.83027,0.88297 0,0.11147 0,0.11147 0,0.22074 -2.17345,6.73261 -8.6938,11.03707 -19.44666,12.91337 11.21043,4.08372 19.56105,1.76593 25.16627,-6.95335 l 0.45756,0.33111 c -0.57196,2.75927 -1.3727,5.40706 -2.51662,7.83632 -3.08859,6.95336 -8.46502,12.69263 -15.78611,17.43857 5.7196,0.88407 10.63846,0.22074 14.4134,-1.8752 4.00373,-2.20741 7.09231,-6.07038 8.92259,-11.47855 -0.22879,6.84298 -2.40224,12.36152 -6.40596,16.66598 0.91514,1.43592 1.94466,2.87074 3.20298,4.08371 1.25831,1.21518 2.63102,2.31889 4.00372,3.31112 3.08859,2.09705 6.63474,3.64224 10.75286,4.85631 -5.14765,0.33112 -8.92259,0 -11.09604,-1.43481 -0.57196,-0.33222 -0.91513,-0.66333 -1.25831,-0.88407 -0.11439,0 -0.11439,0 -0.11439,0 -0.68635,-0.44038 -1.14392,-0.7715 -1.25831,-0.88297 -1.71589,-0.66222 -2.85981,-0.99223 -3.43177,-1.21408 -0.57196,-0.11147 -1.14392,-0.22074 -1.94466,-0.22074 -2.28784,-0.11037 -5.71961,0.33111 -10.40968,1.32445 -6.06278,2.53853 -13.15509,4.19409 -21.62011,4.85521 -1.94467,-0.11037 -3.66055,-0.55186 -5.26204,-1.32335 -1.60149,-0.77259 -3.08858,-1.8763 -4.46129,-3.31112 -0.34318,-4.74704 -1.71588,-10.04484 -4.23251,-15.67264 -1.3727,-0.99333 -3.43176,-1.32445 -6.17717,-1.10371 -1.25831,-0.22074 -1.94467,0.11038 -2.28784,1.21408 0,0.11148 0,0.11148 0,0.22074 0,0 0,0 0,0.11037 4.80447,7.06373 4.00372,10.26558 -2.74541,9.71373 -1.60149,0.11037 -4.23251,0.55185 -7.77867,1.43482 -3.66054,1.76593 -4.69007,3.7515 -3.20297,5.95891 l 0.34317,0.33222 c 0.22879,0.21964 0.34318,0.55185 0.57196,0.88296 0.11439,0.11037 0.11439,0.11037 0.22879,0.22075 1.60149,2.09594 4.00372,3.7515 6.97792,4.96668 4.57568,1.54408 10.63846,1.98667 18.30273,1.1037 -4.3469,3.19965 -10.86725,3.97335 -19.78983,2.09594 -2.63102,-0.88296 -5.834,-2.31778 -9.49455,-4.41482 l -2.17345,1.98667 c 3.66055,3.86297 5.60522,7.61558 6.06278,11.25781 -0.45756,2.53853 -2.05905,4.74594 -4.80446,6.73372 0,0.21963 0,0.33111 -0.1144,0.44038 -0.91513,2.20741 -0.22878,3.86297 1.83028,4.85631 l 5.7196,-0.11148 c 3.31737,-1.8752 4.91886,-4.41483 5.03326,-7.61447 0.11439,3.19964 0.91513,4.96668 2.17345,5.40706 2.8598,0.55185 5.49082,0.22074 7.89305,-0.55186 2.17345,-0.99223 4.3469,-1.1037 6.40596,-0.55185 3.31737,-1.65556 5.26203,-3.53076 6.06278,-5.95891 -0.80075,2.42815 -2.74541,4.30335 -6.06278,5.95891 -2.05906,-0.55185 -4.23251,-0.44038 -6.40596,0.55185 -0.68635,0.22075 -1.3727,0.66333 -2.05906,1.10371 l -5.7196,4.63557 2.17345,2.6489 c 0,0 0,0 0.11439,0 5.03325,1.32445 8.80819,3.7515 11.21043,7.28446 0.68635,1.54519 0.57196,2.6489 -0.57197,3.31112 -0.11439,0.11148 -0.11439,0.11148 -0.11439,0.11148 -0.34317,1.54408 0.57196,2.42705 2.85981,2.86964 2.51662,0.99333 4.69007,1.21407 6.40595,0.11037 3.88933,-2.42705 6.06278,-5.84965 6.52035,-10.153 -1.94466,-2.87074 -0.80074,-6.51187 3.66055,-11.03707 -4.46129,4.5252 -5.60521,8.16633 -3.66055,11.03707 0.80075,1.21407 2.28784,3.31112 4.23251,6.29002 3.20298,-5.40706 6.17717,-8.94002 9.03698,-10.48521 -2.85981,3.86297 -3.88934,7.72595 -3.20298,11.58892 0,0 0,0 0,0.11147 l 0,-0.11147 c 5.37643,-5.40706 11.78238,-8.38817 19.44665,-9.04929 -2.40223,6.62224 -8.35062,11.03707 -17.73077,13.46412 -0.11439,0 -0.11439,0 -0.22879,0.11147 1.94467,4.96668 6.74914,6.62224 14.64219,5.07705 5.71961,-2.09593 9.49455,-5.6289 11.55361,-10.37374 l 0.57196,0.11037 c 0.34317,-2.98001 2.05905,-5.51853 4.80446,-7.61557 -2.74541,2.09704 -4.46129,4.63556 -4.80446,7.61557 -0.1144,0.44149 -0.22879,0.7726 -0.22879,1.21408 -0.91513,11.14855 5.71961,16.44524 19.78984,16.11523 0.22878,0 0.34317,0 0.68635,0 -0.22879,-0.11148 -0.34318,-0.11148 -0.34318,-0.11148 -0.11439,-0.21964 -0.22878,-0.21964 -0.34317,-0.21964 -5.14765,-2.31888 -7.77867,-6.29112 -7.43549,-11.70039 l 0,-0.22074 c -0.11439,-3.09038 1.83027,-6.62225 5.94839,-10.59559 4.3469,5.6289 6.74913,11.69929 7.32109,18.10079 5.03325,-7.28557 6.86353,-15.45189 5.834,-24.50229 0.11439,0.33111 0.11439,0.55185 0.22878,0.77259 0,0.21964 0,0.33111 0.1144,0.55186 0.34317,1.32334 0.80074,2.75926 1.3727,4.08261 4.00372,9.16187 12.12556,13.79634 24.25113,13.68597 -7.09231,-4.5252 -12.12557,-10.59559 -15.09976,-18.1008 -0.68635,-0.66222 -1.37271,-1.54409 -2.05906,-2.42705 0.68635,0.88296 1.37271,1.76593 2.05906,2.42705 4.3469,4.5263 10.0665,6.84298 17.04442,7.1741 1.83028,-0.11037 3.54616,-0.44038 5.14765,-0.99224 2.8598,-1.21518 5.14764,-3.20075 6.86352,-5.96001 l -0.22764,-0.22075 0.45643,-0.55185 c -0.45643,0.33222 -1.02953,0.66333 -1.4871,0.88407 -2.8598,1.65556 -5.37643,2.42705 -7.3211,2.20741 -7.32109,-0.99333 -11.43921,-5.51853 -12.35434,-13.24448 0.57196,-6.18186 3.54615,-11.36929 8.6938,-15.56337 1.14392,-0.99224 2.28784,-1.8763 3.66054,-2.6478 l 0,-0.22074 0.1144,-0.11147 c 0.57196,-4.5252 1.71588,-9.49188 3.66054,-14.90005 -0.80074,1.32445 -1.83027,2.6489 -2.97419,3.86298 -0.11439,0.11147 -0.22878,0.33221 -0.34318,0.44148 -0.11439,0.22074 -0.34317,0.33111 -0.45757,0.55185 -2.40223,2.20742 -5.26203,4.19409 -8.69379,5.84965 -0.1144,0.11148 -0.34318,0.11148 -0.45757,0.11148 -6.63474,1.87519 -13.38388,1.54408 -19.78984,-0.7726 -3.43176,-1.98667 -6.06278,-5.07815 -7.89305,-9.38151 -0.11439,-0.44148 -0.34318,-0.77259 -0.45757,-1.21518 -1.02953,-3.42149 -0.45757,-7.28447 1.60149,-11.47745 2.97419,-3.20075 6.74913,-5.29779 11.32482,-6.18186 -4.3469,4.19519 -6.06278,8.49854 -5.26204,12.8041 0.22879,0.88297 0.45757,1.87631 0.91514,2.53853 1.14392,2.42816 3.08858,4.08372 5.94839,5.07705 2.51662,0.7726 5.49082,0.7726 8.6938,0 3.66054,-0.88296 6.29156,-2.20741 8.12184,-3.7515 1.83027,-1.65556 2.63101,-3.64223 2.51662,-5.96002 0.11439,-4.30335 0.34318,-9.71262 0.80075,-16.00375 0.80074,-6.18076 2.8598,-12.47189 6.29156,-18.65154 3.43177,-5.40817 8.23623,-10.81743 14.75658,-16.2245 0.34318,-0.33111 0.45643,-0.55185 0.68636,-0.77259 1.94466,-2.20741 3.08854,-4.74594 3.43174,-7.39484 0.3432,-2.86964 -0.3432,-5.95891 -1.94465,-9.38151 -0.34317,-2.42815 -0.45642,-4.8552 -0.45642,-7.17409 l -0.80075,-1.76593 c -14.29901,0.99223 -26.0814,5.51853 -35.34716,13.46522 -4.00372,-0.44148 -7.89305,-0.77259 -11.89677,-0.99333 -7.43549,0 -14.07023,1.76593 -19.56105,5.29779 -5.94839,6.73372 -11.09604,10.9267 -15.67172,12.58226 -0.45757,0.11037 -0.80075,0.33111 -1.25831,0.44038 -4.00373,1.10371 -7.54988,0.22074 -10.40968,-2.42705 -3.20298,-2.87075 -2.17345,-6.84299 3.31737,-11.80967 -7.55103,-0.22626 -12.01232,2.64338 -13.61381,8.49303 z"
       inkscape:connector-curvature="0" />
    <path
       style="fill:#800080;fill-opacity:1;stroke:#000000;stroke-width:2.4268744;stroke-miterlimit:4;stroke-opacity:1;stroke-dasharray:none"
       id="path3743"
       d="m 1023.4852,103.62358 c 1.2583,-2.20742 2.7454,-4.30446 4.4613,-6.291132 -2.1734,-0.220742 -4.348,-0.662225 -6.2916,-1.324449 l -2.0602,0.331112 c -2.8598,3.091484 -6.9779,5.298899 -12.5831,6.511869 -2.4022,2.86964 -2.631,5.62891 -0.4564,8.38818 3.8882,4.19519 8.2362,6.62224 13.4983,7.50631 0.1144,-4.96779 1.1439,-10.04484 3.4317,-15.12189 z"
       inkscape:connector-curvature="0" />
    <path
       style="fill:#800080;fill-opacity:1;stroke:#000000;stroke-width:2.4268744;stroke-miterlimit:4;stroke-opacity:1;stroke-dasharray:none"
       id="path3747"
       d="m 986.53657,185.62901 c -1.3727,0.55185 -2.28784,1.21408 -3.31737,1.98667 -1.71588,1.21518 -2.8598,3.31112 -3.43176,6.29113 10.06651,0.22074 16.13043,4.19409 18.18834,12.03041 0.1144,0.11037 0.1144,0.11037 0.1144,0.33111 0.34317,-3.75261 1.3727,-7.06373 3.20302,-10.26448 -0.1144,-0.11147 0,-0.22074 0.1155,-0.22074 -2.97535,-4.85631 -6.40711,-8.49854 -10.63847,-11.14854 -1.60264,0.22184 -2.97534,0.55295 -4.23366,0.99444 z"
       inkscape:connector-curvature="0" />
    <path
       id="path3749"
       style="fill:#800080;fill-opacity:1;stroke:#000000;stroke-width:2.4268744;stroke-miterlimit:4;stroke-opacity:1;stroke-dasharray:none"
       d="m 994.31524,374.3629 c -2.9742,0.66223 -5.60522,1.87631 -7.89306,3.75261 -2.51662,2.31778 -4.23251,4.85521 -5.03211,7.72595 -0.91513,3.64223 -0.91513,7.17409 -0.22878,10.48521 1.3727,3.86298 4.46129,6.51077 9.38015,8.05706 -1.94466,-3.09037 -2.51662,-6.4015 -1.94466,-10.37484 1.94466,-4.19409 4.91886,-7.06262 9.03697,-8.38817 0.11439,-0.22075 0.22764,-0.33112 0.34318,-0.55186 0.80074,-2.09704 1.02838,-4.19408 0.45642,-6.51187 -0.80074,-2.20741 -2.17345,-3.64223 -4.11811,-4.19409 z"
       inkscape:connector-curvature="0" />
    <path
       id="path3751"
       style="fill:#800080;fill-opacity:1;stroke:#000000;stroke-width:2.4268744;stroke-miterlimit:4;stroke-opacity:1;stroke-dasharray:none"
       d="m 1020.511,393.34666 c -1.9446,-0.11147 -4.0037,0.11038 -5.9484,0.66223 -1.1439,0.33111 -2.059,0.66333 -3.2029,1.21518 -0.3432,4.30335 0.1144,8.49744 1.6014,12.58116 1.2595,2.53852 2.9754,4.63557 5.1477,6.07039 3.7749,1.32444 6.6347,1.54518 8.6949,0.55185 2.4023,-0.88297 4.1182,-1.8763 5.3753,-2.86964 -3.4317,0.33111 -6.0628,-0.55185 -8.0074,-2.42816 -2.4023,-2.86963 -2.631,-5.73927 -0.7996,-8.60891 l 1.8302,-1.76703 0.8008,-0.55186 c -1.3739,-1.8752 -3.0897,-3.53076 -5.492,-4.85521 z"
       inkscape:connector-curvature="0" />
    <path
       id="path3753"
       style="fill:#800080;fill-opacity:1;stroke:#000000;stroke-width:2.4268744;stroke-miterlimit:4;stroke-opacity:1;stroke-dasharray:none"
       d="m 1065.2383,385.17923 c -1.2583,-1.43482 -2.631,-2.20741 -4.0037,-2.20741 -2.1734,0 -4.3469,0.77259 -6.2915,2.09704 -2.0591,1.8763 -2.8599,4.08372 -2.2879,6.51077 2.0591,0.55185 3.3174,1.54519 3.7749,3.09148 0.6875,1.65556 0.9152,3.19965 0.3432,4.5252 -1.2583,2.53853 -3.6594,3.75261 -7.4355,3.64224 0.8008,2.53852 3.3174,3.86297 7.4355,4.19408 5.9484,-0.88296 8.9238,-3.19964 9.1514,-7.17409 0.572,-4.74594 0.4576,-9.60115 -0.572,-14.45857 0,-0.11037 0,-0.11037 -0.1144,-0.22074 z"
       inkscape:connector-curvature="0" />
    <path
       id="path3755"
       style="fill:#800080;fill-opacity:1;stroke:#000000;stroke-width:2.4268744;stroke-miterlimit:4;stroke-opacity:1;stroke-dasharray:none"
       d="m 840.57225,294.01303 c 3.54616,-0.88296 6.17718,-1.32444 7.77867,-1.43481 6.74913,0.55185 7.54988,-2.6489 2.74541,-9.71373 -0.11439,-0.11037 -0.11439,-0.11037 -0.22879,-0.21964 -0.11439,0 -0.11439,-0.22074 -0.11439,-0.22074 -3.08858,-2.42815 -6.97792,-3.53186 -11.43921,-3.20075 -6.63474,0.55185 -11.21042,2.20742 -13.72705,4.74594 -3.08859,2.98001 -4.3469,5.96002 -3.54616,8.94113 4.4613,-3.20075 9.49455,-4.74594 14.98537,-4.74594 3.54615,1.65556 4.57568,3.7515 2.97419,6.07039 l 1.71589,-0.66333 c -0.45757,0.11037 -0.80075,0.33111 -1.14393,0.44148 z"
       inkscape:connector-curvature="0" />
    <path
       id="path3757"
       style="fill:#800080;fill-opacity:1;stroke:#000000;stroke-width:2.4268744;stroke-miterlimit:4;stroke-opacity:1;stroke-dasharray:none"
       d="m 832.33602,307.14715 c -6.40595,1.8763 -10.63846,5.73927 -12.81191,11.25781 -0.80075,4.85631 -0.45757,9.0504 0.91514,12.58226 2.40223,3.86297 5.7196,5.73928 9.72332,5.84965 -1.83027,-2.09705 -2.63101,-4.74594 -2.17345,-8.16744 1.02953,-2.20741 2.85981,-3.31112 5.49082,-3.09037 0.1144,-0.11038 0.1144,-0.22075 0.1144,-0.44038 2.74541,-1.98778 4.3469,-4.19519 4.80446,-6.73372 -0.45756,-3.64223 -2.40223,-7.39484 -6.06278,-11.25781 z"
       inkscape:connector-curvature="0" />
    <path
       id="path3759"
       style="fill:#800080;fill-opacity:1;stroke:#000000;stroke-width:2.4268744;stroke-miterlimit:4;stroke-opacity:1;stroke-dasharray:none"
       d="m 850.63876,335.9539 c -0.11439,0 -0.11439,0 -0.11439,0 -3.88933,4.5252 -5.834,9.60225 -5.94839,15.34042 0.80074,8.27781 5.834,11.25782 15.21415,8.82966 -4.00373,-2.42705 -5.71961,-5.95891 -5.03325,-10.48522 1.3727,-2.75926 3.43176,-3.86297 6.29156,-2.9789 0.11439,0 0.11439,0 0.11439,0 0,-0.11148 0,-0.11148 0.11439,-0.11148 1.14393,-0.66222 1.25832,-1.76593 0.57197,-3.31112 -2.40224,-3.53076 -6.17718,-5.95891 -11.21043,-7.28336 z"
       inkscape:connector-curvature="0" />
  </g>
  <g
     transform="translate(-1116.092,-1490.2028)"
     id="g36">
    <g
       id="castle"
       transform="matrix(0.9439079,0,0,0.9439079,267.1711,339.76795)">
      <path
         style="fill:#c8b100;stroke:#000000"
         d="m 1041.8436,1521.2953 31.2681,0.1066 6.1685,5.5457 0,14.9304 -3.4032,2.5594 -0.1064,34.3399 8.1893,0 0.319,-17.7032 -2.2334,-3.306 -0.1064,-10.7712 4.3606,-5.3323 18.2929,0.1066 4.6795,5.439 0.1064,10.4512 -2.7652,4.3725 -0.1064,21.6491 11.9117,6.2921 -0.2127,16.2102 -3.8288,5.9721 0,64.4141 10.1038,8.6382 0.1063,20.796 -20.3137,13.4374 -93.2727,0 -20.31367,-13.3308 0,-20.9027 9.46557,-7.5717 0.4254,-65.2672 -3.61607,-5.9356 0,-16.2467 11.27357,-6.8254 0.1063,-21.7556 -3.616,-3.7327 -0.2127,-10.2379 4.9986,-5.8655 18.9311,0 4.7859,5.3322 0,10.9845 -2.8716,3.5194 0.1064,17.5965 9.1465,-0.1066 -0.2126,-34.1267 -3.6162,-3.4126 -0.319,-13.8639 6.3813,-6.3988 z"
         id="path39"
         inkscape:connector-curvature="0" />
      <path
         style="fill:none;stroke:#000000"
         d="m 1042.2689,1718.9097 0.2127,-34.5531 c 0,0 14.0388,-22.8222 30.2047,0.2132 l 0.4749,34.7665"
         id="path41"
         inkscape:connector-curvature="0" />
      <path
         style="fill:none;stroke:#000000"
         d="m 990.89984,1685.4229 20.10096,8.2118 31.3745,0.1066"
         id="path43"
         inkscape:connector-curvature="0" />
      <path
         style="fill:none;stroke:#000000"
         d="m 1123.9513,1685.5038 -20.072,8.0556 -31.0555,0.2132"
         id="path45"
         inkscape:connector-curvature="0" />
      <path
         style="fill:none;stroke:#000000"
         d="m 990.7935,1692.4617 19.9946,9.2963 31.2917,0.019"
         id="path47"
         inkscape:connector-curvature="0" />
      <path
         style="fill:none;stroke:#000000"
         d="m 990.6297,1699.2126 20.0042,11.3116 31.1344,0.1508"
         id="path49"
         inkscape:connector-curvature="0" />
      <path
         style="fill:none;stroke:#000000"
         d="m 1001.0078,1689.5604 -0.3008,7.3901"
         id="path51"
         inkscape:connector-curvature="0" />
      <path
         style="fill:none;stroke:#000000"
         d="m 995.894,1694.839 -0.15042,7.3903"
         id="path53"
         inkscape:connector-curvature="0" />
      <path
         style="fill:none;stroke:#000000"
         d="m 1005.8209,1699.0619 0,8.446"
         id="path55"
         inkscape:connector-curvature="0" />
      <path
         style="fill:none;stroke:#000000"
         d="m 1001.0078,1704.793 -0.1504,7.8428"
         id="path57"
         inkscape:connector-curvature="0" />
      <path
         style="fill:none;stroke:#000000"
         d="m 997.0972,1606.7603 18.3498,-7.2393 83.4762,-0.1508 19.1018,6.7869"
         id="path59"
         inkscape:connector-curvature="0" />
      <path
         style="fill:none;stroke:#000000"
         d="m 1000.707,1612.3406 18.6506,-5.7312 76.7079,0.1508 18.3497,5.4295"
         id="path61"
         inkscape:connector-curvature="0" />
      <path
         style="fill:none;stroke:#000000"
         d="m 1000.4062,1622.898 18.6505,-3.9213 77.1592,0.1508 18.0489,3.9213"
         id="path63"
         inkscape:connector-curvature="0" />
      <path
         style="fill:none;stroke:#000000"
         d="m 1000.5566,1634.5111 18.9514,-2.4132 75.8054,0 18.9514,2.2624"
         id="path65"
         inkscape:connector-curvature="0" />
      <path
         style="fill:none;stroke:#000000"
         d="m 999.99146,1644.1635 19.32204,1.5633 76.1245,0.033 19.4284,-1.5967"
         id="path67"
         inkscape:connector-curvature="0" />
      <path
         style="fill:none;stroke:#000000"
         d="m 1000.5781,1655.3489 18.8247,3.0928 76.4688,0.1066 18.5055,-2.7728"
         id="path69"
         inkscape:connector-curvature="0" />
      <path
         style="fill:none;stroke:#000000"
         d="m 1000.3654,1666.6534 19.5692,4.2658 75.5115,0 18.931,-4.6924"
         id="path71"
         inkscape:connector-curvature="0" />
      <path
         style="fill:none;stroke:#000000"
         d="m 1000.3654,1677.318 18.931,5.7588 23.7171,0.053"
         id="path73"
         inkscape:connector-curvature="0" />
      <path
         style="fill:none;stroke:#000000"
         d="m 1071.7216,1682.8635 23.7998,0.088 19.494,-6.7003"
         id="path75"
         inkscape:connector-curvature="0" />
      <path
         style="fill:none;stroke:#000000"
         d="m 1008.7674,1583.0431 6.9662,-4.2125"
         id="path77"
         inkscape:connector-curvature="0" />
      <path
         style="fill:none;stroke:#000000"
         d="m 1005.1513,1557.4481 3.9351,-3.7326 18.7183,-0.1066 5.2114,4.2658"
         id="path79"
         inkscape:connector-curvature="0" />
      <path
         style="fill:none;stroke:#000000"
         d="m 1008.3419,1568.6459 4.1479,-3.1993 13.1879,0 4.7859,3.306"
         id="path81"
         inkscape:connector-curvature="0" />
      <path
         style="fill:none;stroke:#000000"
         d="m 1008.5547,1575.898 5.2113,-4.0526 11.8053,0.1067 5.2114,4.2658"
         id="path83"
         inkscape:connector-curvature="0" />
      <path
         style="fill:none;stroke:#000000"
         d="m 1105.9752,1583.2031 -6.7003,-4.0526"
         id="path85"
         inkscape:connector-curvature="0" />
      <path
         style="fill:none;stroke:#000000"
         d="m 1041.8436,1521.6152 0.2127,15.9969 2.7651,4.2659 0,36.8992"
         id="path87"
         inkscape:connector-curvature="0" />
      <path
         style="fill:none;stroke:#000000"
         d="m 1073.1117,1521.5085 -0.2127,15.9969 -2.7652,4.2658 0,36.8993"
         id="path89"
         inkscape:connector-curvature="0" />
      <path
         style="fill:none;stroke:#000000"
         d="m 1035.994,1541.558 5.6369,-4.1592 31.1617,0.32 6.2749,4.2658"
         id="path91"
         inkscape:connector-curvature="0" />
      <path
         style="fill:none;stroke:#000000"
         d="m 1039.6101,1544.864 4.786,-2.7727 25.7909,0.1599 5.5836,2.8262"
         id="path93"
         inkscape:connector-curvature="0" />
      <path
         style="fill:none;stroke:#000000"
         d="m 1039.6101,1554.5687 4.8923,-3.0927 25.4186,0.32 5.7432,2.9861"
         id="path95"
         inkscape:connector-curvature="0" />
      <path
         style="fill:none;stroke:#000000"
         d="m 1039.2911,1563.4203 5.424,-2.8794 25.3123,0.2133 5.6368,2.9861"
         id="path97"
         inkscape:connector-curvature="0" />
      <path
         style="fill:none;stroke:#000000"
         d="m 1039.7164,1572.805 4.3606,-2.5594 26.1631,0.2133 5.105,2.986"
         id="path99"
         inkscape:connector-curvature="0" />
      <path
         style="fill:none;stroke:#000000"
         d="m 1106.2207,1561.9807 -4.8923,-3.3061 -12.6563,0 -4.2542,3.7327"
         id="path101"
         inkscape:connector-curvature="0" />
      <path
         style="fill:none;stroke:#000000"
         d="m 1106.327,1569.2325 -4.1478,-3.1994 -13.188,0 -4.7859,3.3061"
         id="path103"
         inkscape:connector-curvature="0" />
      <path
         style="fill:none;stroke:#000000"
         d="m 1106.1143,1576.4844 -5.2114,-4.0525 -11.8053,0.1067 -4.8923,3.3059"
         id="path105"
         inkscape:connector-curvature="0" />
      <path
         style="fill:none;stroke:#000000"
         d="m 1124.3745,1691.8218 -20.4201,10.0247 -30.4172,0"
         id="path107"
         inkscape:connector-curvature="0" />
      <path
         style="fill:none;stroke:#000000"
         d="m 1073.3245,1710.3782 30.5236,0 20.6328,-11.5178"
         id="path109"
         inkscape:connector-curvature="0" />
      <path
         style="fill:none;stroke:#000000"
         d="m 1114.3771,1689.5822 0.1064,6.8254"
         id="path111"
         inkscape:connector-curvature="0" />
      <path
         style="fill:none;stroke:#000000"
         d="m 1109.4849,1699.3936 0.1063,7.7851"
         id="path113"
         inkscape:connector-curvature="0" />
      <path
         style="fill:none;stroke:#000000"
         d="m 1119.3759,1694.0613 0.1063,7.4652"
         id="path115"
         inkscape:connector-curvature="0" />
      <path
         style="fill:none;stroke:#000000"
         d="m 1114.2708,1704.6191 0.2393,7.8386"
         id="path117"
         inkscape:connector-curvature="0" />
      <path
         style="fill:none;stroke:#000000"
         d="m 1088.214,1693.528 -0.1064,8.1052"
         id="path119"
         inkscape:connector-curvature="0" />
      <path
         style="fill:none;stroke:#000000"
         d="m 1080.6628,1701.7397 0,8.6384"
         id="path121"
         inkscape:connector-curvature="0" />
      <path
         style="fill:none;stroke:#000000"
         d="m 1095.6589,1701.7397 0,8.6384"
         id="path123"
         inkscape:connector-curvature="0" />
      <path
         style="fill:none;stroke:#000000"
         d="m 1088.1075,1710.5916 0.1064,8.8516"
         id="path125"
         inkscape:connector-curvature="0" />
      <path
         style="fill:none;stroke:#000000"
         d="m 1025.6777,1693.6346 0,7.8918"
         id="path127"
         inkscape:connector-curvature="0" />
      <path
         style="fill:none;stroke:#000000"
         d="m 1018.3392,1701.6332 0,8.8517"
         id="path129"
         inkscape:connector-curvature="0" />
      <path
         style="fill:none;stroke:#000000"
         d="m 1034.5051,1701.7397 0.1063,8.9582"
         id="path131"
         inkscape:connector-curvature="0" />
      <path
         style="fill:none;stroke:#000000"
         d="m 1025.8904,1710.5916 0,8.5315"
         id="path133"
         inkscape:connector-curvature="0" />
      <path
         style="fill:none;stroke:#000000"
         d="m 1000.7908,1689.2622 8.5083,-9.1715"
         id="path135"
         inkscape:connector-curvature="0" />
      <path
         style="fill:none;stroke:#000000"
         d="M 1004.4068,1678.3845 1004.3005,1667.4"
         id="path137"
         inkscape:connector-curvature="0" />
      <path
         style="fill:none;stroke:#000000"
         d="m 1014.1914,1669.4261 0,11.7312"
         id="path139"
         inkscape:connector-curvature="0" />
      <path
         style="fill:none;stroke:#000000"
         d="m 1009.7245,1668.893 0,-12.4774"
         id="path141"
         inkscape:connector-curvature="0" />
      <path
         style="fill:none;stroke:#000000"
         d="m 1004.6195,1655.9888 0.2128,-11.731"
         id="path143"
         inkscape:connector-curvature="0" />
      <path
         style="fill:none;stroke:#000000"
         d="m 1014.5105,1645.4309 -0.1064,11.8376"
         id="path145"
         inkscape:connector-curvature="0" />
      <path
         style="fill:none;stroke:#000000"
         d="m 1009.8309,1633.06 -0.1064,11.6244"
         id="path147"
         inkscape:connector-curvature="0" />
      <path
         style="fill:none;stroke:#000000"
         d="m 1004.9386,1621.6488 -0.1063,12.371"
         id="path149"
         inkscape:connector-curvature="0" />
      <path
         style="fill:none;stroke:#000000"
         d="m 1014.5105,1620.1559 0.1064,12.3709"
         id="path151"
         inkscape:connector-curvature="0" />
      <path
         style="fill:none;stroke:#000000"
         d="m 1009.5118,1609.7046 0,11.0912"
         id="path153"
         inkscape:connector-curvature="0" />
      <path
         style="fill:none;stroke:#000000"
         d="m 1109.9822,1678.1729 -0.1063,-11.0911"
         id="path155"
         inkscape:connector-curvature="0" />
      <path
         style="fill:none;stroke:#000000"
         d="m 1100.5167,1669.2145 0,11.7311"
         id="path157"
         inkscape:connector-curvature="0" />
      <path
         style="fill:none;stroke:#000000"
         d="m 1105.1963,1668.5746 0.013,-11.7676"
         id="path159"
         inkscape:connector-curvature="0" />
      <path
         style="fill:none;stroke:#000000"
         d="m 1110.0354,1656.2571 0,-11.8911"
         id="path161"
         inkscape:connector-curvature="0" />
      <path
         style="fill:none;stroke:#000000"
         d="m 1100.3701,1645.1125 -0.066,12.7974"
         id="path163"
         inkscape:connector-curvature="0" />
      <path
         style="fill:none;stroke:#000000"
         d="m 1105.1963,1632.955 0.013,11.7073"
         id="path165"
         inkscape:connector-curvature="0" />
      <path
         style="fill:none;stroke:#000000"
         d="m 1109.7916,1622.1837 0.084,11.6245"
         id="path167"
         inkscape:connector-curvature="0" />
      <path
         style="fill:none;stroke:#000000"
         d="m 1100.1978,1619.9442 -0.031,12.6725"
         id="path169"
         inkscape:connector-curvature="0" />
      <path
         style="fill:none;stroke:#000000"
         d="m 1105.1963,1609.5461 0,11.0379"
         id="path171"
         inkscape:connector-curvature="0" />
      <path
         style="fill:none;stroke:#000000"
         d="m 1025.5243,1693.4816 6.7683,-10.4066"
         id="path173"
         inkscape:connector-curvature="0" />
      <path
         style="fill:none;stroke:#000000"
         d="m 1082.5287,1682.9242 5.866,10.7082"
         id="path175"
         inkscape:connector-curvature="0" />
      <path
         style="fill:none;stroke:#000000"
         d="m 1104.9395,1679.6062 9.175,9.8033"
         id="path177"
         inkscape:connector-curvature="0" />
      <path
         style="fill:none;stroke:#000000"
         d="m 1038.309,1670.4062 0.044,12.518"
         id="path179"
         inkscape:connector-curvature="0" />
      <path
         style="fill:none;stroke:#000000"
         d="m 1057.4989,1670.5128 0.062,3.3622"
         id="path181"
         inkscape:connector-curvature="0" />
      <path
         style="fill:none;stroke:#000000"
         d="m 1077.1141,1670.557 0,12.2164"
         id="path183"
         inkscape:connector-curvature="0" />
      <path
         style="fill:none;stroke:#000000"
         d="m 1069.8947,1658.3406 0.1503,11.9149"
         id="path185"
         inkscape:connector-curvature="0" />
      <path
         style="fill:none;stroke:#000000"
         d="m 1044.7765,1658.039 -0.1505,12.518"
         id="path187"
         inkscape:connector-curvature="0" />
      <path
         style="fill:none;stroke:#000000"
         d="m 1056.809,1645.2192 -0.1246,12.8198"
         id="path189"
         inkscape:connector-curvature="0" />
      <path
         style="fill:none;stroke:#000000"
         d="m 1031.9918,1645.2192 0,12.5182"
         id="path191"
         inkscape:connector-curvature="0" />
      <path
         style="fill:none;stroke:#000000"
         d="m 1070.32,1632.3997 -0.1246,12.8195"
         id="path193"
         inkscape:connector-curvature="0" />
      <path
         style="fill:none;stroke:#000000"
         d="m 1069.8947,1606.6094 -0.018,12.2165"
         id="path195"
         inkscape:connector-curvature="0" />
      <path
         style="fill:none;stroke:#000000"
         d="m 1044.4756,1606.157 -0.018,12.8197"
         id="path197"
         inkscape:connector-curvature="0" />
      <path
         style="fill:none;stroke:#000000"
         d="m 1057.2162,1619.3408 0.044,12.3047"
         id="path199"
         inkscape:connector-curvature="0" />
      <path
         style="fill:none;stroke:#000000"
         d="m 1044.626,1632.2489 0,12.8196"
         id="path201"
         inkscape:connector-curvature="0" />
      <path
         style="fill:none;stroke:#000000"
         d="m 1032.1422,1645.3701 0,12.8197"
         id="path203"
         inkscape:connector-curvature="0" />
      <path
         style="fill:none;stroke:#000000"
         d="m 1083.2808,1645.5209 0,13.1215"
         id="path205"
         inkscape:connector-curvature="0" />
      <path
         style="fill:none;stroke:#000000"
         d="m 1003.2369,1586.3491 0,7.9985"
         id="path207"
         inkscape:connector-curvature="0" />
      <path
         style="fill:none;stroke:#000000"
         d="m 1009.5118,1582.5099 0,9.1716"
         id="path209"
         inkscape:connector-curvature="0" />
      <path
         style="fill:none;stroke:#000000"
         d="m 1014.5105,1541.7179 0.053,4.9057"
         id="path211"
         inkscape:connector-curvature="0" />
      <path
         style="fill:none;stroke:#000000"
         d="m 1019.2964,1541.7712 0,4.9056"
         id="path213"
         inkscape:connector-curvature="0" />
      <path
         style="fill:none;stroke:#000000"
         d="m 1024.0824,1541.878 0,4.6923"
         id="path215"
         inkscape:connector-curvature="0" />
      <path
         style="fill:none;stroke:#000000"
         d="m 1090.554,1541.878 0,4.9056"
         id="path217"
         inkscape:connector-curvature="0" />
      <path
         style="fill:none;stroke:#000000"
         d="m 1095.6589,1541.9846 0,4.9056"
         id="path219"
         inkscape:connector-curvature="0" />
      <path
         style="fill:none;stroke:#000000"
         d="m 1100.5511,1542.0913 0,4.7925"
         id="path221"
         inkscape:connector-curvature="0" />
      <path
         style="fill:none;stroke:#000000"
         d="m 1010.7881,1719.123 0.4254,-25.3817 8.5083,-10.8778 -0.4254,-76.3583 -3.4033,-6.6121 -0.013,-21.217 10.8573,-0.022 -0.031,10.3613 3.9153,0.075 -0.084,-10.3512 10.252,0.062 0.044,10.3732 3.7757,0 -0.1064,-10.3483 11.1672,0.053 0,10.3485 3.7756,0 0.053,-10.433 10.3593,-0.01 -0.044,10.4394 3.7766,0 -0.047,-10.5241 11.0012,0.1224 0.053,10.3483 3.6426,-0.053 -0.088,-10.3933 11.2818,0.076 -0.053,20.1287 -3.616,7.6785 -0.1063,76.3049 8.0829,10.4513 0.319,25.9682"
         id="path223"
         inkscape:connector-curvature="0" />
      <path
         style="fill:none;stroke:#000000"
         d="m 1009.6182,1541.558 0,12.1575 3.616,4.4792 0.1064,21.3292"
         id="path225"
         inkscape:connector-curvature="0" />
      <path
         style="fill:none;stroke:#000000"
         d="m 1028.3365,1541.4514 0.1063,12.3707 -2.4461,4.5859 -0.2128,20.6893"
         id="path227"
         inkscape:connector-curvature="0" />
      <path
         style="fill:none;stroke:#000000"
         d="m 1008.4483,1561.394 4.8923,-3.3061 12.6562,0 4.2542,3.7326"
         id="path229"
         inkscape:connector-curvature="0" />
      <path
         style="fill:none;stroke:#000000"
         d="m 1105.0508,1542.1445 0,12.1576 -3.6162,4.4792 -0.1062,21.3291"
         id="path231"
         inkscape:connector-curvature="0" />
      <path
         style="fill:none;stroke:#000000"
         d="m 1086.3324,1542.0378 -0.1064,12.3709 2.4461,4.5858 0.2128,20.6892"
         id="path233"
         inkscape:connector-curvature="0" />
      <path
         style="fill:none;stroke:#000000"
         d="m 1082.3018,1557.5594 3.616,-3.1993 18.7184,-0.1066 4.7859,3.6259"
         id="path235"
         inkscape:connector-curvature="0" />
      <path
         style="fill:none;stroke:#000000"
         d="m 1049.6074,1521.5085 -0.069,6.6121"
         id="path237"
         inkscape:connector-curvature="0" />
      <path
         style="fill:none;stroke:#000000"
         d="m 1056.9458,1521.4213 -0.044,6.5927"
         id="path239"
         inkscape:connector-curvature="0" />
      <path
         style="fill:none;stroke:#000000"
         d="m 1065.1351,1521.6099 0,6.75"
         id="path241"
         inkscape:connector-curvature="0" />
      <path
         style="fill:none;stroke:#000000"
         d="m 1105.6561,1583.1497 0.1064,8.9584"
         id="path243"
         inkscape:connector-curvature="0" />
      <path
         style="fill:none;stroke:#000000"
         d="m 1112.1437,1586.5624 -0.1063,7.9985"
         id="path245"
         inkscape:connector-curvature="0" />
      <path
         style="fill:#000000;stroke:#000000"
         d="m 1054.232,1570.6471 -0.097,-15.1948 c 0,0 2.6741,-6.9273 6.2653,0 l 0.024,15.2061 -6.1922,-0.011 z"
         id="path247"
         inkscape:connector-curvature="0" />
      <path
         style="fill:#000000;stroke:#000000"
         d="m 1032.8698,1645.5609 -0.1334,-21.8416 c 0,0 3.669,-9.9574 8.5961,0 l 0.033,21.8578 -8.4958,-0.016 z"
         id="path249"
         inkscape:connector-curvature="0" />
      <path
         style="fill:#000000;stroke:#000000"
         d="m 1073.8358,1645.4542 -0.1318,-21.8417 c 0,0 3.6237,-9.9573 8.4902,0 l 0.033,21.8578 -8.3911,-0.016 z"
         id="path251"
         inkscape:connector-curvature="0" />
      <path
         style="fill:#a02c5a;stroke:#000000"
         d="m 1048.1273,1686.7709 c 0,0 3.3227,-7.1709 9.7204,-7.3273 0,0 5.4157,-0.1833 9.1607,7.0143 l 0,32.7803 -19.0371,-0.078 0.156,-32.3891 z"
         id="path253"
         inkscape:connector-curvature="0" />
    </g>
  </g>
  <g
     transform="matrix(1.1110223,-0.49889326,0.41920648,1.0683373,-1580.2645,-1057.9279)"
     id="g255"
     inkscape:transform-center-x="-19.950987"
     inkscape:transform-center-y="16.855379">
    <path
       style="fill:#c8b100;stroke:#000000;stroke-width:0.69999999"
       d="m 1102.037,1776.974 -2.7641,0.2155 c 0,0 -2.714,1.9199 -1.3332,3.9905 1.3708,2.0557 2.3106,1.3471 3.1394,0.1832 0.6757,-0.9488 0.8031,-2.4623 0.8031,-2.4623 l 5.7234,1.1152 -2.4998,4.4894 c -1.3256,-0.2058 -2.3362,-0.9566 -2.8576,-0.6449 0.1423,0.02 -3.8086,0.4299 -2.3087,1.9264 1.4999,1.4964 6.7554,0.4584 6.7554,0.4584 l 2.1951,4.7767 c 0,-0.666 -7.6425,-2.9289 -9.2727,-1.7312 -0.1707,-2.3763 -11.1074,-16.3677 -13.1598,-17.2955 l 1.5519,-8.9392 3.4394,3.7489 c 0,0.025 -1.1155,1.301 -1.9949,2.0066 -0.9268,0.7436 -1.1783,2.3947 0.06,2.7579 1.0589,0.3108 2.3262,0.387 2.8084,-0.193 0.8078,-0.9716 0.6587,-2.9289 0.6587,-2.9289 l 3.8615,-1.0684 0.3333,4.4894 -2.9998,0.8314 c 0,0 -0.8788,1.1631 0.3333,2.8266 1.3271,1.8213 2.8629,1.4727 3.3071,0.475 0.4113,-0.9239 0.526,-2.304 0.526,-2.304 0,0 3.4973,-0.7714 4.164,-1.2702 -0.026,0.8592 -0.6886,4.7662 -0.469,4.5465 z"
       id="path257"
       inkscape:connector-curvature="0" />
  </g>
</svg>
