<?xml version="1.0" encoding="UTF-8" standalone="no"?>
<svg
   xmlns:dc="http://purl.org/dc/elements/1.1/"
   xmlns:cc="http://creativecommons.org/ns#"
   xmlns:rdf="http://www.w3.org/1999/02/22-rdf-syntax-ns#"
   xmlns:svg="http://www.w3.org/2000/svg"
   xmlns="http://www.w3.org/2000/svg"
   xmlns:sodipodi="http://sodipodi.sourceforge.net/DTD/sodipodi-0.dtd"
   xmlns:inkscape="http://www.inkscape.org/namespaces/inkscape"
   version="1.0"
   width="750"
   height="500"
   viewBox="0 0 675 450"
   xml:space="preserve"
   id="svg1336"
   sodipodi:version="0.32"
   inkscape:version="0.46"
   sodipodi:docname="Lleida.svg"
   sodipodi:docbase="F:\Guillermo\Imachens\wiki"
   inkscape:output_extension="org.inkscape.output.svg.inkscape"><metadata
   id="metadata1349"><rdf:RDF><cc:Work
       rdf:about=""><dc:format>image/svg+xml</dc:format><dc:type
         rdf:resource="http://purl.org/dc/dcmitype/StillImage" /></cc:Work></rdf:RDF></metadata><defs
   id="defs1347"><inkscape:perspective
     sodipodi:type="inkscape:persp3d"
     inkscape:vp_x="0 : 225 : 1"
     inkscape:vp_y="0 : 1000 : 0"
     inkscape:vp_z="675 : 225 : 1"
     inkscape:persp3d-origin="337.5 : 150 : 1"
     id="perspective13" /><inkscape:perspective
     sodipodi:type="inkscape:persp3d"
     inkscape:vp_x="0 : 526.18109 : 1"
     inkscape:vp_y="0 : 1000 : 0"
     inkscape:vp_z="744.09448 : 526.18109 : 1"
     inkscape:persp3d-origin="372.04724 : 350.78739 : 1"
     id="perspective4331" /><inkscape:perspective
     sodipodi:type="inkscape:persp3d"
     inkscape:vp_x="0 : 526.18109 : 1"
     inkscape:vp_y="0 : 1000 : 0"
     inkscape:vp_z="744.09448 : 526.18109 : 1"
     inkscape:persp3d-origin="372.04724 : 350.78739 : 1"
     id="perspective3324" /><inkscape:perspective
     id="perspective10"
     inkscape:persp3d-origin="372.04724 : 350.78739 : 1"
     inkscape:vp_z="744.09448 : 526.18109 : 1"
     inkscape:vp_y="0 : 1000 : 0"
     inkscape:vp_x="0 : 526.18109 : 1"
     sodipodi:type="inkscape:persp3d" /></defs><sodipodi:namedview
   inkscape:window-height="744"
   inkscape:window-width="1280"
   inkscape:pageshadow="2"
   inkscape:pageopacity="0.0"
   borderopacity="1.0"
   bordercolor="#666666"
   pagecolor="#ffffff"
   id="base"
   showguides="true"
   inkscape:guide-bbox="true"
   inkscape:zoom="0.84906002"
   inkscape:cx="410.26277"
   inkscape:cy="306.01172"
   inkscape:window-x="-4"
   inkscape:window-y="-4"
   inkscape:current-layer="svg1336"
   showgrid="false" />








<rect
   height="450"
   width="674.99994"
   y="2.3559615e-08"
   x="3.6716305e-05"
   id="rect2396"
   style="fill:#fcdd09;fill-opacity:1" /><path
   style="fill:#da121a;fill-opacity:1"
   d="M -3.6692871e-14,50.006249 L -3.6692871e-14,100.0125 L 674.99996,100.0125 L 674.99996,50.006249 L -3.6692871e-14,50.006249 z M -3.6692871e-14,149.99063 L -3.6692871e-14,199.99688 L 674.99996,199.99688 L 674.99996,149.99063 L -3.6692871e-14,149.99063 z M -3.6692871e-14,250.00313 L -3.6692871e-14,300.00938 L 674.99996,300.00938 L 674.99996,250.00313 L -3.6692871e-14,250.00313 z M -3.6692871e-14,349.9875 L -3.6692871e-14,399.99375 L 674.99996,399.99375 L 674.99996,349.9875 L -3.6692871e-14,349.9875 z"
   id="rect2401" /><path
   style="fill:#ffffff;fill-opacity:1;fill-rule:evenodd;stroke:none;stroke-width:4.49999952000000030;stroke-linecap:butt;stroke-linejoin:miter;stroke-miterlimit:4;stroke-dasharray:none;stroke-opacity:1"
   d="M 337.15586,100.07769 L 212.57771,223.96758 L 336.46758,349.9223 L 462.42229,223.96758 L 337.15586,100.07769 z"
   id="path3660" /><path
   id="path3906"
   d="M 337.15586,100.07769 L 212.57771,223.96758 L 336.46758,349.9223 L 462.42229,223.96758 L 337.15586,100.07769 z"
   style="fill:#0f47af;fill-opacity:1;fill-rule:evenodd;stroke:#000000;stroke-width:4.49999952000000030;stroke-linecap:butt;stroke-linejoin:miter;stroke-miterlimit:4;stroke-dasharray:none;stroke-opacity:1" /><path
   style="fill:#078930;fill-opacity:1;fill-rule:evenodd;stroke:#000000;stroke-width:0.675;stroke-linecap:butt;stroke-linejoin:miter;stroke-miterlimit:4;stroke-dasharray:none;stroke-opacity:1"
   d="M 337.3373,171.91394 C 336.03172,171.8641 334.20763,172.58753 331.79533,174.30953 C 330.88553,182.15788 335.26615,215.77475 327.73122,196.99037 C 328.05416,200.76582 332.33709,209.98595 332.49731,215.61414 C 332.58029,226.58427 332.47289,237.74026 332.97761,248.68874 C 333.06145,250.04533 333.10814,251.43226 333.16234,252.82307 C 331.31316,252.94662 327.54732,252.73733 325.10803,249.22968 C 321.77641,244.43894 322.18925,237.86994 322.18925,237.86994 L 319.71384,244.86352 L 303.90077,223.96007 L 300.13224,228.75125 C 311.37644,243.12361 312.21372,244.86352 312.21372,244.86352 L 301.79482,243.54981 C 301.79483,243.54979 308.50377,246.85273 312.62013,248.76602 C 322.7796,253.48815 329.78862,261.74245 333.31013,266.61703 C 333.04397,286.64183 331.15092,308.42693 331.49976,326.89316 C 335.46066,328.22612 339.75712,321.78785 342.21423,318.04494 C 341.04154,300.16975 340.29757,280.39227 339.8866,261.55537 C 341.40936,256.82809 343.55415,251.47374 345.94581,249.6547 C 350.52679,246.17049 360.5027,245.28855 360.5027,245.28855 L 353.85234,242.66112 L 373.84037,226.12383 L 369.25901,222.22134 C 355.51609,233.98054 353.85234,234.85614 353.85234,234.85614 L 355.10853,223.96007 C 355.10852,223.96006 352.61946,231.36143 350.12076,235.28116 C 348.26496,238.19235 342.50663,244.90307 339.66491,248.18644 C 339.63309,245.9884 339.57765,243.68389 339.55408,241.54061 C 340.29357,229.77617 338.19837,216.05458 345.68718,197.95633 C 334.71836,219.33989 341.31183,185.31117 339.92354,177.16878 C 340.26031,174.17776 339.51325,171.99701 337.3373,171.91394 z"
   id="path32416" /><path
   style="fill:#ffffff;fill-opacity:1;fill-rule:evenodd;stroke:#000000;stroke-width:0.75;stroke-miterlimit:4;stroke-dasharray:none;stroke-opacity:1"
   d="M 374.53125 133.21875 C 374.51017 133.22377 374.50307 133.23507 374.46875 133.28125 C 371.679 136.14174 369.19347 138.78914 367.25 141.75 C 361.80999 150.0283 359.98686 159.00901 363.03125 166.28125 C 365.23537 171.89225 366.93941 175.9808 368.21875 179.5 C 365.48558 174.90506 361.66667 171.7264 357.375 170.3125 C 353.75942 169.03023 349.05151 169.68347 344.75 173.75 C 339.4295 178.78308 337.87709 192.6459 353.5 195.3125 C 351.84647 193.05247 352.00467 188.08995 355.3125 186.34375 C 357.84101 185.18136 360.69656 185.65691 362.03125 186.65625 C 363.36544 187.39732 364.99819 189.89661 365.84375 192.9375 C 363.42595 193.62303 361.78125 194.90743 361.78125 196.40625 C 361.78125 198.62278 365.33456 200.40625 369.75 200.40625 L 379.3125 200.40625 C 383.72793 200.40625 387.28126 198.62278 387.28125 196.40625 C 387.28125 194.90498 385.64309 193.62214 383.21875 192.9375 C 384.06431 189.89661 385.69705 187.39732 387.03125 186.65625 C 388.36594 185.65691 391.2215 185.18136 393.75 186.34375 C 397.05783 188.08995 397.21603 193.05247 395.5625 195.3125 C 411.18542 192.6459 409.633 178.78308 404.3125 173.75 C 400.01099 169.68347 395.30309 169.03023 391.6875 170.3125 C 387.39584 171.7264 383.57692 174.90506 380.84375 179.5 C 382.12308 175.9808 383.82714 171.89225 386.03125 166.28125 C 389.07564 159.009 387.25249 150.0283 381.8125 141.75 C 379.8647 138.78259 377.39129 136.11764 374.59375 133.25 C 374.5606 133.21945 374.55233 133.21373 374.53125 133.21875 z M 290.875 205 C 290.78681 205.00582 290.76735 205.00892 290.78125 205.125 C 290.74269 209.21065 290.77853 212.93793 291.40625 216.46875 C 293.15687 226.34522 297.96149 234.04656 305.03125 236.9375 C 310.34585 239.25866 314.2607 240.87355 317.53125 242.40625 C 312.52158 241.2052 307.71881 241.80676 303.75 243.96875 C 300.32641 245.73572 297.44832 249.66236 297.15625 255.71875 C 296.79716 263.21213 305.05621 274.13619 317.90625 264.46875 C 315.20894 264.09345 311.9667 260.49335 313.125 256.8125 C 314.127 254.12074 316.44303 252.34286 318.0625 252.0625 C 319.51322 251.5979 322.39892 252.14743 325.0625 253.6875 C 323.80856 255.97878 323.50087 258.11137 324.5 259.15625 C 325.99868 260.72357 329.81071 259.27427 333.03125 255.90625 L 339.4375 249.1875 C 342.65802 245.81948 344.02994 241.84857 342.53125 240.28125 C 341.53328 239.23757 339.53178 239.56747 337.34375 240.875 C 335.87091 238.08928 335.33697 235.07976 335.78125 233.5625 C 336.04935 231.8689 337.73863 229.42287 340.3125 228.375 C 343.83216 227.16364 347.29738 230.55416 347.65625 233.375 C 356.90031 219.93641 346.41522 211.28072 339.25 211.65625 C 333.45884 211.9617 329.72085 214.98211 328.03125 218.5625 C 325.97598 222.68894 325.37847 227.70004 326.5 232.90625 C 325.04395 229.50065 323.48443 225.42339 321.28125 219.90625 C 318.51688 212.51271 311.16271 207.51831 301.71875 205.6875 C 298.33509 205.0296 294.7921 204.95898 290.875 205 z M 455.3125 205 C 452.50381 205.03106 449.88151 205.19407 447.34375 205.6875 C 437.89979 207.51831 430.54561 212.51271 427.78125 219.90625 C 425.57807 225.42339 424.01855 229.50065 422.5625 232.90625 C 423.68404 227.70004 423.08652 222.68894 421.03125 218.5625 C 419.34164 214.98211 415.60367 211.9617 409.8125 211.65625 C 402.64729 211.28072 392.16217 219.93641 401.40625 233.375 C 401.76511 230.55416 405.23035 227.16364 408.75 228.375 C 411.32387 229.42287 413.04441 231.8689 413.3125 233.5625 C 413.75612 235.07746 413.21772 238.09282 411.75 240.875 C 409.55907 239.56364 407.53037 239.23637 406.53125 240.28125 C 405.03256 241.84856 406.40448 245.81948 409.625 249.1875 L 416.03125 255.90625 C 419.25178 259.27428 423.06382 260.72357 424.5625 259.15625 C 425.56162 258.11137 425.25393 255.97878 424 253.6875 C 426.66358 252.14743 429.54928 251.5979 431 252.0625 C 432.61946 252.34286 434.93549 254.12074 435.9375 256.8125 C 437.09581 260.49335 433.85356 264.09345 431.15625 264.46875 C 444.0063 274.13619 452.26534 263.21213 451.90625 255.71875 C 451.61415 249.66236 448.73608 245.73572 445.3125 243.96875 C 441.34369 241.80676 436.54093 241.2052 431.53125 242.40625 C 434.8018 240.87355 438.71665 239.25866 444.03125 236.9375 C 451.10101 234.04656 455.90561 226.34522 457.65625 216.46875 C 458.28397 212.93793 458.31981 209.21065 458.28125 205.125 C 458.29515 205.00892 458.27569 205.00582 458.1875 205 C 457.20823 204.98974 456.24873 204.98965 455.3125 205 z "
   transform="scale(0.9,0.9)"
   id="path6182" /></svg>