<?xml version="1.0" encoding="UTF-8" standalone="no"?>
<!-- Created with Inkscape (http://www.inkscape.org/) -->

<svg
   xmlns:dc="http://purl.org/dc/elements/1.1/"
   xmlns:cc="http://creativecommons.org/ns#"
   xmlns:rdf="http://www.w3.org/1999/02/22-rdf-syntax-ns#"
   xmlns:svg="http://www.w3.org/2000/svg"
   xmlns="http://www.w3.org/2000/svg"
   xmlns:sodipodi="http://sodipodi.sourceforge.net/DTD/sodipodi-0.dtd"
   xmlns:inkscape="http://www.inkscape.org/namespaces/inkscape"
   id="svg2989"
   version="1.1"
   inkscape:version="0.48.2 r9819"
   width="400"
   height="400"
   sodipodi:docname="maalima.PNG">
  <metadata
     id="metadata2995">
    <rdf:RDF>
      <cc:Work
         rdf:about="">
        <dc:format>image/svg+xml</dc:format>
        <dc:type
           rdf:resource="http://purl.org/dc/dcmitype/StillImage" />
        <dc:title></dc:title>
      </cc:Work>
    </rdf:RDF>
  </metadata>
  <defs
     id="defs2993" />
  <sodipodi:namedview
     pagecolor="#ffffff"
     bordercolor="#666666"
     borderopacity="1"
     objecttolerance="10"
     gridtolerance="10"
     guidetolerance="10"
     inkscape:pageopacity="0"
     inkscape:pageshadow="2"
     inkscape:window-width="1024"
     inkscape:window-height="708"
     id="namedview2991"
     showgrid="false"
     inkscape:snap-global="false"
     inkscape:zoom="1"
     inkscape:cx="1.3046641"
     inkscape:cy="281.11217"
     inkscape:window-x="-4"
     inkscape:window-y="-4"
     inkscape:window-maximized="1"
     inkscape:current-layer="svg2989">
    <inkscape:grid
       type="xygrid"
       id="grid3081" />
  </sodipodi:namedview>
  <path
     style="fill:#ffffff;fill-opacity:1"
     d="m 0.00611055,200.0084 0,-200.00000635 199.99998945,0 200,0 0,200.00000635 0,200 -200,0 -199.99998945,0 0,-200 z"
     id="path3306"
     inkscape:connector-curvature="0" />
  <path
     style="fill:#000000;fill-opacity:1"
     d="m 85.88555,112.22252 c -1.75626,-0.45627 -3.38668,-0.84147 -3.62318,-0.85596 -1.6324,-0.10005 -4.90448,-4.14437 -8.5386,-10.55369 -2.33416,-4.11661 -4.13952,-7.582482 -4.01192,-7.701839 0.57206,-0.535239 15.08372,8.390619 19.84058,12.203559 2.900757,2.32513 5.489657,4.22875 5.753097,4.23027 2.51488,0.014 -6.384157,-18.618852 -11.369897,-23.807083 -3.50338,-3.645674 -5.69298,-4.855779 -10.44304,-5.771268 l -3.45194,-0.665343 3.45194,-1.435509 c 4.24388,-1.764852 11.29988,-2.001443 14.3089,-0.479839 2.880817,1.456822 10.112857,8.561523 10.980539,10.787208 0.48628,1.247417 0.7753,6.119433 0.79828,13.457514 l 0.036,11.50221 -5.268782,-0.0401 c -2.89786,-0.0223 -6.705757,-0.41363 -8.462017,-0.86989 z"
     id="path3023-7"
     inkscape:connector-curvature="0" />
  <path
     style="fill:#000000;fill-opacity:1"
     d="m 106.43386,109.55795 c -1.7503,-1.7699 -2.5262,-5.30672 -1.16418,-5.30672 0.35494,0 1.57982,0.66905 2.72194,1.48675 2.77494,1.98677 3.7562,1.87708 5.32064,-0.5947 1.44786,-2.28756 2.1266,-2.5671 2.76986,-1.14077 1.60984,3.56956 -1.26106,7.3852 -5.55668,7.3852 -1.69026,0 -2.75134,-0.47453 -4.09158,-1.82976 z"
     id="path3025-4"
     inkscape:connector-curvature="0" />
  <path
     style="fill:#ff1a3d;fill-opacity:1"
     d="m 106.63712,110.47447 c -1.75028,-1.76991 -2.52618,-5.30673 -1.16416,-5.30673 0.35492,0 1.57982,0.66905 2.72194,1.48676 2.77494,1.98676 3.75618,1.87707 5.32064,-0.59471 1.44784,-2.28756 2.12658,-2.5671 2.76986,-1.14077 1.60982,3.56956 -1.26108,7.3852 -5.55668,7.3852 -1.69028,0 -2.75134,-0.47453 -4.0916,-1.82975 z"
     id="path3025"
     inkscape:connector-curvature="0" />
  <path
     style="fill:#000000;fill-opacity:1"
     d="m 228.048,333.84455 c -3.23578,-1.73764 -8.1804,-1.85855 -11.25138,-0.27511 -2.49944,1.28874 -2.76882,1.21468 -1.61922,-0.44523 3.16478,-3.72999 4.81482,-4.98773 9.36264,-7.47585 0.64018,-0.37766 1.80282,-1.14508 2.58362,-1.70536 1.23754,-0.88806 1.66334,-0.92959 3.3199,-0.32377 1.6977,0.62085 2.3426,0.53179 6.0496,-0.83557 4.85112,-1.7894 9.23088,-4.79685 12.04666,-8.27214 4.18318,-5.16297 4.16356,-7.77829 -0.0252,-3.3599 -5.85986,6.18107 -14.52806,10.37862 -21.5578,10.4393 -3.91468,0.0337 -4.14884,0.10847 -4.82774,1.53963 l -0.7135,1.50412 -2.48664,-1.77264 c -2.23332,-1.59206 -2.88934,-1.77359 -6.43994,-1.78205 -2.17432,-0.004 -4.819,0.17504 -5.87706,0.4005 -1.61008,0.3431 -1.23048,-1.65217 1.29964,-2.89273 3.72334,-2.36201 2.55216,-1.64265 4.1968,-2.79587 0.75574,-0.24598 2.68888,-0.47218 4.29586,-0.50266 2.45846,-0.0467 4.5223,-0.61089 5.54852,-1.51699 0.1242,-0.10947 -0.2234,-0.70105 -0.77224,-1.31441 -1.1893,-1.32908 -3.16948,-1.44661 -4.34486,-0.25788 -0.76378,0.77245 -0.98718,0.76483 -2.2577,-0.0772 -1.14836,-0.76097 -2.28448,-0.87922 -6.12152,-0.63712 -4.16882,0.26304 -4.5622,0.20961 -3.4154,-0.46392 3.0723,-3.19372 2.40068,-2.75342 5.87996,-5.43001 0.60462,-0.26276 2.2042,-0.86709 3.11112,-0.89831 0.90692,-0.0313 2.12904,-0.42402 2.71586,-0.87288 1.37954,-1.05528 1.53808,-1.03727 3.1087,0.35294 1.15484,1.0222 1.8414,1.13937 5.46418,0.93255 3.23798,-0.18486 4.78114,-0.58758 7.062,-1.84306 3.73938,-2.05833 7.40682,-6.1912 8.76236,-9.87439 2.31182,-6.28158 1.85222,-16.34985 -0.73708,-16.14705 -0.60084,0.0471 -3.57214,0.96481 -6.60288,2.03946 -9.09094,3.22346 -23.12694,5.37935 -35.02238,5.37935 l -6.46168,0 0,4.44706 0,4.44704 3.16046,0.0553 c 1.73824,0.0305 3.77878,0.25165 4.53454,0.49149 2.71418,1.48271 2.59576,1.4453 5.63096,3.66045 0.88892,0.89616 1.86942,2.10507 2.1789,2.68646 0.48022,0.90219 0.41236,0.99838 -0.46316,0.65642 -2.1173,-0.82699 -6.5294,-1.43557 -10.40772,-1.43557 -4.50574,0 -4.03516,-0.49399 -5.42404,5.69406 -2.01936,8.99703 -8.1161,17.08292 -15.82134,20.98327 -2.42128,1.22565 -4.7675,2.22844 -5.21384,2.22844 -0.44634,0 -1.44042,-0.50029 -2.20906,-1.11176 -1.84426,-1.46717 -2.8129,-1.40239 -4.57604,0.30596 l -1.4632,1.41775 -2.01312,-1.20125 c -2.607,-1.55561 -5.95364,-1.12276 -9.09118,1.17584 -1.9332,1.41632 -2.24392,1.50462 -2.24392,0.63776 1.68028,-3.78408 3.7225,-6.68189 6.87052,-8.52606 1.24628,-0.38847 2.04774,-1.31765 2.76424,-2.19932 0.1732,-0.55212 0.79706,-1.15857 1.3862,-1.34769 1.48386,-0.47629 1.33932,-1.29142 -0.30294,-1.70827 -2.18834,-0.55547 -3.9603,0.15499 -4.35516,1.74605 l -0.35442,1.42813 -1.8324,-1.14534 c -1.26626,-0.79148 -2.74636,-1.14158 -4.79056,-1.13314 -2.90122,0.012 -7.10584,1.45953 -7.86958,2.7093 -0.50792,0.83115 -1.4144,0.77822 -1.38866,-0.081 0.0284,-0.9514 2.38136,-4.25433 4.14738,-6.15905 3.71866,-2.49685 2.14544,-1.6366 6.70976,-3.14332 0.99486,-0.23838 2.25104,-0.83816 2.7915,-1.33279 0.54044,-0.49466 1.27234,-0.89937 1.6264,-0.89937 0.35408,0 0.64378,-0.25015 0.64378,-0.55587 0,-0.54515 -3.7333,-0.88151 -7.85178,-0.70741 -1.14428,0.0483 -3.43218,0.71378 -5.0842,1.47868 -1.652,0.76491 -3.00366,1.16024 -3.00366,0.87853 0,-0.2817 1.15652,-2.78265 2.6809,-4.00128 2.54382,-2.03361 3.35382,-3.42795 7.21234,-3.85065 7.35902,-1.33321 1.74614,1.27884 10.98684,0.1211 8.66848,-1.09926 12.37138,-5.27372 13.02346,-14.68202 l 0.31394,-4.52956 -3.58778,-0.94298 c -9.38004,-2.46535 -23.0205,-8.62803 -31.53916,-14.24926 -5.64688,-3.7262 -16.35426,-13.88061 -20.5907,-19.52732 -3.86662,-5.15375 -12.57412,-23.21588 -15.55402,-32.26398 -3.926413,-11.92203 -9.091513,-30.89159 -11.616673,-42.66378 -0.318257,-1.48375 -1.701237,-1.60546 -4.919297,-0.43294 -4.8795,1.77784 -9.16322,0.76246 -13.2419,-3.13877 -2.24514,-2.14745 -3.16048,-3.54693 -4.03726,-6.17273 -1.7835,-5.34114 -1.69308,-5.47974 2.3014,-3.52834 4.59222,2.24338 10.16658,2.4334 12.92904,0.44072 1.82192,-1.31423 3.51714,-4.11341 4.17976,-6.9017 0.4245,-1.78622 -0.014,-1.88272 -3.23032,-0.71087 -3.11374,1.13449 -8.32158,1.0426 -11.01414,-0.19429 -4.10568,-1.88614 -7.76054,-7.24932 -9.2694,-13.60207 -0.20682,-0.87067 -0.1798,-1.48328 0.0602,-1.36132 4.4098,2.24177 6.42276,2.91218 9.34974,3.11397 2.95548,0.20373 3.75536,0.0351 5.92098,-1.24846 2.3717,-1.40568 5.7461,-5.53035 5.07756,-6.2065 -0.171,-0.17283 -2.12918,-0.018 -4.35166,0.34496 -2.98736,0.48738 -4.62624,0.49985 -6.28612,0.0477 -2.55144,-0.69482 -6.72292,-3.71781 -8.3821,-6.07437 -1.26266,-1.79336 -3.69276,-8.84465 -3.21476,-9.32808 0.1718,-0.17383 1.5068,0.39389 2.96648,1.2616 2.25464,1.34031 3.2523,1.57768 6.63078,1.57768 3.9379,0 3.99942,-0.0229 6.28372,-2.33305 2.10088,-2.12475 2.32822,-2.63156 2.54596,-5.67581 l 0.23908,-3.34272 2.01018,1.03716 c 2.93722,1.51545 7.966497,2.34893 12.976017,2.15045 l 4.397133,-0.17423 0,-12.139669 0,-12.139658 2.19856,0.33582 c 1.20922,0.184661 4.05362,1.250045 6.3209,2.367398 5.5069,2.713945 10.07708,7.361869 12.74314,12.959969 1.93984,4.07314 7.45812,20.83891 11.98404,36.41012 2.329,8.01281 7.13474,20.80161 10.02656,26.68225 2.92758,5.95334 6.88214,10.64046 12.79034,15.15968 6.2507,4.78121 10.42772,6.88315 16.91478,8.51182 5.04562,1.26676 18.2956,2.04866 19.57916,1.15539 1.47552,-1.02691 0.1312,-2.12955 -4.14828,-3.40225 -10.0854,-2.9994 -18.3689,-7.38029 -21.2181,-11.22157 -2.76564,-3.72861 -3.92556,-6.70769 -3.90372,-10.02617 0.0444,-6.73544 2.8302,-7.67475 9.86478,-3.32614 2.3911,1.47814 7.85668,4.8551 12.14574,7.50439 7.51798,4.64373 10.61474,5.81303 10.61474,4.00804 0,-0.44488 -2.04054,-2.36714 -4.53454,-4.27172 -11.74416,-8.96862 -23.80148,-20.782 -25.79744,-25.27553 -1.4985,-3.37358 -1.5984,-7.68965 -0.2789,-12.05167 1.5191,-5.02198 3.63778,-6.40592 7.25504,-4.73909 0.81768,0.3768 3.82284,4.00598 7.01958,8.47717 5.23024,7.31545 13.44358,17.54974 18.431,22.96606 2.14234,2.32658 4.50098,3.1518 4.50098,1.57478 0,-0.43325 -2.372,-3.95355 -5.27112,-7.82288 -7.32508,-9.77648 -14.55162,-21.08465 -18.25526,-28.56596 l -3.1313,-6.32521 0,-6.73796 c 0,-6.29669 0.1002,-6.93037 1.53034,-9.67545 2.41994,-4.645 7.53908,-9.013964 10.56176,-9.013964 1.5711,0 3.9837,3.184564 5.1709,6.825494 0.62022,1.90207 1.76444,6.2099 2.54274,9.57297 1.79006,7.73496 3.19558,12.45752 5.79038,19.4558 2.58854,6.98137 7.9061,19.46458 9.03126,21.2013 0.83922,1.29534 3.02316,1.83816 3.02316,0.7514 0,-0.30823 -1.22382,-3.50294 -2.71958,-7.09937 -5.9979,-14.42135 -9.75354,-27.2651 -12.1209,-41.45183 -2.25658,-13.522771 -1.30036,-18.552064 4.5929,-24.156616 5.25988,-5.002205 11.07356,-6.650406 15.05914,-4.269353 3.13756,1.874426 3.44168,3.298346 4.00756,18.763649 0.61208,16.72829 1.27172,25.87756 2.75718,38.24267 1.32034,10.99054 1.65394,12.40965 2.97784,12.66761 1.11876,0.21801 1.12686,0.74577 -0.30168,-19.65237 -0.36488,-5.2101 -0.53084,-16.9528 -0.40066,-28.34988 0.23922,-20.944742 0.37332,-21.953764 3.35076,-25.212511 2.60868,-2.855138 8.73228,-5.638837 12.40436,-5.638837 2.62068,0 6.04978,2.182556 7.58112,4.825263 1.39576,2.408722 1.43438,2.709474 1.11738,8.701714 -0.1806,3.413715 -1.58334,16.462761 -3.11722,28.997841 -2.14522,17.53105 -2.75376,24.20078 -2.63668,28.89911 0.131,5.25327 0.28408,6.13357 1.09444,6.29058 1.19462,0.23146 1.27094,-0.1201 2.6319,-12.12066 0.60678,-5.35035 1.73472,-13.473 2.50654,-18.05034 1.49782,-8.88287 6.43794,-33.627899 7.41866,-37.16011 0.7276,-2.620531 3.72198,-6.057423 6.39528,-7.340371 2.96914,-1.424942 8.06218,-0.813674 12.31332,1.477875 4.41072,2.377564 5.64172,4.217323 5.89864,8.815639 0.1912,3.422777 -0.23582,4.987228 -7.36274,26.972617 -8.86816,27.35693 -12.3308,38.76964 -12.3308,40.64193 0,1.60984 1.43628,2.34297 2.46108,1.2562 0.39978,-0.42398 3.8734,-9.40091 7.71914,-19.94872 11.35564,-31.14538 14.97514,-39.944242 17.469,-42.466408 4.80568,-4.86021 13.70694,-1.498326 17.50688,6.612131 1.38028,2.946027 1.56272,3.959677 1.5631,8.685237 2.8e-4,3.37722 -0.30898,6.23689 -0.83872,7.75531 -1.17192,3.35932 -5.72154,10.73235 -19.59428,31.75419 -6.59752,9.99745 -11.99548,18.69002 -11.99548,19.31683 0,1.93413 1.97548,1.32886 3.99118,-1.22286 1.0264,-1.29937 3.93076,-5.36425 6.4541,-9.03304 5.62128,-8.17305 9.3753,-12.92642 17.41504,-22.05103 8.46066,-9.60233 10.7192,-10.29111 14.41612,-4.39643 3.87736,6.1824 3.5446,13.79958 -1.00966,23.11216 -2.87398,5.87675 -5.07636,7.96319 -19.58518,18.55406 -11.0055,8.03359 -13.84208,10.62964 -11.6145,10.62964 0.44208,0 4.10846,-2.04024 8.14754,-4.53386 12.56648,-7.75829 16.58866,-10.04184 19.58398,-11.11867 2.61076,-0.93857 3.05138,-0.96012 4.46908,-0.21869 5.07574,2.65456 7.04552,11.06097 4.07706,17.3996 -1.37552,2.93714 -4.83368,6.23268 -8.69424,8.28541 -1.81382,0.96443 -7.93546,3.30593 -13.60366,5.20331 -6.79346,2.27407 -10.3058,3.71304 -10.3058,4.2222 0,1.22336 2.88228,0.94955 12.18,-1.157 14.33508,-3.24788 16.82486,-3.17754 18.35176,0.5183 1.7532,4.24361 0.64458,9.02238 -3.09144,13.32573 -4.10498,4.72839 -8.5571,5.84955 -17.7305,4.46507 -3.37542,-0.50944 -7.00282,-1.05073 -8.0609,-1.20287 l -1.92374,-0.27665 -1.24844,6.45129 c -3.63176,18.76701 -9.68482,30.10594 -23.48126,43.98642 l -8.3096,8.36022 0.65382,2.59204 c 0.3596,1.42563 1.08556,5.48058 1.61326,9.01105 l 0.95944,6.41899 1.71496,0.0501 1.71496,0.0501 c 4.44122,0.26223 7.13112,0.75735 9.8605,1.56575 0.97496,-0.01 5.06988,2.03144 6.35222,3.6054 0.77384,0.94981 0.70866,0.98867 -1.0993,0.65487 -5.3766,-0.99266 -10.24504,-1.04072 -13.73434,-0.13553 -1.96226,0.50903 -3.73172,1.10283 -3.93212,1.31959 -0.20038,0.21675 -0.63018,2.89554 -0.95512,5.95289 -1.09746,10.32629 -3.58218,16.89868 -8.40718,22.23791 -3.28098,3.63064 -5.95496,5.58721 -11.44238,8.37239 -2.87108,1.45727 -4.13216,1.84518 -4.5674,1.40499 -0.33072,-0.33445 -1.39154,-0.6081 -2.35742,-0.6081 -1.6683,0 -2.88642,0.88002 -4.75874,3.43792 -0.63476,0.86719 -0.86838,0.83821 -3.15884,-0.3918 z m -58.5628,-16.42518 c 4.93534,-1.86751 11.29352,-7.38368 11.29352,-9.79796 0,-1.34747 -1.25458,-0.73854 -4.11464,1.9971 -3.27844,3.13577 -7.3104,5.36312 -11.25858,6.21946 -2.9482,0.63946 -3.9226,1.44441 -2.698,2.22886 1.24004,0.79434 3.55072,0.57361 6.7777,-0.64746 z m 63.42626,-4.45115 c 4.07342,-1.41893 8.17522,-4.20134 10.04802,-6.816 2.64996,-3.69969 1.67422,-4.36966 -1.77458,-1.21851 -3.30382,3.01867 -8.84142,5.57095 -16.29734,7.51144 -1.2848,0.3344 -2.33598,0.83108 -2.33598,1.10376 0,1.35419 5.72678,1.0332 10.35988,-0.58069 z m -65.88386,-5.31088 c 2.79964,-1.17728 6.05614,-3.57042 6.05614,-4.45056 0,-1.09272 -1.28128,-0.93278 -2.9105,0.36332 -2.29696,1.82729 -6.00424,3.29979 -8.35718,3.3194 -4.81868,0.0403 -7.91312,1.12317 -5.35902,1.87557 1.61952,0.47709 8.52186,-0.24623 10.57056,-1.10773 z m 45.67516,-32.74779 c 4.1174,-2.11011 6.00132,-5.39362 6.00132,-10.45979 0,-3.14482 -0.26256,-4.32557 -1.39728,-6.28379 -1.3166,-2.27212 -3.53058,-3.50009 -2.78962,-1.54724 0.1804,0.47524 0.56922,2.41387 0.86422,4.30807 0.6089,3.90983 0.097,7.05696 -1.5029,9.23769 -0.99128,1.35124 -5.53668,4.02907 -9.19032,5.41428 -1.52664,0.5788 -1.39282,0.62955 1.80462,0.68429 2.68856,0.0461 4.0641,-0.25378 6.20996,-1.35351 z m -24.79052,-4.44621 c 1.35136,-0.91786 3.0437,-2.53911 3.7608,-3.60277 1.1495,-1.70502 1.27504,-2.40698 1.06064,-5.93095 -0.22934,-3.76988 -1.38022,-6.84262 -2.56288,-6.84262 -0.26188,0 -0.34516,2.12345 -0.185,4.71877 0.27172,4.40451 0.196,4.86424 -1.13786,6.9026 -1.35404,2.06931 -2.57062,2.83254 -9.71808,6.09662 -1.15278,0.52646 -0.75404,0.60335 2.47568,0.47737 3.22352,-0.12571 4.2495,-0.42165 6.30676,-1.81902 l 0,0 z m -28.51418,-7.00201 c 4.27132,-1.44375 7.05774,-5.84543 7.07788,-11.18095 0.016,-4.25331 -1.20518,-4.35655 -2.12936,-0.18005 -0.77372,3.49662 -3.17424,7.1349 -5.51542,8.3593 -1.1175,0.58444 -3.2118,0.85377 -6.639,0.85377 -5.47694,0 -6.00786,0.57446 -1.75416,1.89801 3.1833,0.99049 6.4956,1.08286 8.96006,0.24988 l 0,0 z m 86.6913,-12.38398 c 2.81862,-0.42805 5.23628,-0.89105 5.37258,-1.02889 0.1362,-0.13794 -5.38526,-0.22362 -12.27012,-0.19068 -8.20262,0.0393 -13.93902,-0.19368 -16.64024,-0.67589 -6.595,-1.17736 -17.8264,-4.26251 -25.67838,-7.05361 -8.60328,-3.05815 -11.06956,-3.10566 -5.25622,-0.10125 15.29406,7.9041 37.60782,11.61141 54.47238,9.05028 z M 135.41034,241.7048 c 2.88172,-1.65071 5.15414,-5.03338 5.59212,-8.32433 0.44284,-3.3274 -0.44142,-3.49987 -2.00922,-0.39186 -1.66442,3.29955 -4.73246,6.49197 -6.95052,7.2323 -2.37474,0.79264 -5.41604,0.35373 -8.6876,-1.25377 -2.71954,-1.33624 -3.74492,-1.0454 -2.24074,0.63557 3.05046,3.40898 10.1835,4.45782 14.29596,2.10209 z m 119.29534,-3.04511 c 0.90746,-0.54434 0.27404,-0.66236 -3.63028,-0.67631 -15.042,-0.0537 -29.01148,-2.30148 -43.49142,-6.99788 -8.58436,-2.78422 -10.13388,-2.44697 -3.49434,0.76052 6.00646,2.9017 13.90346,5.09973 24.508,6.82152 7.33704,1.19126 24.1766,1.2507 26.10804,0.0922 z m -92.98814,-0.17745 c 5.82746,-1.63655 8.65868,-7.67418 6.9038,-14.7225 -0.99456,-3.99455 -1.98726,-3.13019 -2.2144,1.9281 -0.1762,3.92289 -0.37876,4.62428 -1.87634,6.49562 -2.56586,3.20617 -4.11086,4.12373 -8.11014,4.81654 -2.02044,0.35001 -3.6735,0.81738 -3.6735,1.03862 0,1.035 5.83692,1.32368 8.97058,0.44362 z m 98.75938,-13.34815 c 0.53078,-0.30576 -0.29064,-0.48096 -2.30604,-0.49185 -4.74198,-0.0257 -16.56092,-1.08685 -22.42788,-2.01387 -5.18602,-0.81941 -18.65852,-4.0558 -21.61348,-5.19202 -3.80266,-1.46218 -4.25764,-0.11128 -0.50964,1.51308 11.31148,4.90254 26.60422,7.4569 41.0858,6.8626 2.72072,-0.11168 5.31778,-0.41672 5.77124,-0.67794 z m -117.79994,-6.16048 c 2.41586,-1.46658 4.0239,-5.05387 4.0239,-8.97666 0,-2.43809 -0.1884,-3.15978 -0.82446,-3.15978 -0.45346,0 -0.82584,0.43776 -0.82754,0.97279 -0.012,3.91716 -3.58716,9.08391 -6.85982,9.91461 -1.0271,0.26071 -2.97916,-0.0225 -5.6649,-0.82149 -4.29498,-1.27796 -5.14626,-1.22589 -3.94244,0.2411 2.67382,3.25831 10.14436,4.22793 14.09526,1.82943 z m 45.64134,-3.74829 c 2.28906,-1.67699 4.55254,-5.55723 4.55254,-7.80431 0,-3.81225 -3.2108,-8.92202 -5.6063,-8.92202 -0.89026,0 -0.81822,0.34544 0.65398,3.13558 3.21294,6.08924 1.56768,10.377 -5.21606,13.59368 l -3.29786,1.56375 3.3528,0.0255 c 2.85264,0.0217 3.6822,-0.21582 5.5609,-1.59218 l 0,-2e-5 z M 166.383,212.45016 c 4.05228,-2.09078 5.58682,-7.29592 3.61802,-12.2723 -1.38468,-3.49991 -2.34074,-2.91017 -2.01128,1.24065 0.48692,6.13507 -1.50498,8.82343 -7.96708,10.75276 -1.73014,0.51655 -2.74912,1.0986 -2.53542,1.44828 0.56048,0.91715 6.31882,0.1602 8.89576,-1.16939 z m 97.6666,-0.0519 c 5.8392,-0.54831 11.73222,-1.89146 12.64178,-2.88138 0.39064,-0.42514 -0.40436,-0.48603 -2.74822,-0.21047 -10.3425,1.21594 -13.67616,1.35245 -20.6116,0.84395 -8.55104,-0.62692 -14.14282,-1.57646 -23.22474,-3.94377 -3.55336,-0.92622 -6.76878,-1.56678 -7.14536,-1.42346 -1.19032,0.45301 5.67464,3.23402 11.95708,4.84385 6.21948,1.59368 14.521,2.79178 22.26052,3.21267 0.75576,0.0411 3.8475,-0.1576 6.87054,-0.44139 z M 118.67488,209.2467 c 1.54124,-0.92079 2.74244,-2.8398 2.74244,-4.38134 0,-1.1296 -0.33348,-1.02931 -2.64304,0.79485 -3.30514,2.61053 -4.70546,2.66298 -8.46356,0.31701 -3.5715,-2.22945 -4.53874,-2.16978 -2.82194,0.17424 2.78112,3.79699 7.72274,5.16439 11.1861,3.09534 z m 26.51982,-12.71174 c 2.10464,-1.54422 3.70476,-5.11341 3.70476,-8.26372 0,-3.47529 -0.97672,-3.14988 -2.29204,0.76359 -2.05768,6.12232 -5.1849,7.6005 -12.27312,5.80128 -2.0307,-0.51547 -1.66912,0.4876 0.68668,1.90492 2.63778,1.58695 7.87456,1.48088 10.17372,-0.20607 z m 107.29178,-0.39856 c -0.8127,-2.75074 -2.32046,-4.64616 -4.64298,-5.83673 -4.70094,-2.40981 -9.15366,-1.25899 -12.58634,3.25301 -2.44104,3.20854 -1.16016,3.62025 2.49108,0.80068 1.42258,-1.09854 3.1835,-2.14889 3.91312,-2.33409 2.16736,-0.55014 5.69146,0.86287 7.79868,3.12693 2.27452,2.44383 3.58232,2.87172 3.02644,0.9902 z m -25.79756,-1.94556 c -0.90354,-4.92873 -4.5622,-7.88482 -9.78884,-7.9091 -3.15182,-0.014 -5.69224,0.99279 -7.49832,2.9735 -1.11394,1.22163 -1.17866,1.46133 -0.3946,1.46133 0.51588,0 1.85752,-0.39408 2.98144,-0.87573 4.78024,-2.04856 8.82694,-0.78276 12.21088,3.81955 1.0575,1.43824 2.13622,2.615 2.39716,2.615 0.26092,0 0.30246,-0.93807 0.0922,-2.08455 l 0,0 z m 38.73478,-2.36251 c 2.36264,-2.5855 2.72212,-2.77939 5.15354,-2.77939 3.02552,0 4.05396,0.47381 7.62868,3.51457 1.4376,1.22287 2.75438,2.08126 2.92616,1.90755 0.51604,-0.52191 -1.2017,-3.36054 -3.1571,-5.21721 -4.87208,-4.62608 -12.71322,-3.38406 -15.0994,2.3917 -1.58034,3.82523 -0.82952,3.87908 2.54812,0.18286 z m -145.1453,-3.67798 c 1.63368,-0.97598 3.06004,-2.90257 2.53904,-3.42949 -0.1788,-0.18065 -1.43918,0.21883 -2.801,0.88796 -3.2039,1.57424 -4.73646,1.5349 -6.74352,-0.17303 -0.89818,-0.76435 -1.9065,-1.38972 -2.24076,-1.38972 -1.52292,0 0.2137,3.13324 2.41534,4.35774 1.62278,0.90253 5.11272,0.77309 6.8309,-0.25339 l 0,0 z m 134.51354,-10.067 c -0.39736,-2.47639 -1.73808,-4.43106 -4.203,-6.12772 -1.41712,-0.97544 -2.59158,-1.25073 -5.33576,-1.25073 -4.12368,0 -6.11352,0.88201 -8.18432,3.62777 -1.72336,2.28509 -1.35364,3.14601 0.76646,1.78472 3.6019,-2.31276 6.3217,-3.30664 8.20356,-2.99779 2.3563,0.38672 5.16124,2.50123 6.73578,5.07777 1.57944,2.5846 2.44246,2.53582 2.01728,-0.11408 z m 26.5714,0.38602 c 0,-1.36088 -1.83932,-4.84788 -3.43874,-6.51918 -4.1914,-4.37978 -12.34526,-3.62564 -15.08486,1.39519 -2.54276,4.66009 -1.87868,6.19092 1.24444,2.86869 2.23474,-2.3772 4.17044,-3.28565 7.00102,-3.28565 2.67768,0 5.98492,1.99407 7.7014,4.64347 0.93828,1.44824 2.57674,2.01893 2.57674,0.89748 z m -54.41462,-0.36252 c 0,-0.20921 -0.51224,-1.45051 -1.13828,-2.75844 -1.62248,-3.38961 -4.01652,-4.7215 -8.53426,-4.74785 -3.14546,-0.018 -3.93586,0.19449 -5.83236,1.57023 -2.28218,1.65555 -4.22432,4.33678 -3.59926,4.96894 0.1986,0.20078 1.88566,-0.66462 3.74914,-1.92313 4.9639,-3.35238 8.48386,-2.97702 12.62738,1.34651 1.75264,1.82879 2.72764,2.38059 2.72764,1.54374 z M 108.2072,173.62242 c 1.96644,-1.00327 3.51302,-3.17161 4.1624,-5.83589 0.55604,-2.28129 -0.47814,-1.9108 -3.49126,1.25072 -3.16314,3.31896 -4.85024,3.56363 -8.962879,1.29985 -3.099014,-1.70584 -4.012054,-1.39035 -2.089134,0.72189 3.217413,3.53419 6.762293,4.40954 10.380873,2.56343 z m 21.61304,-6.77977 c 1.74448,-1.54904 3.69452,-5.76762 2.99374,-6.47638 -0.178,-0.18005 -1.3929,0.80139 -2.69984,2.18084 -2.96638,3.13102 -4.76482,3.64361 -8.31264,2.36924 -2.9278,-1.05167 -3.71138,-0.87024 -2.52366,0.58434 2.72564,3.33803 7.5963,3.95802 10.5424,1.34196 z m 134.20372,-6.28257 c -1.682,-5.61694 -7.79364,-8.55956 -13.11098,-6.31262 -1.91092,0.8075 -4.32862,3.60519 -4.97484,5.75675 -0.5291,1.76162 0.36334,1.57871 3.27892,-0.67204 4.32926,-3.34212 8.26932,-3.16092 11.81954,0.54354 2.16636,2.26047 3.55456,2.5785 2.98736,0.68437 z m -37.79642,-1.63118 c 2.1058,-2.09014 2.66536,-2.34893 5.51724,-2.55168 2.85828,-0.20317 3.40548,-0.0549 5.50498,1.49223 3.58648,2.64283 4.55288,2.03946 2.22846,-1.3913 -1.80396,-2.66257 -4.0779,-3.80595 -7.58514,-3.81393 -3.8986,-0.008 -6.63806,1.62614 -8.20322,4.89602 -2.10586,4.3995 -1.07566,4.95511 2.53768,1.36866 z m -113.74438,-4.64367 c 3.2748,-1.38382 4.14554,-2.40293 5.32512,-6.23244 0.6169,-2.00275 -0.69296,-1.50815 -3.19516,1.2065 -2.83532,3.07607 -4.60096,3.57102 -8.14318,2.2828 -1.4821,-0.539 -2.85016,-0.82281 -3.04014,-0.63069 -0.52182,0.52774 2.58358,3.58283 3.90992,3.84659 2.27218,0.45183 3.14536,0.37157 5.14344,-0.47276 z m -12.41468,-14.70961 c 1.4396,0 4.30992,-2.93317 4.30992,-4.40429 0,-1.59513 -0.89724,-1.44437 -2.78872,0.46857 -2.124591,2.14871 -4.233733,2.57445 -6.747653,1.36202 -2.46468,-1.18865 -3.1582,-0.64796 -1.48262,1.15587 1.21346,1.30633 3.34938,2.01077 4.88046,1.60963 0.402602,-0.10547 1.225502,-0.19188 1.828613,-0.19188 z m 20.38696,-5.57656 c 1.6196,-1.78665 1.97596,-3.31752 0.77224,-3.31752 -0.4066,0 -1.17852,0.49087 -1.71538,1.09083 -0.53688,0.59996 -1.8097,1.36906 -2.8285,1.70911 -1.58588,0.52933 -2.2084,0.43848 -4.3268,-0.63152 -2.8575,-1.4433 -3.50614,-1.19378 -2.18754,0.84149 1.94256,2.99837 7.69096,3.17026 10.28598,0.30761 z m -5.69196,-23.83016 c 1.8484,-1.74628 2.24578,-4.10795 1.06764,-6.34512 -1.04106,-1.97684 -2.22186,-2.5675 -5.17014,-2.58621 -2.36314,-0.014 -2.98826,0.21458 -4.11448,1.511 -1.9672,2.26448 -1.87366,5.88882 0.1986,7.69147 2.27906,1.98262 5.75738,1.86498 8.01846,-0.27114 l 0,0 z"
     id="path3019"
     inkscape:connector-curvature="0"
     sodipodi:nodetypes="cscccsssscscscsccccsscsccccsssscssccccccccsssssscssccccsscscsccccssccssccscsssssssssssscccsscccsccssscssccccsssssscsscsssssscssssscsssssssssssssscssssssscsssssscsscsssscssssssssssssssssssssccsscssccccssssssscsscccsssscssssssscsscssccsscscsscccsssccsssccccsssssccccssssccssssssscssssccsscssssccsscscccsscscscccsssssscccsssscscssscsssccccssccccssssccsssssssccscssscccccscssccccscssccccscsssscccsssssccsscccssscsssscccsssccsssscscccsccccsssscsscssssscccscss" />
  <path
     style="fill:#000000;fill-opacity:1"
     d="m 93.690107,108.80732 c -2.5579,-2.51044 -4.865557,-4.56899 -5.128157,-4.57452 -0.26258,-0.006 -0.33208,-0.44688 -0.1544,-0.98079 0.36844,-1.10745 -4.10386,-12.154153 -7.14412,-17.646202 -1.11854,-2.020592 -3.11522,-4.362707 -4.4371,-5.204733 l -2.40338,-1.530907 2.62666,0.479218 c 5.83066,1.06384 10.20234,5.405574 14.612297,14.512143 2.64102,5.453765 7.173942,17.854321 6.882682,18.828691 -0.112,0.37486 -2.296522,-1.37245 -4.854402,-3.8829 z"
     id="path3021"
     inkscape:connector-curvature="0" />
  <path
     style="fill:#000000;fill-opacity:1"
     d="m 88.80573,110.87138 c -1.75626,-0.45626 -3.38668,-0.84147 -3.62318,-0.85596 -1.63242,-0.10005 -4.90448,-4.14436 -8.5386,-10.553686 -2.33416,-4.116614 -4.13954,-7.582483 -4.01192,-7.701842 0.57206,-0.535238 15.08372,8.390628 19.840577,12.203558 2.90076,2.32513 5.48966,4.22875 5.7531,4.23027 2.514873,0.014 -6.38416,-18.618851 -11.369897,-23.807081 -3.50338,-3.645675 -5.69298,-4.85578 -10.44304,-5.771269 l -3.45194,-0.665343 3.45194,-1.435509 c 4.24388,-1.764852 11.29988,-2.001443 14.308897,-0.479839 2.88082,1.456822 10.112853,8.561524 10.980513,10.787208 0.4863,1.247418 0.77532,6.119438 0.7983,13.457513 l 0.036,11.50221 -5.268773,-0.0401 c -2.89786,-0.0222 -6.70576,-0.41363 -8.462037,-0.86989 z"
     id="path3023-7-4"
     inkscape:connector-curvature="0" />
  <path
     style="fill:#000000;fill-opacity:1"
     d="m 88.21003,107.85532 c -3.02402,-0.21001 -4.67412,-0.50831 -8.83704,-1.59756 -2.18122,-0.57072 -5.62804,-5.23921 -10.55216,-14.292294 -0.94926,-1.745222 -1.72592,-3.292311 -1.72592,-3.437974 0,-0.479339 4.65128,2.127658 11.11914,6.232158 4.1487,2.63279 5.35146,3.474185 9.82752,6.87508 l 3.537897,2.68806 0,1.88216 c 0,1.81183 -0.018,1.8809 -0.50542,1.84816 -0.27796,-0.018 -1.566777,-0.10767 -2.864017,-0.19789 z"
     id="path3117"
     inkscape:connector-curvature="0" />
  <path
     style="fill:#000000;fill-opacity:1"
     d="m 96.947407,101.21961 c -1.64856,-2.883655 -5.41392,-8.041231 -8.464837,-11.594614 -2.46962,-2.876351 -5.18616,-5.41975 -7.2537,-6.791439 -4.18332,-2.775379 -5.30674,-3.056321 -13.05768,-3.265444 -0.48264,-0.01203 -0.30264,-0.197092 1.11938,-1.143961 2.67916,-1.78412 4.49638,-2.92018 7.80492,-3.374916 5.44522,-0.748412 6.98686,-1.529685 12.3929,0.753183 3.124497,1.319419 5.842717,5.45199 6.766777,6.502637 1.11486,1.267609 1.65334,3.043549 3.384142,11.161383 l 1.561431,7.323431 -2.023431,0.39545 c -1.730102,0.33811 -2.053362,0.34308 -2.229902,0.0343 z"
     id="path3139"
     inkscape:connector-curvature="0"
     sodipodi:nodetypes="cssccsssscsc" />
  <path
     style="fill:#ff1a3d;fill-opacity:1"
     d="m 87.04543,111.54548 c -1.75626,-0.45626 -3.38668,-0.84146 -3.62318,-0.85596 -1.63242,-0.10005 -4.90448,-4.14436 -8.5386,-10.55368 -2.33416,-4.116621 -4.13954,-7.582484 -4.01192,-7.701843 0.57206,-0.535238 15.08372,8.390623 19.840577,12.203553 2.90076,2.32514 5.48966,4.22875 5.7531,4.23028 2.514882,0.014 -6.384157,-18.618856 -11.369897,-23.807086 -3.50338,-3.645674 -5.69298,-4.85578 -10.44304,-5.771268 l -3.45194,-0.665344 3.45194,-1.435508 c 4.24388,-1.764853 11.29988,-2.001444 14.3089,-0.47984 2.880817,1.456822 10.112859,8.561524 10.980511,10.787208 0.486299,1.247419 0.775319,6.119437 0.798299,13.457508 l 0.036,11.50222 -5.268773,-0.0401 c -2.89786,-0.0223 -6.705757,-0.41364 -8.462037,-0.8699 z"
     id="path3023"
     inkscape:connector-curvature="0" />
  <path
     style="fill:#ff1a3d;fill-opacity:1"
     d="m 150.6982,328.63515 c -0.1368,-0.23006 1.2805,-2.90908 2.12972,-4.02583 0.91724,-1.20621 1.92986,-2.09844 3.25864,-2.87124 l 1.32872,-0.39984 1.24246,-0.5071 c 2.28634,-0.33857 2.28328,1.55677 2.28328,3.48784 l -0.0596,3.36838 -1.53306,-0.83936 c -0.98404,-0.52942 -1.531,-0.48808 -2.40372,-0.54061 -1.70568,-0.10266 -2.96032,0.32599 -4.8642,1.66191 -1.1049,0.7753 -1.26992,0.85478 -1.38226,0.66579 z"
     id="path3170"
     inkscape:connector-curvature="0"
     sodipodi:nodetypes="csscccccsscc" />
  <path
     style="fill:#ff1a3d;fill-opacity:1"
     d="m 140.83582,317.80557 c -0.1204,-0.25225 1.88494,-2.78416 3.01356,-3.80475 1.21902,-1.10235 2.49914,-1.8727 4.11944,-2.47902 l 1.5645,-0.22728 1.48284,-0.34789 c 2.63982,-0.0359 2.35306,1.89014 2.06442,3.85289 l -0.2135,2.57953 c -1.6787,-0.97149 -2.99682,-0.90126 -4.60944,-1.09729 -1.91628,-0.33429 -3.40118,-0.0678 -5.75692,1.03343 -1.36714,0.63903 -1.56592,0.69756 -1.6649,0.49032 z"
     id="path3170-8"
     inkscape:connector-curvature="0"
     sodipodi:nodetypes="csscccccscc" />
  <path
     style="fill:#ff1a3d;fill-opacity:1"
     d="m 141.23054,307.16579 c -0.1296,-0.17564 1.78038,-2.10217 2.87012,-2.89509 1.17702,-0.85649 2.42722,-1.47688 4.0232,-1.99648 l 1.55412,-0.24372 1.46816,-0.3264 c 2.63506,-0.1606 2.4193,1.24156 2.20302,2.67038 l -0.1186,1.86935 c -1.71214,-0.61418 -3.02598,-0.49624 -4.6437,-0.55509 -1.92604,-0.14296 -3.39924,0.12491 -5.71154,1.03864 -1.34194,0.53022 -1.53832,0.58255 -1.64476,0.43831 z"
     id="path3170-8-2"
     inkscape:connector-curvature="0"
     sodipodi:nodetypes="csscccccscc" />
  <path
     style="fill:#ff1a3d;fill-opacity:1"
     d="m 218.3443,332.20236 c -0.083,-0.25451 1.88568,-2.55675 2.95852,-3.4596 1.15876,-0.97522 2.3419,-1.6231 3.8074,-2.08496 l 1.57474,-0.54462 1.2277,-0.34919 c 2.30474,0.17223 2.23714,2.72259 1.81474,4.60666 l -0.3177,3.20948 -1.72576,-1.06027 c -0.84428,-0.73287 -1.89604,-0.97227 -2.73604,-1.21538 -1.6417,-0.47515 -3.65084,-0.33277 -5.8006,0.55208 -1.2476,0.51352 -0.73474,0.55479 -0.803,0.34568 z"
     id="path3170-4"
     inkscape:connector-curvature="0"
     sodipodi:nodetypes="csscccccsscc" />
  <path
     style="fill:#ff1a3d;fill-opacity:1"
     d="m 208.13578,320.07021 c -0.0508,-0.27498 2.54268,-2.19651 3.89734,-2.88751 1.46318,-0.74637 2.89914,-1.15621 4.62102,-1.31894 l 1.5696,0.18867 1.52204,0.0509 c 2.55818,0.65401 1.78136,2.43887 0.9932,4.2587 l -0.62118,2.05219 c -1.3687,-1.37596 -2.15056,-1.39683 -3.65674,-2.00679 -1.76348,-0.8227 -4.03004,-0.82513 -6.59046,-0.37644 -1.48592,0.26037 -1.69304,0.26502 -1.7348,0.0391 z"
     id="path3170-8-5"
     inkscape:connector-curvature="0"
     sodipodi:nodetypes="csscccccscc" />
  <path
     style="fill:#ff1a3d;fill-opacity:1"
     d="m 207.07988,310.81929 c -0.0928,-0.20333 1.56638,-2.17093 2.49336,-2.95677 1.00124,-0.84881 2.04614,-1.43221 3.36248,-1.87744 l 1.26498,-0.14516 1.20118,-0.24289 c 2.12856,0.0317 1.86494,1.55653 1.5992,3.11064 l -0.85194,2.93941 c -1.33682,-0.81069 -1.7642,-1.55038 -3.06082,-1.74298 -1.53908,-0.30941 -2.48602,0.12391 -4.65808,0.56311 -1.1864,0.23992 -1.27406,0.51903 -1.35034,0.352 z"
     id="path3170-8-51"
     inkscape:connector-curvature="0"
     sodipodi:nodetypes="csscccccscc" />
  <path
     style="fill:#ff1a3d;fill-opacity:1"
     d="m 205.24508,299.28331 c 0.128,-0.15579 -1.79874,-1.8698 -2.8953,-2.57596 -1.18438,-0.76271 -2.4398,-1.31603 -4.03998,-1.78057 l -1.55588,-0.21955 -1.47068,-0.29277 c -2.63578,-0.14818 -2.4075,1.0972 -2.17846,2.36605 l 0.1354,1.65973 c 1.70616,-0.54171 3.0207,-0.43433 4.63744,-0.48323 1.92422,-0.12291 3.39942,0.1179 5.71928,0.93374 1.34632,0.47344 1.5431,0.5203 1.64822,0.39244 z"
     id="path3170-8-7"
     inkscape:connector-curvature="0"
     sodipodi:nodetypes="csscccccscc" />
  <path
     style="fill:#ff1a3d;fill-opacity:1"
     d="m 276.40228,290.32218 c 0.091,-0.18005 -2.16224,-1.43145 -3.38602,-1.88086 -1.3218,-0.48537 -2.66738,-0.75087 -4.33012,-0.85433 l -1.56618,0.12591 -1.49896,0.0359 c -2.60456,0.43172 -2.11082,1.59719 -1.61124,2.78542 l 0.49322,1.59016 c 1.54722,-0.90173 2.85346,-1.08435 4.42064,-1.48559 1.85116,-0.54068 3.34322,-0.62823 5.78474,-0.33929 1.4169,0.16762 1.61914,0.17042 1.69392,0.0226 z"
     id="path3170-8-7-1"
     inkscape:connector-curvature="0"
     sodipodi:nodetypes="csscccccscc" />
</svg>
