<?xml version="1.0" encoding="UTF-8" standalone="no"?>
<svg
   xmlns:dc="http://purl.org/dc/elements/1.1/"
   xmlns:cc="http://creativecommons.org/ns#"
   xmlns:rdf="http://www.w3.org/1999/02/22-rdf-syntax-ns#"
   xmlns:svg="http://www.w3.org/2000/svg"
   xmlns="http://www.w3.org/2000/svg"
   xmlns:sodipodi="http://sodipodi.sourceforge.net/DTD/sodipodi-0.dtd"
   xmlns:inkscape="http://www.inkscape.org/namespaces/inkscape"
   sodipodi:docname="svg.svg"
   xml:space="preserve"
   height="600"
   width="840.00006"
   inkscape:version="1.0 (4035a4fb49, 2020-05-01)"
   version="1.1"
   id="svg2"><metadata
     id="metadata8"><rdf:RDF><cc:Work
         rdf:about=""><dc:format>image/svg+xml</dc:format><dc:type
           rdf:resource="http://purl.org/dc/dcmitype/StillImage" /><dc:title></dc:title></cc:Work></rdf:RDF></metadata><defs
     id="defs6"><clipPath
       clipPathUnits="userSpaceOnUse"
       id="clipPath16-5-8-0"><path
         d="M 0,191.608 H 186.695 V 0 H 0 Z"
         id="path18-0-2-0"
         inkscape:connector-curvature="0" /></clipPath></defs><sodipodi:namedview
     inkscape:document-rotation="0"
     inkscape:showpageshadow="false"
     fit-margin-bottom="0"
     fit-margin-right="0"
     fit-margin-left="0"
     fit-margin-top="0"
     inkscape:current-layer="svg2"
     inkscape:window-maximized="1"
     inkscape:window-y="-8"
     inkscape:window-x="-8"
     inkscape:cy="230.48929"
     inkscape:cx="392.82167"
     inkscape:zoom="0.70710678"
     inkscape:guide-bbox="true"
     showguides="true"
     showgrid="false"
     id="namedview4"
     inkscape:window-height="1017"
     inkscape:window-width="1920"
     inkscape:pageshadow="2"
     inkscape:pageopacity="0"
     guidetolerance="10"
     gridtolerance="10"
     objecttolerance="10"
     borderopacity="1"
     bordercolor="#666666"
     pagecolor="#ffffff"><inkscape:grid
       spacingy="1"
       spacingx="1"
       originy="7.2964761"
       originx="77.504652"
       snapvisiblegridlinesonly="true"
       enabled="true"
       visible="true"
       empspacing="5"
       id="grid4653"
       type="xygrid" /></sodipodi:namedview><g
     id="g4994"
     transform="matrix(4.4117639,0,0,-4.4117639,-4248.9465,2295.0834)"><rect
       style="color:#000000;display:inline;overflow:visible;visibility:visible;fill:#dd0328;fill-opacity:1;fill-rule:evenodd;stroke:none;stroke-width:1.5;marker:none;enable-background:accumulate"
       id="rect4649"
       width="190.40004"
       height="136.00002"
       x="963.09473"
       y="-520.21899"
       transform="scale(1,-1)" /><path
       sodipodi:nodetypes="cccccccccccccccccccccccccccccccccc"
       id="path4082-2"
       d="m 1019.0947,452.21897 -9.9123,-11.33334 -7.93,9.06668 -9.91214,-11.33334 9.91214,-11.33334 7.93,9.06668 9.9123,-11.33334 -9.9123,-11.33334 -7.93,9.06668 -9.91214,-11.33334 9.91214,-11.33334 7.93,9.06668 9.9123,-11.33334 -9.9123,-11.33333 -7.93,9.06667 -9.91214,-11.33334 h -28.24554 v 136 h 28.24554 l 9.91214,-11.33333 7.93,9.06666 9.9123,-11.33333 -9.9123,-11.33333 -7.93,9.06666 -9.91214,-11.33333 9.91214,-11.33333 7.93,9.06666 9.9123,-11.33333 -9.9123,-11.33333 -7.93,9.06666 -9.91214,-11.33333 9.91214,-11.33334 7.93,9.06667 z"
       inkscape:connector-curvature="0"
       style="fill:#ffffff;fill-opacity:1" /><g
       clip-path="url(#clipPath16-5-8-0)"
       id="g14"
       transform="matrix(0.76401886,0,0,0.76401886,1012.7983,368.34138)"><g
         transform="matrix(1.0469683,0,0,1.0469683,-4.5502628,3.9802055)"
         id="g3119"><g
           id="g92"
           transform="translate(64.9078,146.7385)"><path
             d="M 0,0 -1.512,2.785 -0.05,5.65 -2.963,2.768 Z"
             style="fill:#ffffff;fill-opacity:1;fill-rule:evenodd;stroke:none"
             id="path94"
             inkscape:connector-curvature="0" /></g><g
           id="g96"
           transform="translate(120.7144,146.8059)"><path
             d="M 0,0 1.511,2.781 0.043,5.642 2.956,2.765 Z"
             style="fill:#ffffff;fill-opacity:1;fill-rule:evenodd;stroke:none"
             id="path98"
             inkscape:connector-curvature="0" /></g><g
           id="g104"
           transform="translate(106.37324,163.135)"><path
             transform="matrix(0.8,0,0,-0.8,-96.68799,16.5964)"
             d="m 103.9043,5.9316406 c -2.5589,2.28 -5.472894,3.7769531 -5.994144,4.8457034 0.38875,2.28 2.278904,5.121875 3.878904,7.296875 -2.834997,0 -6.817029,-2.699688 -8.832029,-4.617188 -0.4775,1.25875 -3.00164,5.11086 -3.52539,5.34961 0.52375,0.4475 3.22789,4.402578 3.68164,5.236328 1.38375,-1.01375 5.949532,-3.819453 8.675779,-3.220703 0.10125,7.00375 -10.364607,12.171328 -13.693357,5.486328 2.3925,-1.2925 2.183828,-5.40375 -1.263672,-5.5625 -3.37375,0.15875 -3.610859,4.359375 -1.224609,5.640625 -3.33625,6.68625 -13.804063,1.518828 -13.695313,-5.482422 2.735,-0.6025 7.296094,2.170469 8.683594,3.199219 0.44,-0.84 3.145078,-4.745157 3.673828,-5.191407 -0.52875,-0.23875 -2.703672,-4.11875 -3.169922,-5.375 -2.025,1.91 -6.35875,4.615235 -9.1875,4.615235 1.1025,-2.3575 2.859375,-4.826406 2.859375,-7.347656 0,-1.9075005 -6.264609,-3.7941411 -7.630859,-4.2441411 l 2.511719,23.1230471 c -1.22375,0.26375 -3.488282,-0.102422 -3.488282,2.048828 10e-7,1.17625 1.233047,1.967734 2.654297,1.833984 l 8.34375,4.148438 -7.919921,3.984375 c -1.58,0 -3.283204,-0.183907 -3.283204,1.308593 0,1.83125 1.312579,1.624219 2.392578,1.574219 h 71.107418 c 1.08,0.05 2.39258,0.257031 2.39258,-1.574219 0,-1.4925 -1.7032,-1.308593 -3.2832,-1.308593 l -7.91992,-3.984375 8.34375,-4.148438 c 1.42125,0.13375 2.65429,-0.657734 2.65429,-1.833984 0,-2.15125 -2.26453,-1.785078 -3.48828,-2.048828 l 2.51172,-23.1230471 c -1.36625,0.45 -7.63086,2.3366406 -7.63086,4.2441411 0,2.521249 1.75688,4.990156 2.85938,7.347656 -2.82875,0 -7.1625,-2.705235 -9.1875,-4.615235 -0.46625,1.25625 -2.64117,5.13625 -3.16992,5.375 0.52875,0.44625 3.23382,4.351407 3.67382,5.191407 1.3875,-1.02875 5.9486,-3.801719 8.6836,-3.199219 0.10875,7.00125 -10.35907,12.168672 -13.69532,5.482422 2.38625,-1.28125 2.14915,-5.481875 -1.2246,-5.640625 -3.4475,0.15875 -3.65618,4.27 -1.26368,5.5625 -3.32875,6.685 -13.79656,1.517422 -13.69531,-5.486328 2.72625,-0.59875 7.29399,2.206953 8.67774,3.220703 0.45375,-0.83375 3.15593,-4.788828 3.67968,-5.236328 -0.52375,-0.23875 -3.04593,-4.09086 -3.52343,-5.34961 -2.015,1.9175 -5.99899,4.617188 -8.83399,4.617188 1.6,-2.175 3.49211,-5.016875 3.88086,-7.296875 -0.52125,-1.0687503 -3.4372,-2.5657034 -5.99609,-4.8457034 z m -0.002,28.0820314 7.39844,3.61914 -7.39844,3.72461 -7.394528,-3.72461 z"
             style="fill:#ffed00;fill-opacity:1;fill-rule:evenodd;stroke:none;stroke-width:1.25"
             id="path106" /></g><g
           id="g108"
           transform="matrix(-1,0,0,1,92.806608,146.6447)" /><g
           id="g112"
           transform="translate(79.230255,151.2424)"><path
             d="m 0,0 c 1.662,0 3.011,-0.796 3.011,-1.768 0,-0.967 -1.349,-1.755 -3.011,-1.755 -1.657,0 -3.014,0.788 -3.014,1.755 C -3.014,-0.796 -1.657,0 0,0"
             style="fill:#2d358a;fill-opacity:1;fill-rule:evenodd;stroke:none"
             id="path114"
             inkscape:connector-curvature="0" /></g><g
           id="g116"
           transform="translate(106.38945,151.26)"><path
             d="m 0,0 c 1.658,0 3.013,-0.788 3.013,-1.76 0,-0.969 -1.355,-1.763 -3.013,-1.763 -1.663,0 -3.015,0.794 -3.015,1.763 C -3.015,-0.788 -1.663,0 0,0"
             style="fill:#2d358a;fill-opacity:1;fill-rule:evenodd;stroke:none"
             id="path118"
             inkscape:connector-curvature="0" /></g></g><g
         transform="translate(0.26327652)"
         id="g3227"><g
           transform="rotate(1.1066789,132.38342,147.5954)"
           id="g3145"><g
             transform="translate(126.8013,141.4738)"
             id="g28"><path
               inkscape:connector-curvature="0"
               id="path30"
               style="fill:#fff200;fill-opacity:1;fill-rule:evenodd;stroke:none"
               d="m 0,0 c 1.099,-2.21 5.85,-8.24 7.673,-9.823 0.526,-0.043 2.404,-0.1 2.849,-0.197 -0.543,0.418 -0.503,1.318 -0.58,2 C 7.854,-7.796 6.771,-5.774 7.136,-4.814 5.974,-4.875 4.005,-2.652 5.13,-1.087 3.948,-0.926 3.024,0.012 2.786,1.263 2.587,2.401 3.222,3.586 4.348,4.307 L 9.197,7.469 C 6.474,10.455 2.524,10.212 0.379,8.329 -1.906,6.331 -1.425,2.318 0,0" /></g><g
             transform="translate(123.0699,136.6945)"
             id="g36"><path
               sodipodi:nodetypes="ccccccccccccccccccccccccc"
               inkscape:connector-curvature="0"
               id="path38"
               style="fill:#ffffff;fill-opacity:1;fill-rule:evenodd;stroke:none"
               d="m -3.461,-7.328 c 1.398,-0.478 1.779,-2.061 1.917,-2.52 1.586,-0.121 3.512,-1.542 3.694,-2.89 1.461,0.124 3.025,-1.056 3.705,-2.561 1.0699092,0.188838 2.207,0.457 3.269,-1.364 l 1.182,0.139 14.009,8.655 c 0.201,0.204 1.017,1.727 1.1,1.967 0.2,0.562 0.844,3.104 0.743,3.663 -0.062,0.121 -0.223,0.282 -0.223,0.282 -0.158,0.118 -0.4,-0.201 -0.856,0.118 -1.088,0.861 -0.587,2.586 -0.21,3.549 0.121,-0.683 0.103,-0.922 0.284,-1.602 h 0.462 C 25.816,1.13 25.578,2.092 25.578,3.154 22.673,2.188 19.623,-2.197 22.772,-4.662 l -0.264,-0.543 c -1.079,0.245 -0.779,0.5 -1.444,1.164 l -3.503,-2.284 c -0.563,-1.136 -0.144,-1.804 0.138,-2.946 -0.883,0.944 -7.393,6.667 -11.844,1.99 0.563,2.138 1.582,2.697 3.37,2.418 L 2.729,3.333 C 1.7055351,2.4720829 0.81018133,1.6149078 0,0 -1.8356906,-2.2869881 -3.3347355,-4.604377 -3.461,-7.328 Z" /></g><g
             transform="translate(137.9117,133.843)"
             id="g40"><path
               inkscape:connector-curvature="0"
               id="path42"
               style="fill:#ffffff;fill-opacity:1;fill-rule:evenodd;stroke:none"
               d="m 0,0 c -0.318,-0.228 -0.318,-0.908 -0.22,-1.327 0.101,-0.338 1.162,-1.861 1.944,-1.403 l 0.945,0.68 c 1.217,0.885 0.018,2.003 -0.427,2.128 1.006,0.483 1.544,-0.562 1.544,-1.285 L 5.793,0 c 0,2.482 0.138,2.943 1.363,4.687 L 6.893,5.062 0,0" /></g><g
             transform="translate(135.1988,136.8029)"
             id="g44"><path
               inkscape:connector-curvature="0"
               id="path46"
               style="fill:#ffffff;fill-opacity:1;fill-rule:evenodd;stroke:none"
               d="m 0,0 c -0.543,-0.383 -0.344,-1.086 -0.225,-1.325 0.101,-0.238 0.988,-1.321 1.763,-0.862 l 0.944,0.682 c 0.863,0.62 -0.1,1.964 -0.419,2.127 1,0.478 1.543,-0.562 1.543,-1.284 0.982,0.577 4.769,3.089 5.21,3.708 C 8.574,3.761 8.075,4.648 7.247,5.148 L 0,0" /></g><g
             transform="translate(132.9947,139.968)"
             id="g48"><path
               inkscape:connector-curvature="0"
               id="path50"
               style="fill:#ffffff;fill-opacity:1;fill-rule:evenodd;stroke:none"
               d="m 0,0 c -0.519,-0.356 -0.318,-1.1 -0.22,-1.319 0.081,-0.221 0.98,-1.32 1.762,-0.868 l 0.942,0.688 C 3.343,-0.885 2.385,0.465 2.06,0.622 3.061,1.105 3.604,0.06 3.604,-0.658 4.586,-0.078 8.136,2.308 8.579,2.928 8.337,3.649 7.854,4.45 7.035,4.951 L 0,0" /></g><g
             transform="translate(130.8502,143.6838)"
             id="g52"><path
               inkscape:connector-curvature="0"
               id="path54"
               style="fill:#ffffff;fill-opacity:1;fill-rule:evenodd;stroke:none"
               d="m 0,0 c -0.52,-0.358 -0.32,-1.099 -0.22,-1.324 0.08,-0.218 0.983,-1.322 1.766,-0.863 l 0.941,0.679 C 3.349,-0.883 2.385,0.46 2.066,0.622 3.07,1.099 3.611,0.061 3.611,-0.654 4.593,-0.077 7.617,1.946 8.054,2.567 7.817,3.284 7.355,4.005 6.537,4.508 L 0,0" /></g><g
             transform="translate(154.9595,129.2043)"
             id="g56"><path
               inkscape:connector-curvature="0"
               id="path58"
               style="fill:#fff200;fill-opacity:1;fill-rule:evenodd;stroke:none"
               d="m 0,0 c -0.462,-1.306 -3.506,-0.562 -3.726,-0.02 l -14.345,-9.194 c -1.265,-0.882 -2.189,-2.39 -2.206,-3.949 -0.409,-4.433 6.59,-4.949 7.11,-1.024 0.299,2.365 -1.619,3.625 -4.05,3.105 0.807,0.747 2.527,0.664 3.589,0.323 l 12.02,7.672 c 1.491,0.902 4.132,2.406 4.55,4.285 C 3.188,2.261 2.823,3.34 2.206,4.185 0.145,7.432 -5.086,5.026 -3.806,1.664 -3.248,0.236 -1.863,-1.005 0,0" /></g><g
             transform="translate(144.3795,118.3684)"
             id="g68"><path
               inkscape:connector-curvature="0"
               id="path70"
               style="fill:#ffffff;fill-opacity:1;fill-rule:evenodd;stroke:none"
               d="m 0,0 c 4.246,-8.977 11.88,-18.632 7.032,-40.609 4.192,-2.102 11.439,-7.636 14.228,-11.345 4.531,20.557 -4.148,43.775 -13.929,56.621 L 0,0" /></g><g
             transform="translate(139.067,72.7502)"
             id="g124"><path
               d="m -2.7933161,1.1586281 c -7.9413379,3.4153162 -12.2210439,1.67582 -19.3210439,1.99882 1.606,0.799 4.619969,1.7895121 5.275,5.928 0.655031,4.1384889 -0.4,5.7899999 2.13668,14.0917759 C -12.166,31.479 -9.6155945,36.736701 -6.7755945,42.428701 -6.312,43.48 -6.1027739,43.768309 -5.873,44.355 c -1.025,0 -0.845,-0.174 -1.861,-0.373 -0.284,2.74 -2.726,2.76 -3.731,2.179 -0.683,3.002 -2.664,2.747 -3.928,2.766 0.301,2.321 -2.405,3.245 -3.746,2.705 -0.237,2.202 -1.727,2.607 -3.407,3.344 -12.403,-24.349 -19.339075,-37.10046 -23.151075,-60.9624606 2.05229,-6.8166134 20.410451,-17.1655454 23.980451,-18.6505454 8.987,-3.648 21.74172525,-8.749064 30.2113766,-16.04353 7.0152644,5.443696 16.6611354,20.753407 19.6634604,31.1098004 -5.052255,1.5734999 -12.072864,-0.1678061 -15.885242,1.9175567 -3.8123777,2.0853628 -10.5683447,7.18734779 -15.0662871,8.811807"
               style="fill:#ffffff;fill-opacity:1;fill-rule:nonzero;stroke:none"
               id="path897"
               inkscape:connector-curvature="0"
               sodipodi:nodetypes="cczzccccccccccczc" /></g></g><g
           id="g3165"
           transform="matrix(1,0,0,1.0155971,-0.90267558,0.14903615)"><g
             transform="translate(49.3834,139.5871)"
             id="g32"><path
               inkscape:connector-curvature="0"
               id="path34"
               style="fill:#ffffff;fill-opacity:1;fill-rule:evenodd;stroke:none"
               d="m 0,0 c -3.032,-0.646 -3.032,-3.168 -2.813,-4.271 -1.424,-0.402 -3.423,-1.401 -2.598,-3.962 -2.189,-0.324 -3.712,-2.383 -2.525,-3.771 l 9.598,-6.207 9.82,15.02 c 0.044,0.203 0.044,0.441 0,0.67 L 2.263,4.008 C 0.357,3.888 -0.806,1.26 0,0" /></g><g
             transform="translate(55.5953,112.3957)"
             id="g60"><path
               inkscape:connector-curvature="0"
               id="path62"
               style="fill:#ffffff;fill-opacity:1;fill-rule:evenodd;stroke:none"
               d="M 0,0 13.486,1.47 17.555,14.986 6.613,22.258 -2.812,7.775 Z" /></g><g
             transform="translate(30.6793,125.842)"
             id="g64"><path
               inkscape:connector-curvature="0"
               id="path66"
               style="fill:#fff200;fill-opacity:1;fill-rule:evenodd;stroke:none"
               d="m 0,0 0.744,-4.184 c 6.812,1.062 14.71,-1.627 17.899,-10.141 l 4.005,1.679 C 20.741,-3.547 8.118,2.39 0,0" /></g><g
             transform="translate(56.5963,110.1906)"
             id="g72"><path
               inkscape:connector-curvature="0"
               id="path74"
               style="fill:#ffffff;fill-opacity:1;fill-rule:evenodd;stroke:none"
               d="m 0,0 3.207,-20.757 c 5.892,-5.608 20.604,-3.204 24.988,2.088 L 16.674,8.964 14.485,1.727 0,0" /></g><g
             transform="translate(16.1129,72.3811)"
             id="g76"><path
               sodipodi:nodetypes="cccccccccc"
               inkscape:connector-curvature="0"
               id="path78"
               style="fill:#ffffff;fill-opacity:1;fill-rule:evenodd;stroke:none"
               d="M 1.7222964,2.5437691 C 10.155315,3.3027306 26.509,33.669 29.722,41.689 c -2.124,1.026 -5.4,0.729 -6.593,-0.743 L 1.7222964,2.5437691 M 22.353,41.706 c 1.175,1.955 5.369,2.013 7.245,1.282 -1.163,2.284 -7.438,5.453 -9.531,5.283 C 13.438,40.738 5.8972964,24.039769 2.1662964,12.990769 c -0.881,-2.77 -1.007,-7.2809999 -1.007,-10.2139999 z" /></g><g
             transform="translate(54.8961,89.4192)"
             id="g80"><path
               inkscape:connector-curvature="0"
               id="path82"
               style="fill:#fff200;fill-opacity:1;fill-rule:evenodd;stroke:none"
               d="m 0,0 c 1.338,-3.912 0.014,-7.255 -3.773,-9.021 l 0.198,-1.635 c 13.249,-5.774 14.611,-15.91 15.674,-27.888 l 3.012,-4.489 3.143,8.213 c 0.12,3.966 -5.392,20.654 -9.76,23.5 6.474,-1.547 19.878,1.259 24.714,5.986 l 1.639,4.409 -4.312,1.404 C 16.812,-11.481 2.199,-2.425 1.101,0.479 L 0,0" /></g><g
             transform="translate(67.7935,75.8127)"
             id="g84"><path
               inkscape:connector-curvature="0"
               id="path86"
               style="fill:#fff200;fill-opacity:1;fill-rule:evenodd;stroke:none"
               d="m 0,0 c 3.214,-3.862 6.138,-14.059 7.236,-19.25 2.226,0.541 13.975,5.17 16.938,7.614 -0.1,4.008 -3.789,14.16 -5.212,16.584 C 13.611,2.263 6.138,0 0,0" /></g><g
             transform="translate(50.3853,146.9445)"
             id="g88"><path
               inkscape:connector-curvature="0"
               id="path90"
               style="fill:#fff200;fill-opacity:1;fill-rule:evenodd;stroke:none"
               d="M 0,0 8.873,-6.175 C 10.741,-3.547 9.617,-0.321 7.174,1.199 4.222,3.018 0.674,1.636 0,0" /></g><g
             transform="translate(37.7964,134.4768)"
             id="g100"><path
               inkscape:connector-curvature="0"
               id="path102"
               style="fill:#ffffff;fill-opacity:1;fill-rule:evenodd;stroke:none"
               d="M 0,0 4.277,-2.939 C 3.332,-3.547 2.477,-4.716 2.289,-6.077 l -4.288,2.933 C -2.712,-2.266 -1.099,0.333 0,0 M 2.745,4.156 7.025,1.297 C 6.083,0.688 5.226,-0.17 5.031,-1.531 l -4.28,2.853 c -0.711,0.88 0.9,3.167 1.994,2.834 m 5.542,8.731 4.301,-3.004 C 11.645,9.279 10.7,8.412 10.513,7.051 l -4.299,3.005 c -0.719,0.88 0.98,3.163 2.073,2.831 M 5.477,8.48 9.838,5.515 C 8.894,4.905 8.038,4.049 7.851,2.685 L 3.477,5.646 c -0.714,0.88 0.914,3.167 2,2.834" /></g><g
             transform="translate(22.3687,64.6799)"
             id="g120"><path
               sodipodi:nodetypes="ccccc"
               inkscape:connector-curvature="0"
               id="path122"
               style="fill:#ffffff;fill-opacity:1;fill-rule:nonzero;stroke:none"
               d="M 0,0 -5.609,-1.986 C -1.547,-14.222 4.5623072,-24.607 13.331307,-32.798 L 15.572,-32.055 C 12.317,-21.081 7.066,-9.714 0,0" /></g><g
             transform="translate(42.5357,71.4553)"
             id="g128"><path
               inkscape:connector-curvature="0"
               id="path130"
               style="fill:#ffffff;fill-opacity:1;fill-rule:nonzero;stroke:none"
               d="m 0,0 c 7.029,-9.547 9.884,-17.643 13.385,-28.524 l 5.274,3.622 C 15.404,-13.928 12.886,-7.72 5.811,1.994 Z" /></g><g
             transform="translate(54.0347,75.4016)"
             id="g132"><path
               inkscape:connector-curvature="0"
               id="path134"
               style="fill:#ffffff;fill-opacity:1;fill-rule:nonzero;stroke:none"
               d="M 0,0 -3.082,-1.051 C 3.905,-10.613 5.5,-16.697 9.085,-27.607 l 2.588,1.491 C 9.529,-12.842 9.361,-7.281 0,0" /></g><g
             transform="translate(34.3902,68.7278)"
             id="g136"><path
               inkscape:connector-curvature="0"
               id="path138"
               style="fill:#ffffff;fill-opacity:1;fill-rule:nonzero;stroke:none"
               d="m 0,0 c 7.346,-9.208 10.683,-18.943 13.769,-30.271 l 5.349,3.212 C 15.869,-16.09 12.887,-7.78 5.823,1.934 Z" /></g><g
             transform="translate(24.5748,65.3723)"
             id="g140"><path
               inkscape:connector-curvature="0"
               id="path142"
               style="fill:#ffffff;fill-opacity:1;fill-rule:nonzero;stroke:none"
               d="m 0,0 c 7.343,-9.212 12.022,-20.304 15.111,-31.636 l 6.899,3.839 C 18.76,-16.822 14.372,-7.261 7.301,2.453 Z" /></g></g></g></g></g></svg>
