<?xml version="1.0" encoding="UTF-8" standalone="no"?>
<svg
   xmlns:dc="http://purl.org/dc/elements/1.1/"
   xmlns:cc="http://creativecommons.org/ns#"
   xmlns:rdf="http://www.w3.org/1999/02/22-rdf-syntax-ns#"
   xmlns:svg="http://www.w3.org/2000/svg"
   xmlns="http://www.w3.org/2000/svg"
   xmlns:xlink="http://www.w3.org/1999/xlink"
   xmlns:sodipodi="http://sodipodi.sourceforge.net/DTD/sodipodi-0.dtd"
   xmlns:inkscape="http://www.inkscape.org/namespaces/inkscape"
   sodipodi:docname="svg.svg"
   height="390.68756"
   width="630"
   inkscape:version="1.0 (4035a4fb49, 2020-05-01)"
   version="1.1"
   id="svg3083">
  <metadata
     id="metadata3089">
    <rdf:RDF>
      <cc:Work
         rdf:about="">
        <dc:format>image/svg+xml</dc:format>
        <dc:type
           rdf:resource="http://purl.org/dc/dcmitype/StillImage" />
        <dc:title />
      </cc:Work>
    </rdf:RDF>
  </metadata>
  <defs
     id="defs3087">
    <style
       id="style6"
       type="text/css" />
    <style
       id="style6-1"
       type="text/css" />
  </defs>
  <sodipodi:namedview
     inkscape:document-rotation="0"
     inkscape:guide-bbox="true"
     showguides="true"
     fit-margin-bottom="0"
     fit-margin-right="0"
     fit-margin-left="0"
     fit-margin-top="0"
     inkscape:current-layer="svg3083"
     inkscape:window-maximized="1"
     inkscape:window-y="-8"
     inkscape:window-x="-8"
     inkscape:cy="161.51458"
     inkscape:cx="438.29824"
     inkscape:zoom="1"
     showgrid="false"
     id="namedview3085"
     inkscape:window-height="1017"
     inkscape:window-width="1920"
     inkscape:pageshadow="2"
     inkscape:pageopacity="0"
     guidetolerance="10"
     gridtolerance="10"
     objecttolerance="10"
     borderopacity="1"
     bordercolor="#666666"
     pagecolor="#ffffff">
    <inkscape:grid
       spacingy="1"
       spacingx="1"
       originy="0.4063"
       originx="-680"
       snapvisiblegridlinesonly="true"
       enabled="true"
       visible="true"
       empspacing="5"
       id="grid3030"
       type="xygrid" />
  </sodipodi:namedview>
  <g
     transform="translate(-680,1.2812551)"
     id="g4369">
    <g
       id="g4132">
      <path
         style="fill:#ffd90f;fill-opacity:1;stroke:none"
         d="M 680,389.4063 V 194.12505 h 630 L 1185.5312,291.76568 1310,389.4063 Z"
         id="rect3034"
         inkscape:connector-curvature="0"
         sodipodi:nodetypes="cccccc" />
      <path
         sodipodi:nodetypes="cccccc"
         inkscape:connector-curvature="0"
         id="path3854"
         d="M 680,194 V -1.2812551 h 630 L 1185.5312,96.359373 1310,194 Z"
         style="fill:#0064ae;fill-opacity:1;stroke:none" />
    </g>
    <g
       id="g3935"
       transform="matrix(0.68614903,0,0,0.68614903,727.02027,-116.47522)">
      <g
         transform="translate(0,-1.2157435)"
         id="g4275">
        <g
           id="g4187">
          <path
             inkscape:connector-curvature="0"
             d="m 76.00295,225 8.9206,21.476 22.353,-6.4157 -11.233,20.36 18.953,13.48 -22.923,3.92 1.281,23.22 -17.355,-15.48 -17.355,15.479 1.2809,-23.22 -22.923,-3.9181 18.953,-13.476 -11.229,-20.365 22.353,6.4157 8.92,-21.48 z"
             style="color:#000000;fill:#ffffff;fill-opacity:1;fill-rule:evenodd"
             id="path5032" />
          <path
             inkscape:connector-curvature="0"
             d="m 423.99995,225 8.9206,21.476 22.353,-6.4157 -11.229,20.365 18.953,13.476 -22.923,3.9181 1.2809,23.22 -17.355,-15.479 -17.355,15.479 1.2809,-23.22 -22.923,-3.9181 18.953,-13.476 -11.229,-20.365 22.353,6.4157 8.93,-21.48 z"
             style="color:#000000;fill:#ffffff;fill-opacity:1;fill-rule:evenodd"
             id="path5034" />
          <g
             id="g3880">
            <g
               transform="rotate(36.480828,493.52649,-497.84357)"
               id="g4516">
              <path
                 id="path5036"
                 transform="matrix(1.1718385,-0.86650822,0.86650822,1.1718385,438.13758,372.5882)"
                 d="m 216.875,28.03125 -11.5,17.53125 -42.25,57.125 6.1875,4.5625 42.21875,-57.125 c 6.57229,-8.888153 5.34375,-22.09375 5.34375,-22.09375 z m 0,0 c 0,0 -12.88676,2.565685 -19.5625,11.59375 l -42.21875,57.09375 6.15625,4.5625 42.25,-57.09375 z"
                 style="fill:#ffffff;fill-opacity:1;fill-rule:evenodd" />
            </g>
            <path
               sodipodi:nodetypes="cccsscsssccc"
               id="path5040"
               d="m 107.11906,391.96871 18.49535,-4.47281 43.52653,-52.52841 8.47087,5.52401 c 3.59875,2.34682 8.03982,3.23533 10.21692,0.52183 4.8262,-6.0152 -2.53832,-11.21553 -2.53832,-11.21553 l -37.5871,-27.82592 c -5.22717,-3.86969 -7.0886,-2.8025 -9.5614,-0.32971 -2.4728,2.47279 -3.77531,6.00056 0.98911,9.8911 l 11.8701,9.69292 -42.86106,51.10391 z"
               inkscape:connector-curvature="0"
               style="fill:#ffd90f;fill-opacity:1;fill-rule:evenodd" />
            <path
               sodipodi:nodetypes="cccccccccccc"
               id="path3234"
               d="m 154.2785,614.19526 c -16.15223,-0.0555 -24.52421,3.82238 -24.52421,3.82238 l 10.5505,6.21631 -10.5505,6.21632 10.5505,6.21631 -10.5505,6.21632 10.5505,6.21631 -10.5505,6.21632 10.5505,6.21631 -10.5505,6.21632 h 24.52421 z"
               inkscape:connector-curvature="0"
               style="fill:#e70909;fill-opacity:1;fill-rule:evenodd" />
            <path
               sodipodi:nodetypes="cccccccccccccc"
               id="path4125"
               d="m 260.89,254.66 50.20934,27.1432 14.45366,-1.7442 28.172,-33.718 c -9.2882,-3.6482 -25.865,-10.159 -24.479,5.3131 1.3866,15.472 -5.6481,12.709 -11.546,10.393 -5.6853,-2.2331 -10.393,-11.546 -1.3866,-15.472 6.3394,-2.7638 2.5853,-21.376 -5.3131,-24.479 -7.869,-3.0908 -23.347,7.9079 -20.552,14.319 3.9265,9.0062 -5.0797,12.933 -11.546,10.393 -6.4663,-2.5399 -12.933,-5.0797 -1.3866,-15.472 11.546,-10.393 -6.5522,-17.501 -14.319,-20.552 l -2.3064,43.878 z"
               inkscape:connector-curvature="0"
               style="fill:#ffd90f;fill-opacity:1;fill-rule:evenodd;stroke:none" />
            <path
               inkscape:connector-curvature="0"
               id="path4031"
               d="m 230.5964,296.80638 8.37409,6.36612 1.6208,-6.08933 7.42863,4.01342 1.35066,-14.80814 -16.74819,2.07591 z m 10.12996,26.43321 -2.8364,-6.91968 9.45462,3.73663 3.78186,-4.01341 12.02089,8.44202 z"
               style="color:#000000;display:inline;overflow:visible;visibility:visible;fill:#e70909;fill-opacity:1;stroke:none;stroke-width:1;marker:none;enable-background:accumulate" />
            <path
               sodipodi:nodetypes="zcscz"
               inkscape:connector-curvature="0"
               id="path4033"
               d="m 217.64903,314.8752 c 14.14836,7.24114 28.54936,-9.43937 47.11908,5.04295 0,0 -4.80033,-15.38747 -24.128,-14.35301 -19.32765,1.03444 -23.37007,-10.34451 -26.78083,-14.87023 0,0 -10.35861,16.93913 3.78975,24.18029 z"
               style="color:#000000;display:inline;overflow:visible;visibility:visible;fill:#e70909;fill-opacity:1;stroke:none;stroke-width:1;marker:none;enable-background:accumulate" />
            <path
               sodipodi:nodetypes="ccscsccccccccccczccccczccccsccccccccccccccccccccccccccccsccccccccccccccssccc"
               inkscape:connector-curvature="0"
               id="path4121"
               d="m 343.8125,535.6875 c 0,0 -5.6491,-15.36225 -12.75,-22.78125 0,0 9.83914,7.89148 20.28125,5.25 10.44211,-2.64148 10.59375,-23.46875 10.59375,-23.46875 0,0 -22.16953,5.54198 -29.625,-6.59375 -7.45547,-12.13573 1.27826,-56.8963 3.21875,-75.9375 h 6.875 c 1.27073,-7.45922 -2.28125,-28.25 -2.28125,-28.25 l 7.65625,-1.625 c 0.37319,-6.5003 -8.875,-38.59375 -8.875,-38.59375 l 5.78125,-1.84375 c -0.4225,-4.96462 -8.09375,-27.28125 -8.09375,-27.28125 L 341,311.3125 c -2.15212,-9.96036 -11.3878,-27.45933 -14.78125,-33.09375 l -9.55698,-4.80582 -6.22915,6.76407 c 0,0 6.47892,-12.30827 2.06859,-17.42267 -4.41032,-5.11439 -18.33207,-0.65204 -18.33207,-0.65204 l -32.97208,-12.60873 c 0,0 -10.75474,-1.43874 -13.81094,10.30437 0,0 -11.16214,1.83439 -26.75796,21.94014 1.22168,8.1894 9.83316,15.48349 9.83316,15.48349 0,0 17.41849,-9.9589 24.19402,0.78301 6.77554,10.74191 8.08211,18.27512 6.93989,23.30322 -11.23963,-3.17139 -26.16235,1.86706 -26.16235,1.86706 0,0 6.19307,11.17936 10.87879,11.17936 h 13.87583 c 0,0 -3.16175,15.36454 -41.96875,15.36454 -38.344,0 -50.3545,-9.32775 -69.9375,-29.84375 l -17.71875,18.1875 c -3.9461,-1.3573 -7.85145,4.2288 -5.59375,8.5 -4.8212,-0.6851 -7.42935,3.0508 -5.84375,6.875 -3.861,-1.433 -7.0966,2.9978 -6.15625,7 -4.6565,-2.5222 -8.8328,3.6661 -7.125,7.4375 14.10449,13.87262 28.29805,24.25457 42.71875,31.875 -0.93265,3.50824 -1.8125,6.90625 -1.8125,6.90625 0,0 11.54721,2.39832 24.76314,2.04846 l 0.14311,8.07654 c 0,0 13.22532,0.78322 26.57406,-1.98665 l 0.26969,9.36165 c 0,0 14.91902,0.78433 26.25,-5.8125 0.73131,0.0181 1.45417,0.0509 2.1875,0.0625 -1.409,20.981 6.96435,41.61075 14.28125,61.71875 -17.559,4.179 -24.8016,10.309 -32.875,17.9375 -7.771,-2.0258 -16.9788,-1.63465 -24.75,0.71875 l 5.25,17.84375 c -12.86999,-2.28249 -17.7511,-0.84803 -24.41936,6.62659 l 14.63811,8.31091 c -12.93036,3.23506 -15.97352,18.17015 -15.97352,18.17015 l 16.53602,3.20485 c -10.55483,3.36598 -17.86117,12.13997 -16.65625,22.65625 l 13.75,-0.21875 c 1.062,17.416 4.7858,34.835 12,52.25 0.4533,2.601 -4.18855,1.52994 -6.53125,1.03125 -9.259,-2.396 -15.19864,-14.46875 -27.90625,-14.46875 V 667.75 H 202.375 c 7.254,0 12.3859,-5.04725 20.3125,-24.28125 7.92659,-19.233 9.26508,-50.93865 8.75,-59.96875 4.3508,2.2556 7.65903,1.4514 7.65903,1.4514 0,0 -0.88613,-14.1911 1.15347,-17.3264 3.439,2.4097 7.36945,3.28571 9.65625,3.03125 1.1038,-4.739 2.73805,-18.57045 4.21875,-18.65625 1.79878,3.16223 4.03917,8.25569 11.92399,17.37539 l 8.60726,-1.84414 c -0.72954,9.1739 2.75,15.90625 2.75,15.90625 L 289.5625,582 c -1.72703,5.78095 -0.29998,11.91963 0.125,12.34375 9.012,-0.111 36.94525,14.94225 29.71875,32.78125 -7.34905,-13.0841 -19.8125,-12.9375 -19.8125,-12.9375 V 667.75 H 358.75 c 8.70424,0 8.31505,-27.51975 6.65625,-41.46875 -3.015,-25.352 -25.03125,-58.375 -25.03125,-58.375 l 9.9375,-4.375 c 0,0 -10.52345,-17.40485 -17.84375,-24.53125"
               style="fill:#000000;stroke:none" />
            <path
               style="color:#000000;font-style:normal;font-variant:normal;font-weight:normal;font-stretch:normal;font-size:medium;line-height:normal;font-family:Sans;-inkscape-font-specification:Sans;text-indent:0;text-align:start;text-decoration:none;text-decoration-line:none;letter-spacing:normal;word-spacing:normal;text-transform:none;writing-mode:lr-tb;direction:ltr;baseline-shift:baseline;text-anchor:start;display:inline;overflow:visible;visibility:visible;fill:#ffd90f;fill-opacity:1;stroke:none;stroke-width:2.91482;marker:none;enable-background:accumulate"
               d="m 255.375,498.40625 c -5.2306,8.41165 -10.70533,16.7106 -10.625,25.15625 1.9e-4,0.0205 -2.6e-4,0.042 0,0.0625 -3.6e-4,0.0107 3.5e-4,0.0206 0,0.0312 -0.86579,26.12433 20.28125,47.40625 20.28125,47.40625 l 2.0625,-2.03125 c 0,0 -20.30041,-20.82183 -19.4375,-45.34375 v -0.0625 -0.0312 c -0.10221,-7.13281 4.95274,-15.18766 10.21875,-23.65625 5.26601,-8.46859 10.70455,-17.38024 9.01562,-26.78125 -1.89134,12.00182 -6.26599,16.80774 -11.51562,25.25 z"
               id="path4160"
               inkscape:connector-curvature="0"
               sodipodi:nodetypes="sccccccccscs" />
            <path
               inkscape:connector-curvature="0"
               style="fill:none;stroke:#ffd90f;stroke-width:2.91482;stroke-linecap:butt;stroke-linejoin:miter;stroke-miterlimit:4;stroke-dasharray:none;stroke-opacity:1"
               d="m 238.23418,477.44773 9.54695,18.45296 -9.73161,1.8562 9.52198,16.61679"
               id="path4133" />
            <path
               sodipodi:nodetypes="cccccccccccc"
               id="path7697"
               d="m 142.6785,324.7584 c -3.3107,0.5189 -5.3899,2.5156 -5.5952,6.7609 -4.7368,0.57233 -6.08884,1.8985 -5.23394,6.1985 l 9.0923,7.6935 c 2.5958,-1.7508 6.02014,-0.5021 5.23394,-6.1985 2.6446,-1.9137 7.0512,-1.478 6.2946,-7.9266 l 3.497,-2.0982 c 0,0 -2.1565,8.9174 0.23314,12.589 2.3896,3.6719 5.4787,3.3805 9.3254,2.0982 3.8467,-1.2822 6.0615,-7.2272 6.0615,-7.2272 l -23.97143,-18.11107 c -1.54452,0.33041 -4.89701,1.90247 -4.93731,6.22147 z"
               inkscape:connector-curvature="0"
               style="fill:#e70909;fill-opacity:1;fill-rule:evenodd" />
            <path
               inkscape:connector-curvature="0"
               style="fill:none;stroke:#0064ae;stroke-width:2.91482;stroke-linecap:butt;stroke-linejoin:miter;stroke-miterlimit:4;stroke-dasharray:none;stroke-opacity:1"
               d="m 129.15728,335.53356 c 11.642,14.062 40.44633,25.89163 68.36033,27.48363 23.542,1.3426 56.99269,-16.17151 60.72369,-27.82851"
               id="path4152" />
            <path
               style="color:#000000;font-style:normal;font-variant:normal;font-weight:normal;font-stretch:normal;font-size:medium;line-height:normal;font-family:Sans;-inkscape-font-specification:Sans;text-indent:0;text-align:start;text-decoration:none;text-decoration-line:none;letter-spacing:normal;word-spacing:normal;text-transform:none;writing-mode:lr-tb;direction:ltr;baseline-shift:baseline;text-anchor:start;display:inline;overflow:visible;visibility:visible;fill:#0064ae;fill-opacity:1;stroke:none;stroke-width:2.91482;marker:none;enable-background:accumulate"
               d="m 254.25,334.0625 0.125,2.90625 c 14.40639,-0.5939 32.15625,-6.8125 32.15625,-6.8125 0,0 -18.43074,3.33527 -32.28125,3.90625 z"
               id="path4150"
               inkscape:connector-curvature="0"
               sodipodi:nodetypes="cccc" />
            <path
               style="color:#000000;font-style:normal;font-variant:normal;font-weight:normal;font-stretch:normal;font-size:medium;line-height:normal;font-family:Sans;-inkscape-font-specification:Sans;text-indent:0;text-align:start;text-decoration:none;text-decoration-line:none;letter-spacing:normal;word-spacing:normal;text-transform:none;writing-mode:lr-tb;direction:ltr;baseline-shift:baseline;text-anchor:start;display:inline;overflow:visible;visibility:visible;fill:#0064ae;fill-opacity:1;stroke:none;stroke-width:2.91482;marker:none;enable-background:accumulate"
               d="m 269.96875,422.28125 c -8.03503,1.3296 -15.00678,0.0557 -22.1875,-1.5 -7.18072,-1.55569 -14.4192,-2.9639 -22.94864,-2.45081 l 0.0424,2.48206 c 8.01197,-0.48196 15.04456,1.24468 22.28125,2.8125 7.23669,1.56782 14.70847,2.955 23.3125,1.53125 C 278.82184,421.27754 285.99697,411.53706 288.5,403 c -6.87545,7.11182 -10.67364,15.20205 -18.53125,19.28125 z"
               id="path4129"
               inkscape:connector-curvature="0"
               sodipodi:nodetypes="csccsccc" />
            <use
               style="fill:#e70909;fill-opacity:1"
               height="705"
               width="500"
               transform="translate(145.30615)"
               id="use3918"
               xlink:href="#path3234"
               y="0"
               x="0" />
          </g>
          <path
             sodipodi:nodetypes="cccccc"
             id="path9658-1"
             d="m 261.53966,278.55475 1.15507,4.33165 c 0.96221,-7.893 5.39025,-8.85607 8.08608,-13.28371 h -13.59869 l -2.56989,-5.19803 c -0.68621,5.104 0.26926,10.30171 6.92743,14.15009 z"
             inkscape:connector-curvature="0"
             style="fill:#e70909;fill-opacity:1" />
        </g>
      </g>
      <g
         transform="translate(0,-1.2157435)"
         style="display:inline"
         inkscape:label="Layer"
         id="layer1" />
    </g>
  </g>
</svg>
